<svg width="186" height="200" viewBox="0 0 186 200" fill="none" xmlns="http://www.w3.org/2000/svg">
<path d="M38 70C35.3729 70 32.708 70 30.0003 70C16.1931 70 5 81.1929 5 95V170C5 183.807 16.1929 195 30 195H156C169.807 195 181 183.807 181 170V108"  fill="none" stroke-width="10" stroke-linecap="round" />
<path d="M34 136H153" fill="none" stroke-width="10" stroke-linecap="round"/>
<path d="M34 162H153" fill="none"  stroke-width="10" stroke-linecap="round" stroke-dasharray="20 20"/>
<path d="M149.52 6.53554L74.2614 81.7943C73.696 82.3596 73.2745 83.0523 73.0322 83.8142L66.5708 104.128C65.3247 108.046 69.076 111.709 72.9632 110.371L92.8155 103.537C93.5338 103.289 94.1863 102.882 94.7234 102.344L170.026 27.0416C171.979 25.089 171.979 21.9232 170.026 19.9706L156.591 6.53553C154.639 4.58291 151.473 4.58291 149.52 6.53554Z"  stroke-width="10" stroke-linecap="round" stroke-linejoin="round"/>
<path d="M79.1631 81.1353L97.5479 99.52" fill="black" stroke-width="10" stroke-linecap="round" stroke-linejoin="round"/>
</svg>
