<svg height="35" viewBox="0 0 598 305" fill="none" xmlns="http://www.w3.org/2000/svg">
<path fill-rule="evenodd" clip-rule="evenodd" d="M239.136 216.354C242.285 212.436 237.693 207.349 232.946 209.003C222.378 212.686 211.023 214.688 199.2 214.688C142.591 214.688 96.7002 168.797 96.7002 112.188C96.7002 100.365 98.7019 89.0097 102.385 78.4423C104.039 73.6953 98.9523 69.103 95.034 72.2523C71.6603 91.039 56.7002 119.866 56.7002 152.188C56.7002 208.797 102.591 254.688 159.2 254.688C191.522 254.688 220.349 239.728 239.136 216.354Z" />
<path fill-rule="evenodd" clip-rule="evenodd" d="M152.5 0H445.5C529.723 0 598 68.2766 598 152.5C598 236.723 529.723 305 445.5 305H152.5C68.2766 305 0 236.723 0 152.5C0 68.2766 68.2766 0 152.5 0ZM152.5 15C76.5609 15 15 76.5609 15 152.5C15 228.439 76.5609 290 152.5 290H445.5C521.439 290 583 228.439 583 152.5C583 76.5609 521.439 15 445.5 15H152.5Z" />
</svg>
