<svg width="327" height="217" viewBox="0 0 1307 956" fill="none" xmlns="http://www.w3.org/2000/svg">
<g filter="url(#filter0_i_341_1038)">
<rect width="550.957" height="352.77" rx="50" transform="matrix(0.962455 0.27144 -0.707107 0.707107 249.587 438.608)" fill="#B2CED1"/>
<path d="M207 575.5C207 582.3 257.667 655.667 283 691.5H303L701.5 464L615 300L283 239.5C257.667 348.667 207 568.7 207 575.5Z" fill="#B2CED1"/>
<path d="M747.554 592.166C753.411 586.308 764.624 583.382 772.597 585.631L1028.21 657.721C1121.96 684.163 1142.13 761.439 1073.25 830.322C1004.36 899.205 872.518 933.609 778.761 907.167L523.151 835.077C515.177 832.829 513.463 826.257 519.32 820.399L747.554 592.166Z" fill="#B2CED1"/>
<path d="M745.84 575.748C751.698 569.89 762.91 566.964 770.883 569.213L1024.15 640.642C1116.97 666.819 1136.93 743.318 1068.74 811.508C1000.55 879.698 870.03 913.757 777.215 887.581L523.945 816.151C515.971 813.902 514.257 807.331 520.114 801.473L745.84 575.748Z" fill="#6D7D9A"/>
<path d="M228.841 116.718L734.918 259.447L623.397 370.968L117.32 228.239L228.841 116.718Z" fill="#B2CED1"/>
<path d="M18.1745 413.141C17.5258 334.071 62.3264 224.645 118.239 168.732V168.732C211.428 75.5441 287.848 106.832 288.929 238.616L290.361 413.115C290.474 426.922 282.651 446.029 272.888 455.792L55.9493 672.731C36.4231 692.257 20.4103 685.701 20.1838 658.088L18.1745 413.141Z" fill="#B2CED1"/>
</g>
<path d="M513.591 552.883C512.943 473.813 557.743 364.387 613.656 308.474V308.474C706.845 215.286 783.265 246.573 784.346 378.357L785.229 485.982C785.297 494.266 780.603 505.73 774.746 511.588L533.058 753.276C523.295 763.039 515.289 759.761 515.175 745.954L513.591 552.883Z" fill="#8AADC0"/>
<mask id="mask0_341_1038" style="mask-type:alpha" maskUnits="userSpaceOnUse" x="26" y="447" width="706" height="376">
<rect width="488.471" height="352.77" rx="15" transform="matrix(0.962455 0.27144 -0.707107 0.707107 268.775 444.021)" fill="#9AE380"/>
</mask>
<g mask="url(#mask0_341_1038)">
<path d="M513.591 552.883C512.943 473.812 557.743 364.387 613.656 308.474V308.474C706.845 215.286 783.265 246.573 784.346 378.357L785.232 486.29C785.3 494.574 780.606 506.038 774.748 511.896L533.061 753.584C523.297 763.347 515.291 760.069 515.178 746.262L513.591 552.883Z" fill="#4E6081"/>
</g>
<path d="M733.837 565L1145.33 681.054C1147.99 681.804 1148.56 683.994 1146.61 685.947L983.958 848.599C974.195 858.362 955.508 863.238 942.219 859.49L574.033 755.651C560.745 751.903 557.886 740.951 567.65 731.188L733.837 565Z" fill="#B7B6EE"/>
<mask id="mask1_341_1038" style="mask-type:alpha" maskUnits="userSpaceOnUse" x="561" y="565" width="587" height="296">
<path d="M733.837 565L1145.33 681.054C1147.99 681.804 1148.56 683.994 1146.61 685.947L983.958 848.598C974.195 858.362 955.508 863.238 942.219 859.49L574.033 755.651C560.745 751.903 557.886 740.95 567.65 731.187L733.837 565Z" fill="#FCD925"/>
</mask>
<g mask="url(#mask1_341_1038)">
<path d="M815.161 740.977L733.873 566.763C732.859 564.59 732.818 562.125 733.746 559.614C737.813 548.597 758.016 540.838 771.708 545.093L1147.07 661.751C1164.52 667.176 1155.61 685.795 1133.47 690.133L839.368 747.78C828.126 749.984 818.042 747.15 815.161 740.977Z" fill="#C8A5EC"/>
</g>
<mask id="mask2_341_1038" style="mask-type:alpha" maskUnits="userSpaceOnUse" x="561" y="565" width="587" height="296">
<path d="M733.836 565L1145.33 681.054C1147.99 681.804 1148.56 683.994 1146.61 685.947L983.957 848.598C974.194 858.362 955.507 863.238 942.218 859.49L574.032 755.651C560.744 751.903 557.886 740.95 567.649 731.187L733.836 565Z" fill="#8AADC0"/>
</mask>
<g mask="url(#mask2_341_1038)">
<g filter="url(#filter1_f_341_1038)">
<path d="M733.836 547L1145.33 663.054C1147.99 663.803 1148.56 665.994 1146.61 667.946L983.957 830.598C974.194 840.361 955.507 845.238 942.218 841.49L574.032 737.651C560.744 733.903 557.886 722.95 567.649 713.187L733.836 547Z" fill="black" fill-opacity="0.15"/>
</g>
</g>
<path d="M733.837 525L1145.33 641.054C1147.99 641.804 1148.56 643.994 1146.61 645.947L983.958 808.599C974.195 818.362 955.508 823.238 942.219 819.49L574.033 715.651C560.745 711.903 557.886 700.951 567.65 691.188L733.837 525Z" fill="#DA6B6B"/>
<mask id="mask3_341_1038" style="mask-type:alpha" maskUnits="userSpaceOnUse" x="561" y="525" width="587" height="296">
<path d="M733.837 525L1145.33 641.054C1147.99 641.804 1148.56 643.994 1146.61 645.947L983.958 808.598C974.195 818.362 955.508 823.238 942.219 819.49L574.033 715.651C560.745 711.903 557.886 700.95 567.65 691.187L733.837 525Z" fill="#FCD925"/>
</mask>
<g mask="url(#mask3_341_1038)">
<path d="M815.161 700.977L733.873 526.763C732.859 524.59 732.818 522.125 733.746 519.614C737.813 508.597 758.016 500.838 771.708 505.093L1147.07 621.751C1164.52 627.176 1155.61 645.795 1133.47 650.133L839.368 707.78C828.126 709.984 818.042 707.15 815.161 700.977Z" fill="#D05B5B"/>
</g>
<mask id="mask4_341_1038" style="mask-type:alpha" maskUnits="userSpaceOnUse" x="561" y="525" width="587" height="296">
<path d="M733.836 525L1145.33 641.054C1147.99 641.804 1148.56 643.994 1146.61 645.947L983.957 808.598C974.194 818.362 955.507 823.238 942.218 819.49L574.032 715.651C560.744 711.903 557.886 700.95 567.649 691.187L733.836 525Z" fill="#8AADC0"/>
</mask>
<g mask="url(#mask4_341_1038)">
<g filter="url(#filter2_f_341_1038)">
<path d="M733.836 507L1145.33 623.054C1147.99 623.803 1148.56 625.994 1146.61 627.946L983.957 790.598C974.194 800.361 955.507 805.238 942.218 801.49L574.032 697.651C560.744 693.903 557.886 682.95 567.649 673.187L733.836 507Z" fill="black" fill-opacity="0.15"/>
</g>
</g>
<path d="M733.836 486L1145.33 602.054C1147.99 602.804 1148.56 604.994 1146.61 606.947L983.957 769.599C974.194 779.362 955.507 784.238 942.218 780.49L574.032 676.651C560.744 672.903 557.886 661.951 567.649 652.188L733.836 486Z" fill="#ACE498"/>
<mask id="mask5_341_1038" style="mask-type:alpha" maskUnits="userSpaceOnUse" x="561" y="486" width="587" height="296">
<path d="M733.836 486L1145.33 602.054C1147.99 602.804 1148.56 604.994 1146.61 606.947L983.957 769.598C974.194 779.362 955.507 784.238 942.218 780.49L574.032 676.651C560.744 672.903 557.886 661.95 567.649 652.187L733.836 486Z" fill="#FCD925"/>
</mask>
<g mask="url(#mask5_341_1038)">
<path d="M815.16 661.977L733.872 487.763C732.858 485.59 732.818 483.125 733.745 480.614C737.812 469.597 758.015 461.838 771.707 466.093L1147.07 582.751C1164.52 588.176 1155.61 606.795 1133.47 611.133L839.367 668.78C828.125 670.984 818.041 668.15 815.16 661.977Z" fill="#9AD286"/>
</g>
<mask id="mask6_341_1038" style="mask-type:alpha" maskUnits="userSpaceOnUse" x="561" y="486" width="587" height="296">
<path d="M733.836 486L1145.33 602.054C1147.99 602.804 1148.56 604.994 1146.61 606.947L983.957 769.598C974.194 779.362 955.507 784.238 942.218 780.49L574.032 676.651C560.744 672.903 557.886 661.95 567.649 652.187L733.836 486Z" fill="#8AADC0"/>
</mask>
<g mask="url(#mask6_341_1038)">
<g filter="url(#filter3_f_341_1038)">
<path d="M733.836 468L1145.33 584.054C1147.99 584.803 1148.56 586.994 1146.61 588.946L983.957 751.598C974.194 761.361 955.507 766.238 942.218 762.49L574.032 658.651C560.744 654.903 557.886 643.95 567.649 634.187L733.836 468Z" fill="black" fill-opacity="0.15"/>
</g>
</g>
<path d="M733.836 448L1145.33 564.054C1147.99 564.804 1148.56 566.994 1146.61 568.947L983.957 731.599C974.194 741.362 955.507 746.238 942.218 742.49L574.032 638.651C560.744 634.903 557.886 623.951 567.649 614.188L733.836 448Z" fill="#8AADC0"/>
<mask id="mask7_341_1038" style="mask-type:alpha" maskUnits="userSpaceOnUse" x="561" y="448" width="587" height="296">
<path d="M733.836 448L1145.33 564.054C1147.99 564.804 1148.56 566.994 1146.61 568.947L983.957 731.598C974.194 741.362 955.507 746.238 942.218 742.49L574.032 638.651C560.744 634.903 557.886 623.95 567.649 614.187L733.836 448Z" fill="#FCD925"/>
</mask>
<g mask="url(#mask7_341_1038)">
<path d="M815.16 623.977L733.872 449.763C732.858 447.59 732.818 445.125 733.745 442.614C737.812 431.597 758.015 423.838 771.707 428.093L1147.07 544.751C1164.52 550.176 1155.61 568.795 1133.47 573.133L839.367 630.78C828.125 632.984 818.041 630.15 815.16 623.977Z" fill="#97A9CA"/>
</g>
<mask id="mask8_341_1038" style="mask-type:alpha" maskUnits="userSpaceOnUse" x="561" y="448" width="587" height="296">
<path d="M733.836 448L1145.33 564.054C1147.99 564.804 1148.56 566.994 1146.61 568.947L983.957 731.599C974.194 741.362 955.507 746.238 942.218 742.49L574.032 638.651C560.744 634.903 557.886 623.951 567.649 614.188L733.836 448Z" fill="#8AADC0"/>
</mask>
<g mask="url(#mask8_341_1038)">
<g filter="url(#filter4_f_341_1038)">
<path d="M733.836 430L1145.33 546.054C1147.99 546.804 1148.56 548.994 1146.61 550.947L983.957 713.598C974.194 723.362 955.507 728.238 942.218 724.49L574.032 620.651C560.744 616.903 557.886 605.95 567.649 596.187L733.836 430Z" fill="black" fill-opacity="0.15"/>
</g>
</g>
<path d="M733.836 415.171L1145.33 531.225C1147.99 531.974 1148.56 534.165 1146.61 536.118L983.957 698.769C974.194 708.532 955.507 713.409 942.218 709.661L574.032 605.822C560.744 602.074 557.886 591.121 567.649 581.358L733.836 415.171Z" fill="#F48F6E"/>
<path d="M1149.81 529.567C1149.42 526.464 1147.53 524.454 1146.38 523.721L1069.82 483.467C1067.52 482.258 1064.94 481.666 1062.34 481.754C1049.12 482.205 1028.4 482.974 1027.51 483.273C1026.98 483.45 1025.78 488.182 1024.55 493.758C1022.85 501.517 1027.75 509.134 1035.45 511.067L1138.69 536.964C1141.7 537.718 1144.88 536.958 1147.22 534.929C1148.82 533.55 1150.08 531.657 1149.81 529.567Z" fill="#F48F6E"/>
<mask id="mask9_341_1038" style="mask-type:alpha" maskUnits="userSpaceOnUse" x="561" y="415" width="587" height="296">
<path d="M733.836 415.171L1145.33 531.225C1147.99 531.974 1148.56 534.165 1146.61 536.117L983.957 698.769C974.194 708.532 955.507 713.409 942.218 709.661L574.032 605.822C560.744 602.074 557.886 591.121 567.649 581.358L733.836 415.171Z" fill="#FCD925"/>
</mask>
<g mask="url(#mask9_341_1038)">
<path d="M813.926 588.502L733.877 416.945C732.86 414.765 732.814 412.304 733.745 409.784C737.825 398.731 758.067 391.025 771.805 395.294L1134.38 507.979C1156.2 514.76 1145.05 538.034 1117.39 543.456L844.184 597.007C830.132 599.761 817.527 596.218 813.926 588.502Z" fill="#4E6081"/>
</g>
<mask id="mask10_341_1038" style="mask-type:alpha" maskUnits="userSpaceOnUse" x="523" y="445" width="587" height="297">
<path d="M695.864 445.713L1107.36 561.767C1110.02 562.516 1110.59 564.707 1108.64 566.66L945.985 729.311C936.222 739.074 917.535 743.951 904.246 740.203L536.061 636.364C522.772 632.616 519.914 621.663 529.677 611.9L695.864 445.713Z" fill="#FCD925"/>
</mask>
<g mask="url(#mask10_341_1038)">
<g filter="url(#filter5_f_341_1038)">
<path d="M728.273 366.703C728.273 352.896 739.085 344.6 752.422 348.173L1010.35 417.286C1023.69 420.86 1034.5 434.949 1034.5 448.757L1034.5 589.338C1034.5 603.145 1023.69 611.441 1010.35 607.868L752.422 538.755C739.085 535.181 728.273 521.092 728.273 507.284L728.273 366.703Z" fill="black" fill-opacity="0.1"/>
<path d="M683.699 394.769C683.699 380.962 694.511 372.666 707.847 376.24L965.779 445.352C979.116 448.926 989.928 463.016 989.928 476.823L989.928 617.404C989.928 631.211 979.116 639.507 965.779 635.934L707.847 566.821C694.511 563.248 683.699 549.158 683.699 535.351L683.699 394.769Z" fill="black" fill-opacity="0.1"/>
<path d="M641.599 429.439C641.599 415.632 652.41 407.336 665.747 410.909L923.679 480.022C937.016 483.596 947.827 497.685 947.827 511.493L947.827 652.074C947.827 665.881 937.016 674.177 923.679 670.604L665.747 601.491C652.41 597.917 641.599 583.828 641.599 570.021L641.599 429.439Z" fill="black" fill-opacity="0.1"/>
</g>
</g>
<path d="M987.353 356.185L1144.63 521.21C1148.04 524.787 1143.89 530.68 1138.94 529.285L741.418 417.172C736.47 415.777 737.172 408.91 742.38 407.763L982.621 354.851C984.396 354.46 986.191 354.966 987.353 356.185Z" fill="#F48F6E"/>
<path d="M728.273 332.033C728.273 318.226 739.085 309.93 752.422 313.504L1010.35 382.616C1023.69 386.19 1034.5 400.28 1034.5 414.087V554.668C1034.5 568.476 1023.69 576.772 1010.35 573.198L752.422 504.085C739.085 500.512 728.273 486.422 728.273 472.615V332.033Z" fill="#B7B6EE"/>
<rect width="10" height="4" rx="2" transform="matrix(0.962455 0.27144 0.0165799 0.999863 755.545 344.759)" fill="#183153"/>
<rect width="259" height="4" rx="2" transform="matrix(0.962455 0.27144 0.0165799 0.999863 755.844 362.757)" fill="#183153"/>
<rect width="259" height="4" rx="2" transform="matrix(0.962455 0.27144 0.0165799 0.999863 756.142 380.754)" fill="#183153"/>
<rect width="247" height="4" rx="2" transform="matrix(0.962455 0.27144 0.0165799 0.999863 756.44 398.752)" fill="#183153"/>
<rect width="259" height="4" rx="2" transform="matrix(0.962455 0.27144 0.0165799 0.999863 757.037 434.747)" fill="#183153"/>
<rect width="259" height="4" rx="2" transform="matrix(0.962455 0.27144 0.0165799 0.999863 757.336 452.744)" fill="#183153"/>
<rect width="1" height="4" rx="0.5" transform="matrix(0.962455 0.27144 0.0165799 0.999863 757.634 470.742)" fill="#183153"/>
<mask id="mask11_341_1038" style="mask-type:alpha" maskUnits="userSpaceOnUse" x="728" y="312" width="307" height="263">
<path d="M728.273 332.033C728.273 318.226 739.085 309.93 752.422 313.504L1010.35 382.616C1023.69 386.19 1034.5 400.28 1034.5 414.087V554.668C1034.5 568.476 1023.69 576.772 1010.35 573.198L752.422 504.085C739.085 500.512 728.273 486.422 728.273 472.615V332.033Z" fill="#B7B6EE"/>
</mask>
<g mask="url(#mask11_341_1038)">
<g filter="url(#filter6_f_341_1038)">
<path d="M703.51 348.542C703.51 334.735 714.321 326.439 727.658 330.013L985.59 399.126C998.927 402.699 1009.74 416.789 1009.74 430.596V571.178C1009.74 584.985 998.927 593.281 985.59 589.707L727.658 520.595C714.321 517.021 703.51 502.931 703.51 489.124V348.542Z" fill="black" fill-opacity="0.1"/>
</g>
</g>
<path d="M683.699 360.099C683.699 346.292 694.511 337.996 707.847 341.57L965.779 410.683C979.116 414.256 989.928 428.346 989.928 442.153V582.735C989.928 596.542 979.116 604.838 965.779 601.264L707.847 532.151C694.511 528.578 683.699 514.488 683.699 500.681V360.099Z" fill="#9AE380"/>
<rect width="10" height="4" rx="2" transform="matrix(0.962455 0.27144 0.0165799 0.999863 710.97 372.825)" fill="#183153"/>
<rect width="259" height="4" rx="2" transform="matrix(0.962455 0.27144 0.0165799 0.999863 711.269 390.823)" fill="#183153"/>
<rect width="259" height="4" rx="2" transform="matrix(0.962455 0.27144 0.0165799 0.999863 711.566 408.821)" fill="#183153"/>
<rect width="247" height="4" rx="2" transform="matrix(0.962455 0.27144 0.0165799 0.999863 711.865 426.818)" fill="#183153"/>
<rect width="259" height="4" rx="2" transform="matrix(0.962455 0.27144 0.0165799 0.999863 712.462 462.813)" fill="#183153"/>
<rect width="259" height="4" rx="2" transform="matrix(0.962455 0.27144 0.0165799 0.999863 712.761 480.811)" fill="#183153"/>
<rect width="1" height="4" rx="0.5" transform="matrix(0.962455 0.27144 0.0165799 0.999863 713.059 498.808)" fill="#183153"/>
<mask id="mask12_341_1038" style="mask-type:alpha" maskUnits="userSpaceOnUse" x="683" y="340" width="307" height="263">
<path d="M683.699 360.099C683.699 346.292 694.511 337.996 707.847 341.57L965.779 410.682C979.116 414.256 989.928 428.346 989.928 442.153V582.734C989.928 596.541 979.116 604.837 965.779 601.264L707.847 532.151C694.511 528.578 683.699 514.488 683.699 500.681V360.099Z" fill="#9AE380"/>
</mask>
<g mask="url(#mask12_341_1038)">
<g filter="url(#filter7_f_341_1038)">
<path d="M659.761 379.91C659.761 366.103 670.572 357.807 683.909 361.381L941.841 430.494C955.178 434.067 965.989 448.157 965.989 461.964V602.546C965.989 616.353 955.178 624.649 941.841 621.075L683.909 551.962C670.572 548.389 659.761 534.299 659.761 520.492V379.91Z" fill="black" fill-opacity="0.1"/>
</g>
</g>
<path d="M641.599 394.769C641.599 380.962 652.41 372.666 665.747 376.24L923.679 445.352C937.016 448.926 947.827 463.016 947.827 476.823V617.405C947.827 631.212 937.016 639.508 923.679 635.934L665.747 566.821C652.41 563.248 641.599 549.158 641.599 535.351V394.769Z" fill="#E3E9EC"/>
<rect width="55" height="4" rx="2" transform="matrix(0.962455 0.27144 0.0165799 0.999863 668.869 407.495)" fill="#183153"/>
<rect width="259" height="4" rx="2" transform="matrix(0.962455 0.27144 0.0165799 0.999863 669.168 425.493)" fill="#183153"/>
<rect width="259" height="4" rx="2" transform="matrix(0.962455 0.27144 0.0165799 0.999863 669.466 443.49)" fill="#183153"/>
<rect width="247" height="4" rx="2" transform="matrix(0.962455 0.27144 0.0165799 0.999863 669.765 461.488)" fill="#183153"/>
<rect width="259" height="4" rx="2" transform="matrix(0.962455 0.27144 0.0165799 0.999863 670.361 497.483)" fill="#183153"/>
<rect width="259" height="4" rx="2" transform="matrix(0.962455 0.27144 0.0165799 0.999863 670.66 515.48)" fill="#183153"/>
<rect width="35" height="4" rx="2" transform="matrix(0.962455 0.27144 0.0165799 0.999863 670.958 533.478)" fill="#183153"/>
<mask id="mask13_341_1038" style="mask-type:alpha" maskUnits="userSpaceOnUse" x="561" y="312" width="589" height="549">
<path d="M733.837 565L1145.33 681.054C1147.99 681.804 1148.56 683.994 1146.61 685.947L983.958 848.599C974.195 858.362 955.508 863.238 942.219 859.49L574.033 755.651C560.745 751.903 557.886 740.951 567.65 731.188L733.837 565Z" fill="#B7B6EE"/>
<mask id="mask14_341_1038" style="mask-type:alpha" maskUnits="userSpaceOnUse" x="561" y="565" width="587" height="296">
<path d="M733.837 565L1145.33 681.054C1147.99 681.804 1148.56 683.994 1146.61 685.947L983.958 848.598C974.195 858.362 955.508 863.238 942.219 859.49L574.033 755.651C560.745 751.903 557.886 740.95 567.65 731.187L733.837 565Z" fill="#FCD925"/>
</mask>
<g mask="url(#mask14_341_1038)">
<path d="M815.161 740.977L733.873 566.763C732.859 564.59 732.818 562.125 733.746 559.614C737.813 548.597 758.016 540.838 771.708 545.093L1147.07 661.751C1164.52 667.176 1155.61 685.795 1133.47 690.133L839.368 747.78C828.126 749.984 818.042 747.15 815.161 740.977Z" fill="#BB93E3"/>
</g>
<mask id="mask15_341_1038" style="mask-type:alpha" maskUnits="userSpaceOnUse" x="561" y="565" width="587" height="296">
<path d="M733.836 565L1145.33 681.054C1147.99 681.804 1148.56 683.994 1146.61 685.947L983.957 848.598C974.194 858.362 955.507 863.238 942.218 859.49L574.032 755.651C560.744 751.903 557.886 740.95 567.649 731.187L733.836 565Z" fill="#8AADC0"/>
</mask>
<g mask="url(#mask15_341_1038)">
<path d="M733.836 547L1145.33 663.054C1147.99 663.803 1148.56 665.994 1146.61 667.946L983.957 830.598C974.194 840.361 955.507 845.238 942.218 841.49L574.032 737.651C560.744 733.903 557.886 722.95 567.649 713.187L733.836 547Z" fill="black" fill-opacity="0.15"/>
</g>
<path d="M733.837 525L1145.33 641.054C1147.99 641.804 1148.56 643.994 1146.61 645.947L983.958 808.599C974.195 818.362 955.508 823.238 942.219 819.49L574.033 715.651C560.745 711.903 557.886 700.951 567.65 691.188L733.837 525Z" fill="#DA6B6B"/>
<mask id="mask16_341_1038" style="mask-type:alpha" maskUnits="userSpaceOnUse" x="561" y="525" width="587" height="296">
<path d="M733.837 525L1145.33 641.054C1147.99 641.804 1148.56 643.994 1146.61 645.947L983.958 808.598C974.195 818.362 955.508 823.238 942.219 819.49L574.033 715.651C560.745 711.903 557.886 700.95 567.65 691.187L733.837 525Z" fill="#FCD925"/>
</mask>
<g mask="url(#mask16_341_1038)">
<path d="M815.161 700.977L733.873 526.763C732.859 524.59 732.818 522.125 733.746 519.614C737.813 508.597 758.016 500.838 771.708 505.093L1147.07 621.751C1164.52 627.176 1155.61 645.795 1133.47 650.133L839.368 707.78C828.126 709.984 818.042 707.15 815.161 700.977Z" fill="#CA2C2C"/>
</g>
<mask id="mask17_341_1038" style="mask-type:alpha" maskUnits="userSpaceOnUse" x="561" y="525" width="587" height="296">
<path d="M733.836 525L1145.33 641.054C1147.99 641.804 1148.56 643.994 1146.61 645.947L983.957 808.598C974.194 818.362 955.507 823.238 942.218 819.49L574.032 715.651C560.744 711.903 557.886 700.95 567.649 691.187L733.836 525Z" fill="#8AADC0"/>
</mask>
<g mask="url(#mask17_341_1038)">
<path d="M733.836 507L1145.33 623.054C1147.99 623.803 1148.56 625.994 1146.61 627.946L983.957 790.598C974.194 800.361 955.507 805.238 942.218 801.49L574.032 697.651C560.744 693.903 557.886 682.95 567.649 673.187L733.836 507Z" fill="black" fill-opacity="0.15"/>
</g>
<path d="M733.836 486L1145.33 602.054C1147.99 602.804 1148.56 604.994 1146.61 606.947L983.957 769.599C974.194 779.362 955.507 784.238 942.218 780.49L574.032 676.651C560.744 672.903 557.886 661.951 567.649 652.188L733.836 486Z" fill="#ACE498"/>
<mask id="mask18_341_1038" style="mask-type:alpha" maskUnits="userSpaceOnUse" x="561" y="486" width="587" height="296">
<path d="M733.836 486L1145.33 602.054C1147.99 602.804 1148.56 604.994 1146.61 606.947L983.957 769.598C974.194 779.362 955.507 784.238 942.218 780.49L574.032 676.651C560.744 672.903 557.886 661.95 567.649 652.187L733.836 486Z" fill="#FCD925"/>
</mask>
<g mask="url(#mask18_341_1038)">
<path d="M815.16 661.977L733.872 487.763C732.858 485.59 732.818 483.125 733.745 480.614C737.812 469.597 758.015 461.838 771.707 466.093L1147.07 582.751C1164.52 588.176 1155.61 606.795 1133.47 611.133L839.367 668.78C828.125 670.984 818.041 668.15 815.16 661.977Z" fill="#4E9D32"/>
</g>
<mask id="mask19_341_1038" style="mask-type:alpha" maskUnits="userSpaceOnUse" x="561" y="486" width="587" height="296">
<path d="M733.836 486L1145.33 602.054C1147.99 602.804 1148.56 604.994 1146.61 606.947L983.957 769.598C974.194 779.362 955.507 784.238 942.218 780.49L574.032 676.651C560.744 672.903 557.886 661.95 567.649 652.187L733.836 486Z" fill="#8AADC0"/>
</mask>
<g mask="url(#mask19_341_1038)">
<path d="M733.836 468L1145.33 584.054C1147.99 584.803 1148.56 586.994 1146.61 588.946L983.957 751.598C974.194 761.361 955.507 766.238 942.218 762.49L574.032 658.651C560.744 654.903 557.886 643.95 567.649 634.187L733.836 468Z" fill="black" fill-opacity="0.15"/>
</g>
<path d="M733.836 448L1145.33 564.054C1147.99 564.804 1148.56 566.994 1146.61 568.947L983.957 731.599C974.194 741.362 955.507 746.238 942.218 742.49L574.032 638.651C560.744 634.903 557.886 623.951 567.649 614.188L733.836 448Z" fill="#8AADC0"/>
<mask id="mask20_341_1038" style="mask-type:alpha" maskUnits="userSpaceOnUse" x="561" y="448" width="587" height="296">
<path d="M733.836 448L1145.33 564.054C1147.99 564.804 1148.56 566.994 1146.61 568.947L983.957 731.598C974.194 741.362 955.507 746.238 942.218 742.49L574.032 638.651C560.744 634.903 557.886 623.95 567.649 614.187L733.836 448Z" fill="#FCD925"/>
</mask>
<g mask="url(#mask20_341_1038)">
<path d="M815.16 623.977L733.872 449.763C732.858 447.59 732.818 445.125 733.745 442.614C737.812 431.597 758.015 423.838 771.707 428.093L1147.07 544.751C1164.52 550.176 1155.61 568.795 1133.47 573.133L839.367 630.78C828.125 632.984 818.041 630.15 815.16 623.977Z" fill="#4E6081"/>
</g>
<mask id="mask21_341_1038" style="mask-type:alpha" maskUnits="userSpaceOnUse" x="561" y="448" width="587" height="296">
<path d="M733.836 448L1145.33 564.054C1147.99 564.804 1148.56 566.994 1146.61 568.947L983.957 731.599C974.194 741.362 955.507 746.238 942.218 742.49L574.032 638.651C560.744 634.903 557.886 623.951 567.649 614.188L733.836 448Z" fill="#8AADC0"/>
</mask>
<g mask="url(#mask21_341_1038)">
<path d="M733.836 430L1145.33 546.054C1147.99 546.804 1148.56 548.994 1146.61 550.947L983.957 713.598C974.194 723.362 955.507 728.238 942.218 724.49L574.032 620.651C560.744 616.903 557.886 605.95 567.649 596.187L733.836 430Z" fill="black" fill-opacity="0.15"/>
</g>
<path d="M733.836 415.171L1145.33 531.225C1147.99 531.974 1148.56 534.165 1146.61 536.118L983.957 698.769C974.194 708.532 955.507 713.409 942.218 709.661L574.032 605.822C560.744 602.074 557.886 591.121 567.649 581.358L733.836 415.171Z" fill="#F48F6E"/>
<path d="M1149.81 529.567C1149.42 526.464 1147.53 524.454 1146.38 523.721L1069.82 483.467C1067.52 482.258 1064.94 481.666 1062.34 481.754C1049.12 482.205 1028.4 482.974 1027.51 483.273C1026.98 483.45 1025.78 488.182 1024.55 493.758C1022.85 501.517 1027.75 509.134 1035.45 511.067L1138.69 536.964C1141.7 537.718 1144.88 536.958 1147.22 534.929C1148.82 533.55 1150.08 531.657 1149.81 529.567Z" fill="#F48F6E"/>
<mask id="mask22_341_1038" style="mask-type:alpha" maskUnits="userSpaceOnUse" x="561" y="415" width="587" height="296">
<path d="M733.836 415.171L1145.33 531.225C1147.99 531.974 1148.56 534.165 1146.61 536.117L983.957 698.769C974.194 708.532 955.507 713.409 942.218 709.661L574.032 605.822C560.744 602.074 557.886 591.121 567.649 581.358L733.836 415.171Z" fill="#FCD925"/>
</mask>
<g mask="url(#mask22_341_1038)">
<path d="M813.926 588.502L733.877 416.945C732.86 414.765 732.814 412.304 733.745 409.784C737.825 398.731 758.067 391.025 771.805 395.294L1134.38 507.979C1156.2 514.76 1145.05 538.034 1117.39 543.456L844.184 597.007C830.132 599.761 817.527 596.218 813.926 588.502Z" fill="#F5B435"/>
</g>
<mask id="mask23_341_1038" style="mask-type:alpha" maskUnits="userSpaceOnUse" x="523" y="445" width="587" height="297">
<path d="M695.864 445.713L1107.36 561.767C1110.02 562.516 1110.59 564.707 1108.64 566.66L945.985 729.311C936.222 739.074 917.535 743.951 904.246 740.203L536.061 636.364C522.772 632.616 519.914 621.663 529.677 611.9L695.864 445.713Z" fill="#FCD925"/>
</mask>
<g mask="url(#mask23_341_1038)">
<path d="M728.273 366.703C728.273 352.896 739.085 344.6 752.422 348.173L1010.35 417.286C1023.69 420.86 1034.5 434.949 1034.5 448.757L1034.5 589.338C1034.5 603.145 1023.69 611.441 1010.35 607.868L752.422 538.755C739.085 535.181 728.273 521.092 728.273 507.284L728.273 366.703Z" fill="black" fill-opacity="0.1"/>
<path d="M683.699 394.769C683.699 380.962 694.511 372.666 707.847 376.24L965.779 445.352C979.116 448.926 989.928 463.016 989.928 476.823L989.928 617.404C989.928 631.211 979.116 639.507 965.779 635.934L707.847 566.821C694.511 563.248 683.699 549.158 683.699 535.351L683.699 394.769Z" fill="black" fill-opacity="0.1"/>
<path d="M641.599 429.439C641.599 415.632 652.41 407.336 665.747 410.909L923.679 480.022C937.016 483.596 947.827 497.685 947.827 511.493L947.827 652.074C947.827 665.881 937.016 674.177 923.679 670.604L665.747 601.491C652.41 597.917 641.599 583.828 641.599 570.021L641.599 429.439Z" fill="black" fill-opacity="0.1"/>
</g>
<path d="M987.353 356.185L1144.63 521.21C1148.04 524.787 1143.89 530.68 1138.94 529.285L741.418 417.172C736.47 415.777 737.172 408.91 742.38 407.763L982.621 354.851C984.396 354.46 986.191 354.966 987.353 356.185Z" fill="#F48F6E"/>
<path d="M728.273 332.033C728.273 318.226 739.085 309.93 752.422 313.504L1010.35 382.616C1023.69 386.19 1034.5 400.28 1034.5 414.087V554.668C1034.5 568.476 1023.69 576.772 1010.35 573.198L752.422 504.085C739.085 500.512 728.273 486.422 728.273 472.615V332.033Z" fill="#B7B6EE"/>
<rect width="10" height="4" rx="2" transform="matrix(0.962455 0.27144 0.0165799 0.999863 755.545 344.759)" fill="#183153"/>
<rect width="259" height="4" rx="2" transform="matrix(0.962455 0.27144 0.0165799 0.999863 755.844 362.757)" fill="#183153"/>
<rect width="259" height="4" rx="2" transform="matrix(0.962455 0.27144 0.0165799 0.999863 756.142 380.754)" fill="#183153"/>
<rect width="247" height="4" rx="2" transform="matrix(0.962455 0.27144 0.0165799 0.999863 756.44 398.752)" fill="#183153"/>
<rect width="259" height="4" rx="2" transform="matrix(0.962455 0.27144 0.0165799 0.999863 757.037 434.747)" fill="#183153"/>
<rect width="259" height="4" rx="2" transform="matrix(0.962455 0.27144 0.0165799 0.999863 757.336 452.744)" fill="#183153"/>
<rect width="1" height="4" rx="0.5" transform="matrix(0.962455 0.27144 0.0165799 0.999863 757.634 470.742)" fill="#183153"/>
<mask id="mask24_341_1038" style="mask-type:alpha" maskUnits="userSpaceOnUse" x="728" y="312" width="307" height="263">
<path d="M728.273 332.033C728.273 318.226 739.085 309.93 752.422 313.504L1010.35 382.616C1023.69 386.19 1034.5 400.28 1034.5 414.087V554.668C1034.5 568.476 1023.69 576.772 1010.35 573.198L752.422 504.085C739.085 500.512 728.273 486.422 728.273 472.615V332.033Z" fill="#B7B6EE"/>
</mask>
<g mask="url(#mask24_341_1038)">
<path d="M703.51 348.542C703.51 334.735 714.321 326.439 727.658 330.013L985.59 399.126C998.927 402.699 1009.74 416.789 1009.74 430.596V571.178C1009.74 584.985 998.927 593.281 985.59 589.707L727.658 520.595C714.321 517.021 703.51 502.931 703.51 489.124V348.542Z" fill="black" fill-opacity="0.1"/>
</g>
<path d="M683.699 360.099C683.699 346.292 694.511 337.996 707.847 341.57L965.779 410.683C979.116 414.256 989.928 428.346 989.928 442.153V582.735C989.928 596.542 979.116 604.838 965.779 601.264L707.847 532.151C694.511 528.578 683.699 514.488 683.699 500.681V360.099Z" fill="#9AE380"/>
<rect width="10" height="4" rx="2" transform="matrix(0.962455 0.27144 0.0165799 0.999863 710.97 372.825)" fill="#183153"/>
<rect width="259" height="4" rx="2" transform="matrix(0.962455 0.27144 0.0165799 0.999863 711.269 390.823)" fill="#183153"/>
<rect width="259" height="4" rx="2" transform="matrix(0.962455 0.27144 0.0165799 0.999863 711.566 408.821)" fill="#183153"/>
<rect width="247" height="4" rx="2" transform="matrix(0.962455 0.27144 0.0165799 0.999863 711.865 426.818)" fill="#183153"/>
<rect width="259" height="4" rx="2" transform="matrix(0.962455 0.27144 0.0165799 0.999863 712.462 462.813)" fill="#183153"/>
<rect width="259" height="4" rx="2" transform="matrix(0.962455 0.27144 0.0165799 0.999863 712.761 480.811)" fill="#183153"/>
<rect width="1" height="4" rx="0.5" transform="matrix(0.962455 0.27144 0.0165799 0.999863 713.059 498.808)" fill="#183153"/>
<mask id="mask25_341_1038" style="mask-type:alpha" maskUnits="userSpaceOnUse" x="683" y="340" width="307" height="263">
<path d="M683.699 360.099C683.699 346.292 694.511 337.996 707.847 341.57L965.779 410.682C979.116 414.256 989.928 428.346 989.928 442.153V582.734C989.928 596.541 979.116 604.837 965.779 601.264L707.847 532.151C694.511 528.578 683.699 514.488 683.699 500.681V360.099Z" fill="#9AE380"/>
</mask>
<g mask="url(#mask25_341_1038)">
<path d="M659.761 379.91C659.761 366.103 670.572 357.807 683.909 361.381L941.841 430.494C955.178 434.067 965.989 448.157 965.989 461.964V602.546C965.989 616.353 955.178 624.649 941.841 621.075L683.909 551.962C670.572 548.389 659.761 534.299 659.761 520.492V379.91Z" fill="black" fill-opacity="0.1"/>
</g>
<path d="M641.599 394.769C641.599 380.962 652.41 372.666 665.747 376.24L923.679 445.352C937.016 448.926 947.827 463.016 947.827 476.823V617.405C947.827 631.212 937.016 639.508 923.679 635.934L665.747 566.821C652.41 563.248 641.599 549.158 641.599 535.351V394.769Z" fill="#E3E9EC"/>
<rect width="55" height="4" rx="2" transform="matrix(0.962455 0.27144 0.0165799 0.999863 668.869 407.495)" fill="#183153"/>
<rect width="259" height="4" rx="2" transform="matrix(0.962455 0.27144 0.0165799 0.999863 669.168 425.493)" fill="#183153"/>
<rect width="259" height="4" rx="2" transform="matrix(0.962455 0.27144 0.0165799 0.999863 669.466 443.49)" fill="#183153"/>
<rect width="247" height="4" rx="2" transform="matrix(0.962455 0.27144 0.0165799 0.999863 669.765 461.488)" fill="#183153"/>
<rect width="259" height="4" rx="2" transform="matrix(0.962455 0.27144 0.0165799 0.999863 670.361 497.483)" fill="#183153"/>
<rect width="259" height="4" rx="2" transform="matrix(0.962455 0.27144 0.0165799 0.999863 670.66 515.48)" fill="#183153"/>
<rect width="35" height="4" rx="2" transform="matrix(0.962455 0.27144 0.0165799 0.999863 670.958 533.478)" fill="#183153"/>
<g style="mix-blend-mode:multiply" opacity="0.25">
<path d="M733.837 565L1145.33 681.054C1147.99 681.804 1148.56 683.994 1146.61 685.947L983.958 848.599C974.195 858.362 955.508 863.238 942.219 859.49L574.033 755.651C560.745 751.903 557.886 740.951 567.65 731.188L733.837 565Z" fill="#2E2E2E"/>
<mask id="mask26_341_1038" style="mask-type:alpha" maskUnits="userSpaceOnUse" x="561" y="565" width="587" height="296">
<path d="M733.837 565L1145.33 681.054C1147.99 681.804 1148.56 683.994 1146.61 685.947L983.958 848.598C974.195 858.362 955.508 863.238 942.219 859.49L574.033 755.651C560.745 751.903 557.886 740.95 567.65 731.187L733.837 565Z" fill="#2E2E2E"/>
</mask>
<g mask="url(#mask26_341_1038)">
<path d="M815.161 740.977L733.873 566.763C732.859 564.59 732.818 562.125 733.746 559.614C737.813 548.597 758.016 540.838 771.708 545.093L1147.07 661.751C1164.52 667.176 1155.61 685.795 1133.47 690.133L839.368 747.78C828.126 749.984 818.042 747.15 815.161 740.977Z" fill="#2E2E2E"/>
</g>
<mask id="mask27_341_1038" style="mask-type:alpha" maskUnits="userSpaceOnUse" x="561" y="565" width="587" height="296">
<path d="M733.836 565L1145.33 681.054C1147.99 681.804 1148.56 683.994 1146.61 685.947L983.957 848.598C974.194 858.362 955.507 863.238 942.218 859.49L574.032 755.651C560.744 751.903 557.886 740.95 567.649 731.187L733.836 565Z" fill="#2E2E2E"/>
</mask>
<g mask="url(#mask27_341_1038)">
<path d="M733.836 547L1145.33 663.054C1147.99 663.803 1148.56 665.994 1146.61 667.946L983.957 830.598C974.194 840.361 955.507 845.238 942.218 841.49L574.032 737.651C560.744 733.903 557.886 722.95 567.649 713.187L733.836 547Z" fill="#2E2E2E"/>
</g>
<path d="M733.837 525L1145.33 641.054C1147.99 641.804 1148.56 643.994 1146.61 645.947L983.958 808.599C974.195 818.362 955.508 823.238 942.219 819.49L574.033 715.651C560.745 711.903 557.886 700.951 567.65 691.188L733.837 525Z" fill="#2E2E2E"/>
<mask id="mask28_341_1038" style="mask-type:alpha" maskUnits="userSpaceOnUse" x="561" y="525" width="587" height="296">
<path d="M733.837 525L1145.33 641.054C1147.99 641.804 1148.56 643.994 1146.61 645.947L983.958 808.598C974.195 818.362 955.508 823.238 942.219 819.49L574.033 715.651C560.745 711.903 557.886 700.95 567.65 691.187L733.837 525Z" fill="#2E2E2E"/>
</mask>
<g mask="url(#mask28_341_1038)">
<path d="M815.161 700.977L733.873 526.763C732.859 524.59 732.818 522.125 733.746 519.614C737.813 508.597 758.016 500.838 771.708 505.093L1147.07 621.751C1164.52 627.176 1155.61 645.795 1133.47 650.133L839.368 707.78C828.126 709.984 818.042 707.15 815.161 700.977Z" fill="#2E2E2E"/>
</g>
<mask id="mask29_341_1038" style="mask-type:alpha" maskUnits="userSpaceOnUse" x="561" y="525" width="587" height="296">
<path d="M733.836 525L1145.33 641.054C1147.99 641.804 1148.56 643.994 1146.61 645.947L983.957 808.598C974.194 818.362 955.507 823.238 942.218 819.49L574.032 715.651C560.744 711.903 557.886 700.95 567.649 691.187L733.836 525Z" fill="#2E2E2E"/>
</mask>
<g mask="url(#mask29_341_1038)">
<path d="M733.836 507L1145.33 623.054C1147.99 623.803 1148.56 625.994 1146.61 627.946L983.957 790.598C974.194 800.361 955.507 805.238 942.218 801.49L574.032 697.651C560.744 693.903 557.886 682.95 567.649 673.187L733.836 507Z" fill="#2E2E2E"/>
</g>
<path d="M733.836 486L1145.33 602.054C1147.99 602.804 1148.56 604.994 1146.61 606.947L983.957 769.599C974.194 779.362 955.507 784.238 942.218 780.49L574.032 676.651C560.744 672.903 557.886 661.951 567.649 652.188L733.836 486Z" fill="#2E2E2E"/>
<mask id="mask30_341_1038" style="mask-type:alpha" maskUnits="userSpaceOnUse" x="561" y="486" width="587" height="296">
<path d="M733.836 486L1145.33 602.054C1147.99 602.804 1148.56 604.994 1146.61 606.947L983.957 769.598C974.194 779.362 955.507 784.238 942.218 780.49L574.032 676.651C560.744 672.903 557.886 661.95 567.649 652.187L733.836 486Z" fill="#2E2E2E"/>
</mask>
<g mask="url(#mask30_341_1038)">
<path d="M815.16 661.977L733.872 487.763C732.858 485.59 732.818 483.125 733.745 480.614C737.812 469.597 758.015 461.838 771.707 466.093L1147.07 582.751C1164.52 588.176 1155.61 606.795 1133.47 611.133L839.367 668.78C828.125 670.984 818.041 668.15 815.16 661.977Z" fill="#2E2E2E"/>
</g>
<mask id="mask31_341_1038" style="mask-type:alpha" maskUnits="userSpaceOnUse" x="561" y="486" width="587" height="296">
<path d="M733.836 486L1145.33 602.054C1147.99 602.804 1148.56 604.994 1146.61 606.947L983.957 769.598C974.194 779.362 955.507 784.238 942.218 780.49L574.032 676.651C560.744 672.903 557.886 661.95 567.649 652.187L733.836 486Z" fill="#2E2E2E"/>
</mask>
<g mask="url(#mask31_341_1038)">
<path d="M733.836 468L1145.33 584.054C1147.99 584.803 1148.56 586.994 1146.61 588.946L983.957 751.598C974.194 761.361 955.507 766.238 942.218 762.49L574.032 658.651C560.744 654.903 557.886 643.95 567.649 634.187L733.836 468Z" fill="#2E2E2E"/>
</g>
<path d="M733.836 448L1145.33 564.054C1147.99 564.804 1148.56 566.994 1146.61 568.947L983.957 731.599C974.194 741.362 955.507 746.238 942.218 742.49L574.032 638.651C560.744 634.903 557.886 623.951 567.649 614.188L733.836 448Z" fill="#2E2E2E"/>
<mask id="mask32_341_1038" style="mask-type:alpha" maskUnits="userSpaceOnUse" x="561" y="448" width="587" height="296">
<path d="M733.836 448L1145.33 564.054C1147.99 564.804 1148.56 566.994 1146.61 568.947L983.957 731.598C974.194 741.362 955.507 746.238 942.218 742.49L574.032 638.651C560.744 634.903 557.886 623.95 567.649 614.187L733.836 448Z" fill="#2E2E2E"/>
</mask>
<g mask="url(#mask32_341_1038)">
<path d="M815.16 623.977L733.872 449.763C732.858 447.59 732.818 445.125 733.745 442.614C737.812 431.597 758.015 423.838 771.707 428.093L1147.07 544.751C1164.52 550.176 1155.61 568.795 1133.47 573.133L839.367 630.78C828.125 632.984 818.041 630.15 815.16 623.977Z" fill="#2E2E2E"/>
</g>
<mask id="mask33_341_1038" style="mask-type:alpha" maskUnits="userSpaceOnUse" x="561" y="448" width="587" height="296">
<path d="M733.836 448L1145.33 564.054C1147.99 564.804 1148.56 566.994 1146.61 568.947L983.957 731.599C974.194 741.362 955.507 746.238 942.218 742.49L574.032 638.651C560.744 634.903 557.886 623.951 567.649 614.188L733.836 448Z" fill="#2E2E2E"/>
</mask>
<g mask="url(#mask33_341_1038)">
<path d="M733.836 430L1145.33 546.054C1147.99 546.804 1148.56 548.994 1146.61 550.947L983.957 713.598C974.194 723.362 955.507 728.238 942.218 724.49L574.032 620.651C560.744 616.903 557.886 605.95 567.649 596.187L733.836 430Z" fill="#2E2E2E"/>
</g>
<path d="M733.836 415.171L1145.33 531.225C1147.99 531.974 1148.56 534.165 1146.61 536.118L983.957 698.769C974.194 708.532 955.507 713.409 942.218 709.661L574.032 605.822C560.744 602.074 557.886 591.121 567.649 581.358L733.836 415.171Z" fill="#2E2E2E"/>
<path d="M1149.81 529.567C1149.42 526.464 1147.53 524.454 1146.38 523.721L1069.82 483.467C1067.52 482.258 1064.94 481.666 1062.34 481.754C1049.12 482.205 1028.4 482.974 1027.51 483.273C1026.98 483.45 1025.78 488.182 1024.55 493.758C1022.85 501.517 1027.75 509.134 1035.45 511.067L1138.69 536.964C1141.7 537.718 1144.88 536.958 1147.22 534.929C1148.82 533.55 1150.08 531.657 1149.81 529.567Z" fill="#2E2E2E"/>
<mask id="mask34_341_1038" style="mask-type:alpha" maskUnits="userSpaceOnUse" x="561" y="415" width="587" height="296">
<path d="M733.836 415.171L1145.33 531.225C1147.99 531.974 1148.56 534.165 1146.61 536.117L983.957 698.769C974.194 708.532 955.507 713.409 942.218 709.661L574.032 605.822C560.744 602.074 557.886 591.121 567.649 581.358L733.836 415.171Z" fill="#2E2E2E"/>
</mask>
<g mask="url(#mask34_341_1038)">
<path d="M813.926 588.502L733.877 416.945C732.86 414.765 732.814 412.304 733.745 409.784C737.825 398.731 758.067 391.025 771.805 395.294L1134.38 507.979C1156.2 514.76 1145.05 538.034 1117.39 543.456L844.184 597.007C830.132 599.761 817.527 596.218 813.926 588.502Z" fill="#2E2E2E"/>
</g>
<mask id="mask35_341_1038" style="mask-type:alpha" maskUnits="userSpaceOnUse" x="523" y="445" width="587" height="297">
<path d="M695.864 445.713L1107.36 561.767C1110.02 562.516 1110.59 564.707 1108.64 566.66L945.985 729.311C936.222 739.074 917.535 743.951 904.246 740.203L536.061 636.364C522.772 632.616 519.914 621.663 529.677 611.9L695.864 445.713Z" fill="#2E2E2E"/>
</mask>
<g mask="url(#mask35_341_1038)">
<path d="M728.273 366.703C728.273 352.896 739.085 344.6 752.422 348.173L1010.35 417.286C1023.69 420.86 1034.5 434.949 1034.5 448.757L1034.5 589.338C1034.5 603.145 1023.69 611.441 1010.35 607.868L752.422 538.755C739.085 535.181 728.273 521.092 728.273 507.284L728.273 366.703Z" fill="#2E2E2E"/>
<path d="M683.699 394.769C683.699 380.962 694.511 372.666 707.847 376.24L965.779 445.352C979.116 448.926 989.928 463.016 989.928 476.823L989.928 617.404C989.928 631.211 979.116 639.507 965.779 635.934L707.847 566.821C694.511 563.248 683.699 549.158 683.699 535.351L683.699 394.769Z" fill="#2E2E2E"/>
<path d="M641.599 429.439C641.599 415.632 652.41 407.336 665.747 410.909L923.679 480.022C937.016 483.596 947.827 497.685 947.827 511.493L947.827 652.074C947.827 665.881 937.016 674.177 923.679 670.604L665.747 601.491C652.41 597.917 641.599 583.828 641.599 570.021L641.599 429.439Z" fill="#2E2E2E"/>
</g>
<path d="M987.353 356.185L1144.63 521.21C1148.04 524.787 1143.89 530.68 1138.94 529.285L741.418 417.172C736.47 415.777 737.172 408.91 742.38 407.763L982.621 354.851C984.396 354.46 986.191 354.966 987.353 356.185Z" fill="#2E2E2E"/>
<path d="M728.273 332.033C728.273 318.226 739.085 309.93 752.422 313.504L1010.35 382.616C1023.69 386.19 1034.5 400.28 1034.5 414.087V554.668C1034.5 568.476 1023.69 576.772 1010.35 573.198L752.422 504.085C739.085 500.512 728.273 486.422 728.273 472.615V332.033Z" fill="#2E2E2E"/>
<rect width="250.879" height="130.155" transform="matrix(0.962455 0.27144 0.0165799 0.999863 755.545 344.759)" fill="#2E2E2E"/>
<rect width="10" height="4" rx="2" transform="matrix(0.962455 0.27144 0.0165799 0.999863 755.545 344.759)" fill="black"/>
<rect width="259" height="4" rx="2" transform="matrix(0.962455 0.27144 0.0165799 0.999863 755.844 362.757)" fill="black"/>
<rect width="259" height="4" rx="2" transform="matrix(0.962455 0.27144 0.0165799 0.999863 756.142 380.754)" fill="black"/>
<rect width="247" height="4" rx="2" transform="matrix(0.962455 0.27144 0.0165799 0.999863 756.44 398.752)" fill="black"/>
<rect width="259" height="4" rx="2" transform="matrix(0.962455 0.27144 0.0165799 0.999863 757.037 434.747)" fill="black"/>
<rect width="259" height="4" rx="2" transform="matrix(0.962455 0.27144 0.0165799 0.999863 757.336 452.744)" fill="black"/>
<rect width="1" height="4" rx="0.5" transform="matrix(0.962455 0.27144 0.0165799 0.999863 757.634 470.742)" fill="black"/>
<mask id="mask36_341_1038" style="mask-type:alpha" maskUnits="userSpaceOnUse" x="728" y="312" width="307" height="263">
<path d="M728.273 332.033C728.273 318.226 739.085 309.93 752.422 313.504L1010.35 382.616C1023.69 386.19 1034.5 400.28 1034.5 414.087V554.668C1034.5 568.476 1023.69 576.772 1010.35 573.198L752.422 504.085C739.085 500.512 728.273 486.422 728.273 472.615V332.033Z" fill="#2E2E2E"/>
</mask>
<g mask="url(#mask36_341_1038)">
<path d="M703.51 348.542C703.51 334.735 714.321 326.439 727.658 330.013L985.59 399.126C998.927 402.699 1009.74 416.789 1009.74 430.596V571.178C1009.74 584.985 998.927 593.281 985.59 589.707L727.658 520.595C714.321 517.021 703.51 502.931 703.51 489.124V348.542Z" fill="#2E2E2E"/>
</g>
<path d="M683.699 360.099C683.699 346.292 694.511 337.996 707.847 341.57L965.779 410.683C979.116 414.256 989.928 428.346 989.928 442.153V582.735C989.928 596.542 979.116 604.838 965.779 601.264L707.847 532.151C694.511 528.578 683.699 514.488 683.699 500.681V360.099Z" fill="#2E2E2E"/>
<rect width="250.879" height="130.155" transform="matrix(0.962455 0.27144 0.0165799 0.999863 710.97 372.825)" fill="#2E2E2E"/>
<rect width="10" height="4" rx="2" transform="matrix(0.962455 0.27144 0.0165799 0.999863 710.97 372.825)" fill="black"/>
<rect width="259" height="4" rx="2" transform="matrix(0.962455 0.27144 0.0165799 0.999863 711.269 390.823)" fill="black"/>
<rect width="259" height="4" rx="2" transform="matrix(0.962455 0.27144 0.0165799 0.999863 711.566 408.821)" fill="black"/>
<rect width="247" height="4" rx="2" transform="matrix(0.962455 0.27144 0.0165799 0.999863 711.865 426.818)" fill="black"/>
<rect width="259" height="4" rx="2" transform="matrix(0.962455 0.27144 0.0165799 0.999863 712.462 462.813)" fill="black"/>
<rect width="259" height="4" rx="2" transform="matrix(0.962455 0.27144 0.0165799 0.999863 712.761 480.811)" fill="black"/>
<rect width="1" height="4" rx="0.5" transform="matrix(0.962455 0.27144 0.0165799 0.999863 713.059 498.808)" fill="black"/>
<mask id="mask37_341_1038" style="mask-type:alpha" maskUnits="userSpaceOnUse" x="683" y="340" width="307" height="263">
<path d="M683.699 360.099C683.699 346.292 694.511 337.996 707.847 341.57L965.779 410.682C979.116 414.256 989.928 428.346 989.928 442.153V582.734C989.928 596.541 979.116 604.837 965.779 601.264L707.847 532.151C694.511 528.578 683.699 514.488 683.699 500.681V360.099Z" fill="#2E2E2E"/>
</mask>
<g mask="url(#mask37_341_1038)">
<path d="M659.761 379.91C659.761 366.103 670.572 357.807 683.909 361.381L941.841 430.494C955.178 434.067 965.989 448.157 965.989 461.964V602.546C965.989 616.353 955.178 624.649 941.841 621.075L683.909 551.962C670.572 548.389 659.761 534.299 659.761 520.492V379.91Z" fill="#2E2E2E"/>
</g>
<path d="M641.599 394.769C641.599 380.962 652.41 372.666 665.747 376.24L923.679 445.352C937.016 448.926 947.827 463.016 947.827 476.823V617.405C947.827 631.212 937.016 639.508 923.679 635.934L665.747 566.821C652.41 563.248 641.599 549.158 641.599 535.351V394.769Z" fill="#2E2E2E"/>
<rect width="250.879" height="130.155" transform="matrix(0.962455 0.27144 0.0165799 0.999863 668.869 407.495)" fill="#2E2E2E"/>
<rect width="55" height="4" rx="2" transform="matrix(0.962455 0.27144 0.0165799 0.999863 668.869 407.495)" fill="black"/>
<rect width="259" height="4" rx="2" transform="matrix(0.962455 0.27144 0.0165799 0.999863 669.168 425.493)" fill="black"/>
<rect width="259" height="4" rx="2" transform="matrix(0.962455 0.27144 0.0165799 0.999863 669.466 443.49)" fill="black"/>
<rect width="247" height="4" rx="2" transform="matrix(0.962455 0.27144 0.0165799 0.999863 669.765 461.488)" fill="black"/>
<rect width="259" height="4" rx="2" transform="matrix(0.962455 0.27144 0.0165799 0.999863 670.361 497.483)" fill="black"/>
<rect width="259" height="4" rx="2" transform="matrix(0.962455 0.27144 0.0165799 0.999863 670.66 515.48)" fill="black"/>
<rect width="35" height="4" rx="2" transform="matrix(0.962455 0.27144 0.0165799 0.999863 670.958 533.478)" fill="black"/>
</g>
</mask>
<g mask="url(#mask13_341_1038)">
<g filter="url(#filter8_f_341_1038)">
<path fill-rule="evenodd" clip-rule="evenodd" d="M1166 174H357V1018H763.183C846.355 1106.33 967.773 1162 1103 1162C1353.74 1162 1557 970.602 1557 734.5C1557 518.528 1386.92 339.961 1166 311.083V174ZM1166 311.083C1145.41 308.391 1124.38 307 1103 307C852.263 307 649 498.398 649 734.5C649 843.268 692.138 942.549 763.183 1018H1166V311.083Z" fill="black" fill-opacity="0.1"/>
</g>
</g>
<path d="M454.31 435.4C454.31 427.116 447.823 418.662 439.821 416.518L433.618 414.856V602.494C433.618 608.409 438.25 614.446 443.964 615.977C449.678 617.508 454.31 613.953 454.31 608.038V435.4Z" fill="#DA6B6B"/>
<path d="M450.478 459.432C450.478 473.239 439.666 481.535 426.329 477.961L361.273 460.529C333.508 453.09 311 423.757 311 395.012C311 387.826 316.627 383.508 323.568 385.368L426.329 412.903C439.666 416.476 450.478 430.566 450.478 444.373V459.432Z" fill="#DA6B6B"/>
<defs>
<filter id="filter0_i_341_1038" x="18.168" y="115.078" width="1095.98" height="900.999" filterUnits="userSpaceOnUse" color-interpolation-filters="sRGB">
<feFlood flood-opacity="0" result="BackgroundImageFix"/>
<feBlend mode="normal" in="SourceGraphic" in2="BackgroundImageFix" result="shape"/>
<feColorMatrix in="SourceAlpha" type="matrix" values="0 0 0 0 0 0 0 0 0 0 0 0 0 0 0 0 0 0 127 0" result="hardAlpha"/>
<feOffset dy="150"/>
<feGaussianBlur stdDeviation="50"/>
<feComposite in2="hardAlpha" operator="arithmetic" k2="-1" k3="1"/>
<feColorMatrix type="matrix" values="0 0 0 0 0.593559 0 0 0 0 0.776258 0 0 0 0 0.795833 0 0 0 0.5 0"/>
<feBlend mode="normal" in2="shape" result="effect1_innerShadow_341_1038"/>
</filter>
<filter id="filter1_f_341_1038" x="536.851" y="522" width="635.918" height="345.753" filterUnits="userSpaceOnUse" color-interpolation-filters="sRGB">
<feFlood flood-opacity="0" result="BackgroundImageFix"/>
<feBlend mode="normal" in="SourceGraphic" in2="BackgroundImageFix" result="shape"/>
<feGaussianBlur stdDeviation="12.5" result="effect1_foregroundBlur_341_1038"/>
</filter>
<filter id="filter2_f_341_1038" x="536.851" y="482" width="635.918" height="345.753" filterUnits="userSpaceOnUse" color-interpolation-filters="sRGB">
<feFlood flood-opacity="0" result="BackgroundImageFix"/>
<feBlend mode="normal" in="SourceGraphic" in2="BackgroundImageFix" result="shape"/>
<feGaussianBlur stdDeviation="12.5" result="effect1_foregroundBlur_341_1038"/>
</filter>
<filter id="filter3_f_341_1038" x="536.851" y="443" width="635.918" height="345.753" filterUnits="userSpaceOnUse" color-interpolation-filters="sRGB">
<feFlood flood-opacity="0" result="BackgroundImageFix"/>
<feBlend mode="normal" in="SourceGraphic" in2="BackgroundImageFix" result="shape"/>
<feGaussianBlur stdDeviation="12.5" result="effect1_foregroundBlur_341_1038"/>
</filter>
<filter id="filter4_f_341_1038" x="536.851" y="405" width="635.918" height="345.753" filterUnits="userSpaceOnUse" color-interpolation-filters="sRGB">
<feFlood flood-opacity="0" result="BackgroundImageFix"/>
<feBlend mode="normal" in="SourceGraphic" in2="BackgroundImageFix" result="shape"/>
<feGaussianBlur stdDeviation="12.5" result="effect1_foregroundBlur_341_1038"/>
</filter>
<filter id="filter5_f_341_1038" x="591.599" y="297.343" width="492.903" height="424.091" filterUnits="userSpaceOnUse" color-interpolation-filters="sRGB">
<feFlood flood-opacity="0" result="BackgroundImageFix"/>
<feBlend mode="normal" in="SourceGraphic" in2="BackgroundImageFix" result="shape"/>
<feGaussianBlur stdDeviation="25" result="effect1_foregroundBlur_341_1038"/>
</filter>
<filter id="filter6_f_341_1038" x="678.51" y="304.183" width="356.229" height="311.354" filterUnits="userSpaceOnUse" color-interpolation-filters="sRGB">
<feFlood flood-opacity="0" result="BackgroundImageFix"/>
<feBlend mode="normal" in="SourceGraphic" in2="BackgroundImageFix" result="shape"/>
<feGaussianBlur stdDeviation="12.5" result="effect1_foregroundBlur_341_1038"/>
</filter>
<filter id="filter7_f_341_1038" x="634.761" y="335.551" width="356.229" height="311.354" filterUnits="userSpaceOnUse" color-interpolation-filters="sRGB">
<feFlood flood-opacity="0" result="BackgroundImageFix"/>
<feBlend mode="normal" in="SourceGraphic" in2="BackgroundImageFix" result="shape"/>
<feGaussianBlur stdDeviation="12.5" result="effect1_foregroundBlur_341_1038"/>
</filter>
<filter id="filter8_f_341_1038" x="257" y="74" width="1400" height="1188" filterUnits="userSpaceOnUse" color-interpolation-filters="sRGB">
<feFlood flood-opacity="0" result="BackgroundImageFix"/>
<feBlend mode="normal" in="SourceGraphic" in2="BackgroundImageFix" result="shape"/>
<feGaussianBlur stdDeviation="50" result="effect1_foregroundBlur_341_1038"/>
</filter>
</defs>
</svg>
