<svg height="250" viewBox="0 0 1590 1457" fill="none" xmlns="http://www.w3.org/2000/svg">
<rect y="240" width="1590" height="730" rx="365" fill="#B7B6EE"/>
<mask id="mask0_363_214" style="mask-type:alpha" maskUnits="userSpaceOnUse" x="0" y="240" width="1590" height="730">
<rect y="240" width="1590" height="730" rx="365" fill="#B7B6EE"/>
</mask>
<g mask="url(#mask0_363_214)">
<g filter="url(#filter0_f_363_214)">
<rect width="1119.61" height="736.406" rx="15" transform="matrix(0.962455 0.27144 -0.707107 0.707107 552.132 333.822)" fill="#646AEB" fill-opacity="0.25"/>
</g>
</g>
<rect width="69.8143" height="108.898" rx="15" transform="matrix(0.962455 0.27144 -0.707107 0.707107 516.945 802.735)" fill="#DA6B6B"/>
<path d="M517 508.044C517 499.76 510.513 491.306 502.511 489.162L434 470.804V853.903C434 867.71 444.811 881.8 458.148 885.373L492.852 894.672C506.189 898.246 517 889.95 517 876.143V508.044Z" fill="#DA6B6B"/>
<path d="M579 449.853C579 441.568 572.513 433.114 564.511 430.97L496 412.613V795.711C496 809.519 506.811 823.608 520.148 827.182L554.852 836.481C568.189 840.054 579 831.758 579 817.951V449.853Z" fill="#DA6B6B"/>
<rect width="69.8143" height="108.898" rx="15" transform="matrix(0.962455 0.27144 -0.707107 0.707107 553.945 812.735)" fill="#B75959"/>
<path d="M616 459.853C616 451.568 609.513 443.114 601.511 440.97L533 422.613V805.711C533 819.519 543.811 833.608 557.148 837.182L591.852 846.481C605.189 850.054 616 841.758 616 827.951V459.853Z" fill="#B75959"/>
<path d="M554 518.044C554 509.76 547.513 501.306 539.511 499.162L471 480.804V863.903C471 877.71 481.811 891.8 495.148 895.373L529.852 904.672C543.189 908.246 554 899.95 554 886.143V518.044Z" fill="#DA6B6B"/>
<g filter="url(#filter1_i_363_214)">
<rect width="550.957" height="390.481" rx="50" transform="matrix(0.962455 0.27144 -0.707107 0.707107 494.253 408.943)" fill="#B2CED1"/>
<path d="M425 572.5C425 579.3 475.667 652.667 501 688.5H521L919.5 461L833 297L501 236.5C475.667 345.667 425 565.7 425 572.5Z" fill="#B2CED1"/>
<path d="M965.554 589.166C971.411 583.308 982.624 580.382 990.597 582.631L1246.21 654.721C1339.96 681.163 1360.13 758.439 1291.25 827.322V827.322C1222.36 896.205 1090.52 930.609 996.761 904.167L741.151 832.077C733.177 829.829 731.463 823.257 737.32 817.399L965.554 589.166Z" fill="#B2CED1"/>
<path d="M985.267 543.607C991.125 537.749 1002.34 534.823 1010.31 537.072L1247.71 604.024C1347.06 632.044 1368.43 713.93 1295.43 786.922V786.922C1222.44 859.914 1082.73 896.371 983.381 868.351L745.984 801.398C738.011 799.15 736.296 792.578 742.154 786.72L985.267 543.607Z" fill="#6D7D9A"/>
<path d="M446.841 113.718L952.918 256.447L841.397 367.968L335.32 225.239L446.841 113.718Z" fill="#B2CED1"/>
<path d="M236.174 410.141C235.526 331.071 280.326 221.645 336.239 165.732V165.732C429.428 72.5441 505.848 103.832 506.929 235.616L508.361 410.115C508.474 423.922 500.651 443.029 490.888 452.792L273.949 669.731C254.423 689.257 238.41 682.701 238.184 655.088L236.174 410.141Z" fill="#B2CED1"/>
</g>
<path d="M731.591 549.883C730.943 470.813 775.743 361.387 831.656 305.474V305.474C924.845 212.286 1001.27 243.573 1002.35 375.357L1003.23 482.982C1003.3 491.266 998.603 502.73 992.746 508.588L751.058 750.276C741.295 760.039 733.289 756.761 733.175 742.954L731.591 549.883Z" fill="#8AADC0"/>
<mask id="mask1_363_214" style="mask-type:alpha" maskUnits="userSpaceOnUse" x="244" y="408" width="742" height="412">
<rect width="488.471" height="403.975" rx="15" transform="matrix(0.962455 0.27144 -0.707107 0.707107 522.982 404.814)" fill="#9AE380"/>
</mask>
<g mask="url(#mask1_363_214)">
<path d="M731.591 549.883C730.943 470.812 775.743 361.387 831.656 305.474V305.474C924.845 212.286 1001.27 243.573 1002.35 375.357L1003.38 500.976C1003.44 509.26 998.751 520.724 992.893 526.582L751.206 768.27C741.443 778.033 733.436 774.755 733.323 760.948L731.591 549.883Z" fill="#4E6081"/>
</g>
<path d="M672.31 432.4C672.31 424.116 665.823 415.662 657.821 413.518L656.447 413.15C653.78 412.435 651.618 414.094 651.618 416.856V599.494C651.618 605.409 656.25 611.446 661.964 612.977V612.977C667.678 614.508 672.31 610.953 672.31 605.038V432.4Z" fill="#B75959"/>
<path d="M663.478 471.965C663.478 485.772 652.666 494.068 639.329 490.495L557.05 468.448C522.228 459.118 494 422.33 494 386.28V386.28C494 377.268 501.057 371.853 509.762 374.185L639.329 408.903C652.666 412.476 663.478 426.566 663.478 440.373V471.965Z" fill="#DA6B6B"/>
<path d="M954.416 360.289L1398.13 479.18C1400.79 479.895 1401.67 482.307 1400.08 484.567L1257 688.533C1249.07 699.837 1231.83 706.103 1218.49 702.529L818.252 595.284C804.915 591.711 800.531 579.651 808.461 568.348L954.416 360.289Z" fill="#F48F6E"/>
<mask id="mask2_363_214" style="mask-type:alpha" maskUnits="userSpaceOnUse" x="804" y="360" width="597" height="344">
<path d="M954.416 360.288L1398.13 479.18C1400.79 479.895 1401.67 482.307 1400.08 484.567L1257 688.533C1249.07 699.836 1231.83 706.102 1218.49 702.529L818.252 595.284C804.915 591.711 800.531 579.651 808.461 568.347L954.416 360.288Z" fill="#FCD925"/>
</mask>
<g mask="url(#mask2_363_214)">
<path d="M1065.45 564.559L954.742 362.406C953.343 359.85 952.901 356.913 953.458 353.858C955.898 340.456 975.557 330.273 990.421 334.711L1387.44 453.245C1409.43 459.811 1402.19 486.211 1376.4 493.489L1095.82 572.664C1082.72 576.361 1070.07 572.984 1065.45 564.559Z" fill="#4E6081"/>
</g>
<path d="M952.238 443.332L1395.95 562.223C1398.61 562.938 1400.78 565.756 1400.78 568.517V817.666C1400.78 831.473 1389.97 839.769 1376.63 836.195L976.386 728.951C963.05 725.377 952.238 711.287 952.238 697.48V443.332Z" fill="#E06740"/>
<mask id="mask3_363_214" style="mask-type:alpha" maskUnits="userSpaceOnUse" x="952" y="443" width="449" height="395">
<path d="M952.238 443.331L1395.95 562.223C1398.61 562.937 1400.78 565.755 1400.78 568.517V817.665C1400.78 831.473 1389.97 839.769 1376.63 836.195L976.386 728.95C963.05 725.377 952.238 711.287 952.238 697.48V443.331Z" fill="#FCD925"/>
</mask>
<g mask="url(#mask3_363_214)">
<path d="M1166.33 680.145L953.764 445.827C951.077 442.865 948.971 439.402 947.635 435.749C941.775 419.726 952.31 406.662 967.443 411.185L1371.64 531.986C1394.03 538.677 1403.52 570.362 1386.11 580.285L1196.68 688.244C1187.83 693.284 1175.19 689.91 1166.33 680.145Z" fill="#4E6081"/>
</g>
<path d="M954.563 398.276L1398.27 517.168C1400.94 517.882 1402.52 520.622 1401.79 523.288L1336.64 763.766C1333.03 777.093 1319.29 784.999 1305.95 781.425L905.71 674.181C892.373 670.607 884.489 656.907 888.1 643.58L954.563 398.276Z" fill="#EC744C"/>
<mask id="mask4_363_214" style="mask-type:alpha" maskUnits="userSpaceOnUse" x="887" y="398" width="515" height="385">
<path d="M954.563 398.276L1398.27 517.167C1400.94 517.882 1402.52 520.622 1401.79 523.288L1336.64 763.766C1333.03 777.092 1319.29 784.999 1305.95 781.425L905.71 674.181C892.373 670.607 884.489 656.907 888.1 643.58L954.563 398.276Z" fill="#FCD925"/>
</mask>
<g mask="url(#mask4_363_214)">
<path d="M1121.73 628.845L955.543 400.699C953.443 397.815 952.094 394.453 951.62 390.915C949.54 375.395 964.23 362.884 979.241 367.391L1380.17 487.756C1402.38 494.424 1404.25 525.095 1383.02 534.51L1152.08 636.945C1141.3 641.727 1128.65 638.353 1121.73 628.845Z" fill="#4E6081"/>
</g>
<path d="M954.416 360.289L1398.13 479.18C1400.79 479.895 1401.67 482.307 1400.08 484.567L1257 688.533C1249.07 699.837 1231.83 706.103 1218.49 702.529L818.252 595.284C804.915 591.711 800.531 579.651 808.461 568.348L954.416 360.289Z" fill="#F37F59"/>
<mask id="mask5_363_214" style="mask-type:alpha" maskUnits="userSpaceOnUse" x="804" y="360" width="597" height="344">
<path d="M954.416 360.288L1398.13 479.18C1400.79 479.895 1401.67 482.307 1400.08 484.567L1257 688.533C1249.07 699.836 1231.83 706.102 1218.49 702.529L818.252 595.284C804.915 591.711 800.531 579.651 808.461 568.347L954.416 360.288Z" fill="#FCD925"/>
</mask>
<g mask="url(#mask5_363_214)">
<path d="M1065.45 564.559L954.742 362.406C953.343 359.85 952.901 356.913 953.458 353.858C955.898 340.456 975.557 330.273 990.421 334.711L1387.44 453.245C1409.43 459.811 1402.19 486.211 1376.4 493.489L1095.82 572.664C1082.72 576.361 1070.07 572.984 1065.45 564.559Z" fill="#4E6081"/>
</g>
<path d="M954.388 317L1398.1 435.892C1400.76 436.607 1401.34 438.769 1399.39 440.721L1223.22 616.896C1213.45 626.659 1194.73 631.677 1181.39 628.103L781.148 520.859C767.811 517.285 764.914 506.474 774.677 496.711L954.388 317Z" fill="#F48F6E"/>
<mask id="mask6_363_214" style="mask-type:alpha" maskUnits="userSpaceOnUse" x="768" y="317" width="633" height="313">
<path d="M954.388 317L1398.1 435.892C1400.76 436.606 1401.34 438.769 1399.39 440.721L1223.22 616.896C1213.45 626.659 1194.73 631.677 1181.39 628.103L781.148 520.858C767.811 517.285 764.914 506.473 774.677 496.71L954.388 317Z" fill="#FCD925"/>
</mask>
<g mask="url(#mask6_363_214)">
<path d="M1041.59 501.255L954.437 318.885C953.335 316.579 953.279 313.965 954.273 311.278C958.632 299.488 980.401 291.077 995.203 295.463L1390.56 412.604C1412.46 419.092 1401.35 442.242 1373.62 447.892L1071.96 509.363C1057.87 512.233 1045.22 508.855 1041.59 501.255Z" fill="#4E6081"/>
</g>
<mask id="mask7_363_214" style="mask-type:alpha" maskUnits="userSpaceOnUse" x="236" y="112" width="1164" height="802">
<rect width="69.8143" height="108.898" rx="15" transform="matrix(0.962455 0.27144 -0.707107 0.707107 516.945 802.735)" fill="#DA6B6B"/>
<path d="M517 508.044C517 499.76 510.513 491.306 502.511 489.162L434 470.804V853.903C434 867.71 444.811 881.8 458.148 885.373L492.852 894.672C506.189 898.246 517 889.95 517 876.143V508.044Z" fill="#DA6B6B"/>
<path d="M579 449.853C579 441.568 572.513 433.114 564.511 430.97L496 412.613V795.711C496 809.519 506.811 823.608 520.148 827.182L554.852 836.481C568.189 840.054 579 831.758 579 817.951V449.853Z" fill="#DA6B6B"/>
<rect width="69.8143" height="108.898" rx="15" transform="matrix(0.962455 0.27144 -0.707107 0.707107 553.945 812.735)" fill="#B75959"/>
<path d="M616 459.853C616 451.568 609.513 443.114 601.511 440.97L533 422.613V805.711C533 819.519 543.811 833.608 557.148 837.182L591.852 846.481C605.189 850.054 616 841.758 616 827.951V459.853Z" fill="#B75959"/>
<path d="M554 518.044C554 509.76 547.513 501.306 539.511 499.162L471 480.804V863.903C471 877.71 481.811 891.8 495.148 895.373L529.852 904.672C543.189 908.246 554 899.95 554 886.143V518.044Z" fill="#DA6B6B"/>
<rect width="550.957" height="390.481" rx="50" transform="matrix(0.962455 0.27144 -0.707107 0.707107 494.253 408.943)" fill="#B2CED1"/>
<path d="M425 572.5C425 579.3 475.667 652.667 501 688.5H521L919.5 461L833 297L501 236.5C475.667 345.667 425 565.7 425 572.5Z" fill="#B2CED1"/>
<path d="M965.554 589.166C971.411 583.308 982.624 580.382 990.597 582.631L1246.21 654.721C1339.96 681.163 1360.13 758.439 1291.25 827.322V827.322C1222.36 896.205 1090.52 930.609 996.761 904.167L741.151 832.077C733.177 829.829 731.463 823.257 737.32 817.399L965.554 589.166Z" fill="#B2CED1"/>
<path d="M985.267 543.607C991.125 537.749 1002.34 534.823 1010.31 537.072L1247.71 604.024C1347.06 632.044 1368.43 713.93 1295.43 786.922V786.922C1222.44 859.914 1082.73 896.371 983.381 868.351L745.984 801.398C738.011 799.15 736.296 792.578 742.154 786.72L985.267 543.607Z" fill="#6D7D9A"/>
<path d="M446.841 113.718L952.918 256.447L841.397 367.968L335.32 225.239L446.841 113.718Z" fill="#B2CED1"/>
<path d="M236.174 410.141C235.526 331.071 280.326 221.645 336.239 165.732V165.732C429.428 72.5441 505.848 103.832 506.929 235.616L508.361 410.115C508.474 423.922 500.651 443.029 490.888 452.792L273.949 669.731C254.423 689.257 238.41 682.701 238.184 655.088L236.174 410.141Z" fill="#B2CED1"/>
<path d="M731.591 549.883C730.943 470.813 775.743 361.387 831.656 305.474V305.474C924.845 212.286 1001.27 243.573 1002.35 375.357L1003.23 482.982C1003.3 491.266 998.603 502.73 992.746 508.588L751.058 750.276C741.295 760.039 733.289 756.761 733.175 742.954L731.591 549.883Z" fill="#8AADC0"/>
<mask id="mask8_363_214" style="mask-type:alpha" maskUnits="userSpaceOnUse" x="244" y="408" width="742" height="412">
<rect width="488.471" height="403.975" rx="15" transform="matrix(0.962455 0.27144 -0.707107 0.707107 522.982 404.814)" fill="#9AE380"/>
</mask>
<g mask="url(#mask8_363_214)">
<path d="M731.591 549.883C730.943 470.812 775.743 361.387 831.656 305.474V305.474C924.845 212.286 1001.27 243.573 1002.35 375.357L1003.38 500.976C1003.44 509.26 998.751 520.724 992.893 526.582L751.206 768.27C741.443 778.033 733.436 774.755 733.323 760.948L731.591 549.883Z" fill="#4E6081"/>
</g>
<path d="M672.31 432.4C672.31 424.116 665.823 415.662 657.821 413.518L656.447 413.15C653.78 412.435 651.618 414.094 651.618 416.856V599.494C651.618 605.409 656.25 611.446 661.964 612.977V612.977C667.678 614.508 672.31 610.953 672.31 605.038V432.4Z" fill="#B75959"/>
<path d="M663.478 471.965C663.478 485.772 652.666 494.068 639.329 490.495L557.05 468.448C522.228 459.118 494 422.33 494 386.28V386.28C494 377.268 501.057 371.853 509.762 374.185L639.329 408.903C652.666 412.476 663.478 426.566 663.478 440.373V471.965Z" fill="#DA6B6B"/>
<path d="M952.416 359.289L1396.13 478.18C1398.79 478.895 1399.67 481.307 1398.08 483.567L1255 687.533C1247.07 698.837 1229.83 705.103 1216.49 701.529L816.252 594.284C802.915 590.711 798.531 578.651 806.461 567.348L952.416 359.289Z" fill="#F48F6E"/>
<mask id="mask9_363_214" style="mask-type:alpha" maskUnits="userSpaceOnUse" x="802" y="359" width="597" height="344">
<path d="M952.416 359.288L1396.13 478.18C1398.79 478.895 1399.67 481.307 1398.08 483.567L1255 687.533C1247.07 698.836 1229.83 705.102 1216.49 701.529L816.252 594.284C802.915 590.711 798.531 578.651 806.461 567.347L952.416 359.288Z" fill="#FCD925"/>
</mask>
<g mask="url(#mask9_363_214)">
<path d="M1063.45 563.559L952.742 361.406C951.343 358.85 950.901 355.913 951.458 352.858C953.898 339.456 973.557 329.273 988.421 333.711L1385.44 452.245C1407.43 458.811 1400.19 485.211 1374.4 492.489L1093.82 571.664C1080.72 575.361 1068.07 571.984 1063.45 563.559Z" fill="#4E6081"/>
</g>
<path d="M950.238 442.332L1393.95 561.223C1396.61 561.938 1398.78 564.756 1398.78 567.517V816.666C1398.78 830.473 1387.97 838.769 1374.63 835.195L974.386 727.951C961.05 724.377 950.238 710.287 950.238 696.48V442.332Z" fill="#E06740"/>
<mask id="mask10_363_214" style="mask-type:alpha" maskUnits="userSpaceOnUse" x="950" y="442" width="449" height="395">
<path d="M950.238 442.331L1393.95 561.223C1396.61 561.937 1398.78 564.755 1398.78 567.517V816.665C1398.78 830.473 1387.97 838.769 1374.63 835.195L974.386 727.95C961.05 724.377 950.238 710.287 950.238 696.48V442.331Z" fill="#FCD925"/>
</mask>
<g mask="url(#mask10_363_214)">
<path d="M1164.33 679.145L951.764 444.827C949.077 441.865 946.971 438.402 945.635 434.749C939.775 418.726 950.31 405.662 965.443 410.185L1369.64 530.986C1392.03 537.677 1401.52 569.362 1384.11 579.285L1194.68 687.244C1185.83 692.284 1173.19 688.91 1164.33 679.145Z" fill="#4E6081"/>
</g>
<path d="M952.563 397.276L1396.27 516.168C1398.94 516.882 1400.52 519.622 1399.79 522.288L1334.64 762.766C1331.03 776.093 1317.29 783.999 1303.95 780.425L903.71 673.181C890.373 669.607 882.489 655.907 886.1 642.58L952.563 397.276Z" fill="#EC744C"/>
<mask id="mask11_363_214" style="mask-type:alpha" maskUnits="userSpaceOnUse" x="885" y="397" width="515" height="385">
<path d="M952.563 397.276L1396.27 516.167C1398.94 516.882 1400.52 519.622 1399.79 522.288L1334.64 762.766C1331.03 776.092 1317.29 783.999 1303.95 780.425L903.71 673.181C890.373 669.607 882.489 655.907 886.1 642.58L952.563 397.276Z" fill="#FCD925"/>
</mask>
<g mask="url(#mask11_363_214)">
<path d="M1119.73 627.845L953.543 399.699C951.443 396.815 950.094 393.453 949.62 389.915C947.54 374.395 962.23 361.884 977.241 366.391L1378.17 486.756C1400.38 493.424 1402.25 524.095 1381.02 533.51L1150.08 635.945C1139.3 640.727 1126.65 637.353 1119.73 627.845Z" fill="#4E6081"/>
</g>
<path d="M952.416 359.289L1396.13 478.18C1398.79 478.895 1399.67 481.307 1398.08 483.567L1255 687.533C1247.07 698.837 1229.83 705.103 1216.49 701.529L816.252 594.284C802.915 590.711 798.531 578.651 806.461 567.348L952.416 359.289Z" fill="#F37F59"/>
<mask id="mask12_363_214" style="mask-type:alpha" maskUnits="userSpaceOnUse" x="802" y="359" width="597" height="344">
<path d="M952.416 359.288L1396.13 478.18C1398.79 478.895 1399.67 481.307 1398.08 483.567L1255 687.533C1247.07 698.836 1229.83 705.102 1216.49 701.529L816.252 594.284C802.915 590.711 798.531 578.651 806.461 567.347L952.416 359.288Z" fill="#FCD925"/>
</mask>
<g mask="url(#mask12_363_214)">
<path d="M1063.45 563.559L952.742 361.406C951.343 358.85 950.901 355.913 951.458 352.858C953.898 339.456 973.557 329.273 988.421 333.711L1385.44 452.245C1407.43 458.811 1400.19 485.211 1374.4 492.489L1093.82 571.664C1080.72 575.361 1068.07 571.984 1063.45 563.559Z" fill="#4E6081"/>
</g>
<path d="M952.388 316L1396.1 434.892C1398.76 435.607 1399.34 437.769 1397.39 439.721L1221.22 615.896C1211.45 625.659 1192.73 630.677 1179.39 627.103L779.148 519.859C765.811 516.285 762.914 505.474 772.677 495.711L952.388 316Z" fill="#F48F6E"/>
<mask id="mask13_363_214" style="mask-type:alpha" maskUnits="userSpaceOnUse" x="766" y="316" width="633" height="313">
<path d="M952.388 316L1396.1 434.892C1398.76 435.606 1399.34 437.769 1397.39 439.721L1221.22 615.896C1211.45 625.659 1192.73 630.677 1179.39 627.103L779.148 519.858C765.811 516.285 762.914 505.473 772.677 495.71L952.388 316Z" fill="#FCD925"/>
</mask>
<g mask="url(#mask13_363_214)">
<path d="M1039.59 500.255L952.437 317.885C951.335 315.579 951.279 312.965 952.273 310.278C956.632 298.488 978.401 290.077 993.203 294.463L1388.56 411.604C1410.46 418.092 1399.35 441.242 1371.62 446.892L1069.96 508.363C1055.87 511.233 1043.22 507.855 1039.59 500.255Z" fill="#4E6081"/>
</g>
</mask>
<g mask="url(#mask7_363_214)">
<g filter="url(#filter2_f_363_214)">
<path d="M672 501C672 487.193 682.811 478.897 696.148 482.47L1348.85 657.362C1362.19 660.935 1373 675.025 1373 688.832V1175.39C1373 1189.2 1362.19 1197.49 1348.85 1193.92L696.148 1019.03C682.811 1015.45 672 1001.36 672 987.557V501Z" fill="black" fill-opacity="0.15"/>
</g>
</g>
<path d="M660 536C660 522.193 670.811 513.897 684.148 517.47L930.852 583.575C944.188 587.148 955 601.238 955 615.045V1015.52C955 1029.33 944.188 1037.62 930.852 1034.05L684.148 967.945C670.812 964.371 660 950.282 660 936.474V536Z" fill="#9AE380"/>
<path d="M1003 629.052C1003 615.245 1013.81 606.949 1027.15 610.523L1284.85 679.574C1298.19 683.148 1309 697.238 1309 711.045V1392.17C1309 1405.97 1298.19 1414.27 1284.85 1410.7L1027.15 1341.65C1013.81 1338.07 1003 1323.98 1003 1310.18V629.052Z" fill="#9AE380"/>
<mask id="mask14_363_214" style="mask-type:alpha" maskUnits="userSpaceOnUse" x="660" y="516" width="295" height="519">
<path d="M660 536C660 522.193 670.811 513.897 684.148 517.47L930.852 583.575C944.188 587.148 955 601.238 955 615.045V1015.52C955 1029.33 944.188 1037.62 930.852 1034.05L684.148 967.945C670.812 964.371 660 950.282 660 936.474V536Z" fill="#9AE380"/>
</mask>
<g mask="url(#mask14_363_214)">
<g filter="url(#filter3_f_363_214)">
<path d="M584 568C584 554.193 594.811 545.897 608.148 549.47L1280.85 729.721C1294.19 733.294 1305 747.384 1305 761.191V1247.75C1305 1261.56 1294.19 1269.85 1280.85 1266.28L608.148 1086.03C594.812 1082.45 584 1068.36 584 1054.56V568Z" fill="black" fill-opacity="0.15"/>
</g>
</g>
<mask id="mask15_363_214" style="mask-type:alpha" maskUnits="userSpaceOnUse" x="1003" y="608" width="306" height="804">
<path d="M1003 627.907C1003 614.1 1013.81 605.804 1027.15 609.377L1284.85 678.429C1298.19 682.002 1309 696.092 1309 709.899V1391.9C1309 1405.71 1298.19 1414.01 1284.85 1410.43L1027.15 1341.38C1013.81 1337.81 1003 1323.72 1003 1309.91V627.907Z" fill="#9AE380"/>
</mask>
<g mask="url(#mask15_363_214)">
<g filter="url(#filter4_f_363_214)">
<path d="M584 541.434C584 527.627 594.811 519.331 608.148 522.905L1284.85 704.227C1298.19 707.801 1309 721.89 1309 735.697V1347.51C1309 1361.31 1298.19 1369.61 1284.85 1366.03L608.148 1184.71C594.811 1181.14 584 1167.05 584 1153.24V541.434Z" fill="black" fill-opacity="0.15"/>
</g>
</g>
<rect width="205.397" height="6" rx="3" transform="matrix(0.962455 0.27144 0.0165799 0.999863 696 564.748)" fill="#183153"/>
<rect width="609" height="6" rx="3" transform="matrix(0.962455 0.27144 0.0165799 0.999863 696.63 602.743)" fill="#183153"/>
<rect width="609" height="6" rx="3" transform="matrix(0.962455 0.27144 0.0165799 0.999863 697.26 640.738)" fill="#183153"/>
<rect width="609" height="6" rx="3" transform="matrix(0.962455 0.27144 0.0165799 0.999863 697.89 678.732)" fill="#183153"/>
<rect width="495.581" height="6" rx="3" transform="matrix(0.962455 0.27144 0.0165799 0.999863 698.521 716.727)" fill="#183153"/>
<rect width="609" height="6" rx="3" transform="matrix(0.962455 0.27144 0.0165799 0.999863 699.78 792.717)" fill="#183153"/>
<rect width="609" height="6" rx="3" transform="matrix(0.962455 0.27144 0.0165799 0.999863 700.41 830.711)" fill="#183153"/>
<rect width="609" height="6" rx="3" transform="matrix(0.962455 0.27144 0.0165799 0.999863 701.04 868.706)" fill="#183153"/>
<rect width="253.002" height="6" rx="3" transform="matrix(0.962455 0.27144 0.0165799 0.999863 701.67 906.701)" fill="#183153"/>
<path d="M584 583.252C584 569.445 594.811 561.149 608.148 564.722L1248.85 736.398C1262.19 739.972 1273 754.062 1273 767.869V1431.89C1273 1445.7 1262.19 1453.99 1248.85 1450.42L608.148 1278.74C594.812 1275.17 584 1261.08 584 1247.27V583.252Z" fill="#E5E5E5"/>
<rect width="280.536" height="6" rx="3" transform="matrix(0.962455 0.27144 0.0165799 0.999863 624 612)" fill="#183153"/>
<rect width="609" height="6" rx="3" transform="matrix(0.962455 0.27144 0.0165799 0.999863 624.63 649.995)" fill="#183153"/>
<rect width="609" height="6" rx="3" transform="matrix(0.962455 0.27144 0.0165799 0.999863 625.26 687.99)" fill="#183153"/>
<rect width="495.581" height="6" rx="3" transform="matrix(0.962455 0.27144 0.0165799 0.999863 625.89 725.984)" fill="#183153"/>
<rect width="609" height="6" rx="3" transform="matrix(0.962455 0.27144 0.0165799 0.999863 627.15 801.974)" fill="#183153"/>
<rect width="609" height="6" rx="3" transform="matrix(0.962455 0.27144 0.0165799 0.999863 627.78 839.969)" fill="#183153"/>
<rect width="609" height="6" rx="3" transform="matrix(0.962455 0.27144 0.0165799 0.999863 628.41 877.963)" fill="#183153"/>
<rect width="609" height="6" rx="3" transform="matrix(0.962455 0.27144 0.0165799 0.999863 629.04 915.958)" fill="#183153"/>
<rect width="609" height="6" rx="3" transform="matrix(0.962455 0.27144 0.0165799 0.999863 629.67 953.953)" fill="#183153"/>
<rect width="495.581" height="6" rx="3" transform="matrix(0.962455 0.27144 0.0165799 0.999863 630.301 991.948)" fill="#183153"/>
<rect width="609" height="6" rx="3" transform="matrix(0.962455 0.27144 0.0165799 0.999863 631.561 1067.94)" fill="#183153"/>
<rect width="609" height="6" rx="3" transform="matrix(0.962455 0.27144 0.0165799 0.999863 632.19 1105.93)" fill="#183153"/>
<rect width="609" height="6" rx="3" transform="matrix(0.962455 0.27144 0.0165799 0.999863 632.82 1143.93)" fill="#183153"/>
<rect width="253.002" height="6" rx="3" transform="matrix(0.962455 0.27144 0.0165799 0.999863 633.45 1181.92)" fill="#183153"/>
<defs>
<filter id="filter0_f_363_214" x="-111.458" y="187.136" width="1884.03" height="1118" filterUnits="userSpaceOnUse" color-interpolation-filters="sRGB">
<feFlood flood-opacity="0" result="BackgroundImageFix"/>
<feBlend mode="normal" in="SourceGraphic" in2="BackgroundImageFix" result="shape"/>
<feGaussianBlur stdDeviation="75" result="effect1_foregroundBlur_363_214"/>
</filter>
<filter id="filter1_i_363_214" x="236.168" y="112.078" width="1102.61" height="900.999" filterUnits="userSpaceOnUse" color-interpolation-filters="sRGB">
<feFlood flood-opacity="0" result="BackgroundImageFix"/>
<feBlend mode="normal" in="SourceGraphic" in2="BackgroundImageFix" result="shape"/>
<feColorMatrix in="SourceAlpha" type="matrix" values="0 0 0 0 0 0 0 0 0 0 0 0 0 0 0 0 0 0 127 0" result="hardAlpha"/>
<feOffset dy="150"/>
<feGaussianBlur stdDeviation="50"/>
<feComposite in2="hardAlpha" operator="arithmetic" k2="-1" k3="1"/>
<feColorMatrix type="matrix" values="0 0 0 0 0.593559 0 0 0 0 0.776258 0 0 0 0 0.795833 0 0 0 0.5 0"/>
<feBlend mode="normal" in2="shape" result="effect1_innerShadow_363_214"/>
</filter>
<filter id="filter2_f_363_214" x="597" y="406.64" width="851" height="863.109" filterUnits="userSpaceOnUse" color-interpolation-filters="sRGB">
<feFlood flood-opacity="0" result="BackgroundImageFix"/>
<feBlend mode="normal" in="SourceGraphic" in2="BackgroundImageFix" result="shape"/>
<feGaussianBlur stdDeviation="37.5" result="effect1_foregroundBlur_363_214"/>
</filter>
<filter id="filter3_f_363_214" x="509" y="473.64" width="871" height="868.468" filterUnits="userSpaceOnUse" color-interpolation-filters="sRGB">
<feFlood flood-opacity="0" result="BackgroundImageFix"/>
<feBlend mode="normal" in="SourceGraphic" in2="BackgroundImageFix" result="shape"/>
<feGaussianBlur stdDeviation="37.5" result="effect1_foregroundBlur_363_214"/>
</filter>
<filter id="filter4_f_363_214" x="509" y="447.075" width="875" height="994.79" filterUnits="userSpaceOnUse" color-interpolation-filters="sRGB">
<feFlood flood-opacity="0" result="BackgroundImageFix"/>
<feBlend mode="normal" in="SourceGraphic" in2="BackgroundImageFix" result="shape"/>
<feGaussianBlur stdDeviation="37.5" result="effect1_foregroundBlur_363_214"/>
</filter>
</defs>
</svg>
