<svg height="35" viewBox="0 0 598 305" fill="none" xmlns="http://www.w3.org/2000/svg">
<path fill-rule="evenodd" clip-rule="evenodd" d="M557 153C557 213.751 507.751 263 447 263C386.249 263 337 213.751 337 153C337 92.2487 386.249 43 447 43C507.751 43 557 92.2487 557 153ZM477.338 153.664C477.338 169.5 464.5 182.338 448.664 182.338C432.828 182.338 419.99 169.5 419.99 153.664C419.99 137.828 432.828 124.99 448.664 124.99C464.5 124.99 477.338 137.828 477.338 153.664ZM393.861 98.8608C393.732 98.9894 393.604 99.1183 393.477 99.2476C390.568 102.197 390.601 106.945 393.55 109.854C396.499 112.763 401.248 112.73 404.156 109.781C404.259 109.676 404.363 109.572 404.467 109.467C404.572 109.363 404.676 109.259 404.781 109.156C407.73 106.248 407.763 101.499 404.854 98.5498C401.945 95.6008 397.197 95.568 394.248 98.4766C394.118 98.6041 393.989 98.7322 393.861 98.8608ZM386.162 153.225C386.191 149.083 382.857 145.702 378.714 145.673C374.572 145.645 371.191 148.979 371.162 153.121C371.16 153.483 371.16 153.845 371.162 154.207C371.191 158.349 374.572 161.684 378.714 161.655C382.857 161.626 386.191 158.245 386.162 154.103C386.16 153.81 386.16 153.518 386.162 153.225ZM448.121 76.1624C443.979 76.1913 440.645 79.5725 440.673 83.7145C440.702 87.8565 444.083 91.1909 448.225 91.162C448.518 91.16 448.81 91.16 449.103 91.162C453.245 91.1909 456.626 87.8565 456.655 83.7145C456.684 79.5725 453.349 76.1913 449.207 76.1624C448.845 76.1599 448.483 76.1599 448.121 76.1624ZM404.156 197.547C401.248 194.598 396.499 194.566 393.55 197.474C390.601 200.383 390.568 205.132 393.477 208.081C393.604 208.21 393.732 208.339 393.861 208.467C393.989 208.596 394.118 208.724 394.248 208.852C397.197 211.76 401.945 211.727 404.854 208.778C407.763 205.829 407.73 201.081 404.781 198.172C404.676 198.069 404.572 197.965 404.467 197.861C404.363 197.757 404.259 197.652 404.156 197.547ZM503.081 98.4766C500.132 95.568 495.383 95.6008 492.474 98.5498C489.566 101.499 489.598 106.248 492.547 109.156C492.652 109.259 492.757 109.363 492.861 109.467C492.965 109.572 493.069 109.676 493.172 109.781C496.081 112.73 500.829 112.763 503.778 109.854C506.727 106.945 506.76 102.197 503.852 99.2476C503.77 99.1647 503.688 99.0819 503.606 98.9993C503.56 98.9531 503.514 98.9069 503.467 98.8608C503.339 98.7322 503.21 98.6041 503.081 98.4766ZM448.225 216.166C444.083 216.137 440.702 219.472 440.673 223.614C440.645 227.756 443.979 231.137 448.121 231.166C448.483 231.168 448.845 231.168 449.207 231.166C453.349 231.137 456.684 227.756 456.655 223.614C456.626 219.472 453.245 216.137 449.103 216.166C448.81 216.168 448.518 216.168 448.225 216.166ZM526.166 153.121C526.137 148.979 522.756 145.645 518.614 145.673C514.472 145.702 511.137 149.083 511.166 153.225C511.168 153.518 511.168 153.81 511.166 154.103C511.137 158.245 514.472 161.626 518.614 161.655C522.756 161.684 526.137 158.349 526.166 154.207C526.168 153.845 526.168 153.483 526.166 153.121ZM492.547 198.172C489.598 201.081 489.566 205.829 492.474 208.778C495.383 211.727 500.132 211.76 503.081 208.852C503.21 208.724 503.339 208.596 503.467 208.467C503.596 208.339 503.724 208.21 503.852 208.081C506.76 205.132 506.727 200.383 503.778 197.474C500.829 194.566 496.081 194.598 493.172 197.547C493.069 197.652 492.965 197.757 492.861 197.861C492.757 197.965 492.652 198.069 492.547 198.172Z" />
<path fill-rule="evenodd" clip-rule="evenodd" d="M152.5 0H445.5C529.723 0 598 68.2766 598 152.5C598 236.723 529.723 305 445.5 305H152.5C68.2766 305 0 236.723 0 152.5C0 68.2766 68.2766 0 152.5 0ZM152.5 15C76.5609 15 15 76.5609 15 152.5C15 228.439 76.5609 290 152.5 290H445.5C521.439 290 583 228.439 583 152.5C583 76.5609 521.439 15 445.5 15H152.5Z" />
</svg>
