<svg width="203" height="204" viewBox="0 0 203 204" fill="none" xmlns="http://www.w3.org/2000/svg">
<path d="M50.7687 154.436C49.2101 156.716 49.7945 159.827 52.074 161.386C54.3535 162.944 57.4649 162.36 59.0235 160.08L50.7687 154.436ZM99.534 91.9739L104.533 92.0495C104.567 89.8433 103.15 87.876 101.047 87.2083C98.944 86.5406 96.6519 87.3304 95.4066 89.1518L99.534 91.9739ZM93.3387 170.975C93.2969 173.736 95.5014 176.008 98.2625 176.05C101.024 176.092 103.296 173.887 103.338 171.126L93.3387 170.975ZM59.0235 160.08L103.661 94.796L95.4066 89.1518L50.7687 154.436L59.0235 160.08ZM94.5346 91.8983L93.3387 170.975L103.338 171.126L104.533 92.0495L94.5346 91.8983Z"/>
<circle cx="103.444" cy="78.5009" r="10.5182" transform="rotate(17.6143 103.444 78.5009)" stroke-width="10"/>
<path d="M74.6821 129.697L117.456 143.278"  fill="none"  stroke-width="10" stroke-linecap="round" stroke-linejoin="round"/>
<path d="M77.5 18.5C65.2961 27.1145 54.7611 41.5215 50 55.5"  fill="none"  stroke-width="9.8" stroke-linecap="round"/>
<path d="M154.996 47.7112C148.523 39.7037 139.5 34.1581 129.433 31.9998C119.365 29.8415 108.862 31.201 99.6753 35.8514" stroke-width="10" stroke-linecap="round"/>
<path d="M134 172C138.883 178.003 142 181 143.5 181.5"  stroke-width="10" stroke-linecap="round" stroke-linejoin="round"/>
<path d="M47 105L5 105" stroke-width="10" stroke-linecap="round" stroke-linejoin="round"/>
<path d="M47 85L27 85"  stroke-width="10" stroke-linecap="round" stroke-linejoin="round"/>
<path fill-rule="evenodd" clip-rule="evenodd" d="M58.039 49C63.6469 36.9652 72.8786 26.473 85.2499 19.3305C117.296 0.828924 158.272 11.8086 176.774 43.8542C188.861 64.7904 188.365 89.5387 177.632 109.341L177.632 109.341C176.725 111.015 175.745 112.653 174.693 114.25L189.731 140.296C195.254 149.862 191.976 162.094 182.411 167.617L165.956 177.117C156.595 182.521 144.682 179.499 139 170.404V184.554C144.315 188.188 150.683 190.02 157.101 189.781L158.081 191.478C164.571 202.718 178.943 206.569 190.183 200.08C201.423 193.59 205.274 179.218 198.785 167.978L197.805 166.281C203.531 157.167 204.147 145.266 198.391 135.296L186.295 114.345C198.751 91.5493 199.372 62.9964 185.434 38.8542C164.171 2.02563 117.078 -10.5928 80.2499 10.6702C64.5998 19.7058 53.3216 33.4056 47.1572 49H58.039ZM167.412 187.527C171.392 193.165 179.089 194.938 185.183 191.42C191.277 187.901 193.59 180.349 190.697 174.083C189.664 174.875 188.568 175.609 187.411 176.277L170.956 185.777C169.798 186.446 168.615 187.028 167.412 187.527Z" />
</svg>
