<svg height="300" viewBox="0 0 768 351" fill="none" xmlns="http://www.w3.org/2000/svg">
<rect x="47" y="47" width="608" height="290" rx="145" fill="#4E6081"/>
<mask id="mask0_371_319" style="mask-type:alpha" maskUnits="userSpaceOnUse" x="47" y="44" width="500" height="267">
<rect x="47" y="44" width="500" height="267" rx="133.5" fill="#4E6081"/>
</mask>
<g mask="url(#mask0_371_319)">
<g filter="url(#filter0_f_371_319)">
<path d="M180.085 52.3466C189.848 42.5835 208.535 37.7071 221.824 41.455L586.715 144.365C600.004 148.113 602.862 159.066 593.099 168.829L439.941 321.987C430.178 331.75 411.491 336.626 398.202 332.878L33.3108 229.968C20.0221 226.22 17.164 215.268 26.9271 205.505L180.085 52.3466Z" fill="#3E7384" fill-opacity="0.25"/>
</g>
</g>
<path d="M378.682 40.4455C388.445 30.6824 407.132 25.806 420.421 29.5538L743.359 120.632C756.648 124.38 759.506 135.332 749.743 145.096L639.282 255.557C629.519 265.32 610.831 270.196 597.543 266.448L274.604 175.37C261.316 171.622 258.458 160.67 268.221 150.907L378.682 40.4455Z" fill="#F48F6E"/>
<mask id="mask1_371_319" style="mask-type:alpha" maskUnits="userSpaceOnUse" x="262" y="29" width="493" height="239">
<path d="M377.231 41.8669C386.995 32.1038 405.682 27.2274 418.971 30.9752L741.941 122.062C755.23 125.81 758.088 136.763 748.325 146.526L639.284 255.567C629.52 265.33 610.833 270.207 597.545 266.459L274.574 175.372C261.285 171.624 258.427 160.671 268.19 150.908L377.231 41.8669Z" fill="white"/>
</mask>
<g mask="url(#mask1_371_319)">
<g clip-path="url(#clip0_371_319)" filter="url(#filter1_f_371_319)">
<path d="M698.482 313.678C689.862 322.298 673.328 326.728 661.553 323.573L450.583 267.043C438.808 263.888 436.25 254.343 444.87 245.723V245.723C453.49 237.102 470.024 232.672 481.799 235.827L692.769 292.357C704.544 295.512 707.102 305.058 698.482 313.678V313.678Z" fill="#101010" fill-opacity="0.1"/>
<path fill-rule="evenodd" clip-rule="evenodd" d="M380.172 275.07C384.295 278.45 390.943 280.231 398.654 280.022L424.443 279.324C432.154 279.116 440.296 276.934 447.079 273.259L469.761 260.97C476.543 257.295 481.41 252.428 483.291 247.44L489.58 230.758C491.461 225.769 490.201 221.068 486.078 217.689L472.291 206.386C468.168 203.007 461.519 201.225 453.808 201.434L428.02 202.132C420.309 202.341 412.166 204.522 405.384 208.197V208.197C401.177 210.477 400.919 214.156 404.892 215.22L436.044 223.567C439.245 224.425 439.94 227.02 437.597 229.363L414.866 252.094C412.523 254.437 408.029 255.641 404.828 254.783L373.676 246.436C369.703 245.372 364.049 247.604 362.882 250.699V250.699C361.002 255.687 362.261 260.388 366.384 263.768L380.172 275.07Z" fill="#101010" fill-opacity="0.1"/>
</g>
<g filter="url(#filter2_f_371_319)">
<path d="M512.438 136.798C522.201 127.035 540.888 122.159 554.177 125.907L690.726 164.418C704.015 168.165 706.873 179.118 697.11 188.881L677.294 208.697C667.531 218.46 648.844 223.337 635.555 219.589L499.005 181.078C485.717 177.33 482.859 166.377 492.622 156.614L512.438 136.798Z" fill="black" fill-opacity="0.1"/>
</g>
<g filter="url(#filter3_f_371_319)">
<path d="M252.593 63.1254C262.356 53.3623 281.043 48.486 294.332 52.2338L492.188 108.035C505.477 111.783 508.335 122.736 498.572 132.499L402.573 228.497C392.81 238.261 374.122 243.137 360.834 239.389L162.978 183.588C149.689 179.84 146.831 168.887 156.594 159.124L252.593 63.1254Z" fill="black" fill-opacity="0.1"/>
</g>
</g>
<rect width="135" height="4" rx="2" transform="matrix(0.962455 0.27144 -0.707107 0.707107 547.455 130)" fill="#4E6081"/>
<rect width="135" height="4" rx="2" transform="matrix(0.962455 0.27144 -0.707107 0.707107 536.142 141.314)" fill="#4E6081"/>
<rect width="135" height="4" rx="2" transform="matrix(0.962455 0.27144 -0.707107 0.707107 524.828 152.627)" fill="#4E6081"/>
<path d="M180.085 29.6777C189.848 19.9146 208.535 15.0382 221.824 18.786L489.014 94.1413C502.303 97.8891 505.161 108.842 495.398 118.605L333.911 280.091C324.148 289.854 305.461 294.731 292.172 290.983L24.9824 215.628C11.6937 211.88 8.83559 200.927 18.5987 191.164L180.085 29.6777Z" fill="#ADEAE2"/>
<g filter="url(#filter4_f_371_319)">
<path d="M207.568 89.0138C217.332 79.2507 236.019 74.3744 249.307 78.1222L431.89 129.616C445.179 133.364 448.037 144.316 438.274 154.08L338.169 254.184C328.406 263.948 309.719 268.824 296.43 265.076L113.847 213.582C100.559 209.835 97.7004 198.882 107.464 189.119L207.568 89.0138Z" fill="#78E7D9"/>
</g>
<rect width="250" height="4" rx="2" transform="matrix(0.962455 0.27144 -0.707107 0.707107 209.568 44.3311)" fill="#4E6081"/>
<rect width="250" height="4" rx="2" transform="matrix(0.962455 0.27144 -0.707107 0.707107 196.134 57.7661)" fill="#4E6081"/>
<rect width="250" height="4" rx="2" transform="matrix(0.962455 0.27144 -0.707107 0.707107 182.698 71.2012)" fill="#4E6081"/>
<rect width="250" height="4" rx="2" transform="matrix(0.962455 0.27144 -0.707107 0.707107 169.264 84.6362)" fill="#4E6081"/>
<rect width="250" height="4" rx="2" transform="matrix(0.962455 0.27144 -0.707107 0.707107 155.828 98.0713)" fill="#4E6081"/>
<g clip-path="url(#clip1_371_319)" filter="url(#filter5_f_371_319)">
<path d="M698.481 303.226C689.861 311.846 673.327 316.276 661.552 313.121L450.582 256.592C438.807 253.437 436.249 243.891 444.869 235.271V235.271C453.489 226.651 470.023 222.221 481.798 225.376L692.768 281.905C704.543 285.06 707.101 294.606 698.481 303.226V303.226Z" fill="#FCD925" fill-opacity="0.15"/>
<path fill-rule="evenodd" clip-rule="evenodd" d="M380.171 264.618C384.294 267.998 390.942 269.78 398.653 269.571L424.442 268.873C432.153 268.664 440.295 266.482 447.078 262.807L469.76 250.518C476.542 246.843 481.409 241.976 483.29 236.988L489.579 220.306C491.46 215.318 490.2 210.617 486.077 207.237L472.29 195.935C468.167 192.555 461.518 190.774 453.807 190.982L428.019 191.68C420.308 191.889 412.166 194.071 405.383 197.746V197.746C401.176 200.025 400.918 203.704 404.891 204.768L436.043 213.116C439.244 213.973 439.939 216.568 437.596 218.911L414.865 241.642C412.522 243.985 408.028 245.189 404.827 244.332L373.675 235.984C369.702 234.92 364.048 237.153 362.882 240.247V240.247C361.001 245.235 362.261 249.936 366.383 253.316L380.171 264.618Z" fill="#FCD925" fill-opacity="0.15"/>
</g>
<g clip-path="url(#clip2_371_319)">
<path d="M698.483 292.311C689.863 300.931 673.329 305.361 661.554 302.206L450.584 245.677C438.809 242.522 436.251 232.976 444.871 224.356V224.356C453.491 215.736 470.025 211.306 481.8 214.461L692.77 270.99C704.545 274.145 707.103 283.691 698.483 292.311V292.311Z" fill="#F8B129"/>
<path fill-rule="evenodd" clip-rule="evenodd" d="M380.173 253.703C384.296 257.083 390.944 258.864 398.655 258.656L424.444 257.958C432.155 257.749 440.297 255.567 447.079 251.892L469.762 239.603C476.544 235.928 481.411 231.061 483.292 226.073L489.581 209.391C491.462 204.403 490.202 199.702 486.079 196.322L472.291 185.02C468.169 181.64 461.52 179.858 453.809 180.067L428.021 180.765C420.31 180.974 412.167 183.156 405.385 186.831V186.831C401.178 189.11 400.92 192.789 404.893 193.853L436.045 202.201C439.245 203.058 439.941 205.653 437.598 207.996L414.867 230.727C412.524 233.07 408.03 234.274 404.829 233.417L373.677 225.069C369.704 224.005 364.05 226.238 362.883 229.332V229.332C361.003 234.32 362.262 239.021 366.385 242.401L380.173 253.703Z" fill="#F8B129"/>
</g>
<path d="M490.847 203.657L490.847 192.234L474.348 203.657L490.847 203.657Z" fill="#F8B129"/>
<path d="M703.436 282.981L703.436 270.289L692.014 274.712L692.631 279.904L697.262 282.981L703.436 282.981Z" fill="#F8B129"/>
<path d="M362.755 220.831V233.831L397.741 246.809L454.776 229.992L462.924 191.917L440.361 176.369L402.755 179.331V190.831L442.868 199.849L417.484 226.185L362.755 220.831Z" fill="#F8B129"/>
<g clip-path="url(#clip3_371_319)">
<path d="M698.483 280.888C689.863 289.508 673.329 293.938 661.554 290.783L450.584 234.254C438.809 231.099 436.251 221.553 444.871 212.933V212.933C453.491 204.313 470.025 199.883 481.8 203.038L692.77 259.567C704.545 262.722 707.103 272.268 698.483 280.888V280.888Z" fill="#FCD925"/>
<path fill-rule="evenodd" clip-rule="evenodd" d="M380.173 242.281C384.296 245.66 390.944 247.442 398.655 247.233L424.444 246.535C432.155 246.326 440.297 244.144 447.079 240.47L469.762 228.18C476.544 224.505 481.411 219.638 483.292 214.65L489.581 197.968C491.462 192.98 490.202 188.279 486.079 184.899L472.291 173.597C468.169 170.217 461.52 168.436 453.809 168.644L428.021 169.342C420.31 169.551 412.167 171.733 405.385 175.408V175.408C401.178 177.687 400.92 181.366 404.893 182.431L436.045 190.778C439.245 191.635 439.941 194.23 437.598 196.573L414.867 219.304C412.524 221.647 408.03 222.851 404.829 221.994L373.677 213.647C369.704 212.582 364.05 214.815 362.883 217.909V217.909C361.003 222.898 362.262 227.599 366.385 230.978L380.173 242.281Z" fill="#FCD925"/>
</g>
<mask id="mask2_371_319" style="mask-type:alpha" maskUnits="userSpaceOnUse" x="511" y="228" width="184" height="113">
<path d="M617.181 250.989L615.32 248.761C616.931 247.563 618.25 246.244 619.21 244.871L623.798 244.372C624.324 244.316 624.812 244.039 624.99 243.708C626.123 241.51 626.476 239.342 626.092 237.356C626.031 237.051 625.617 236.87 625.099 236.928L620.511 237.427C620.009 236.211 619.109 235.133 617.853 234.249L620.574 231.528C620.885 231.217 620.861 230.867 620.511 230.689C618.187 229.49 615.319 228.749 612.244 228.474C611.762 228.429 611.195 228.621 610.884 228.931L608.158 231.658C606.04 231.645 603.821 231.887 601.61 232.37L599.756 230.144C599.54 229.89 599.029 229.816 598.508 229.972C595.159 230.95 591.944 232.351 589.125 234.105C588.697 234.369 588.55 234.737 588.766 234.992L590.627 237.219C589.016 238.418 587.697 239.737 586.737 241.11L582.149 241.609C581.623 241.665 581.135 241.941 580.957 242.273C579.824 244.471 579.47 246.639 579.855 248.625C579.915 248.929 580.329 249.111 580.848 249.053L585.436 248.554C585.938 249.77 586.838 250.847 588.094 251.732L585.367 254.458C585.057 254.769 585.08 255.119 585.43 255.298C587.754 256.496 590.623 257.237 593.697 257.513C594.18 257.558 594.746 257.365 595.057 257.055L597.783 254.328C599.902 254.341 602.12 254.099 604.331 253.616L606.193 255.844C606.408 256.098 606.92 256.172 607.44 256.017C610.79 255.038 614.005 253.637 616.824 251.884C617.242 251.609 617.397 251.243 617.181 250.989V250.989ZM598.539 247.42C595.201 246.525 594.472 243.808 596.916 241.364C599.36 238.92 604.067 237.659 607.406 238.553C610.744 239.448 611.472 242.165 609.028 244.609C606.585 247.053 601.877 248.314 598.539 247.42Z" fill="#9AE380"/>
<path d="M680.295 270.141L677.294 266.55C679.891 264.618 682.018 262.492 683.566 260.279L690.962 259.474C691.81 259.384 692.597 258.938 692.884 258.403C694.71 254.86 695.28 251.365 694.66 248.163C694.563 247.672 693.895 247.38 693.06 247.473L685.663 248.278C684.854 246.317 683.403 244.58 681.378 243.154L685.765 238.767C686.265 238.267 686.227 237.702 685.663 237.414C681.917 235.482 677.292 234.288 672.336 233.844C671.558 233.771 670.644 234.081 670.144 234.581L665.748 238.977C662.333 238.957 658.756 239.346 655.192 240.125L652.203 236.537C651.855 236.127 651.03 236.008 650.191 236.259C644.792 237.836 639.608 240.095 635.064 242.921C634.374 243.348 634.137 243.942 634.484 244.352L637.486 247.943C634.888 249.875 632.762 252.001 631.214 254.215L623.817 255.019C622.969 255.109 622.182 255.556 621.895 256.09C620.069 259.634 619.499 263.129 620.119 266.331C620.217 266.821 620.884 267.113 621.72 267.02L629.117 266.216C629.925 268.177 631.376 269.914 633.401 271.34L629.005 275.735C628.505 276.236 628.543 276.801 629.107 277.088C632.854 279.021 637.478 280.214 642.434 280.659C643.213 280.731 644.126 280.421 644.627 279.921L649.022 275.525C652.438 275.546 656.015 275.156 659.578 274.378L662.58 277.969C662.927 278.379 663.752 278.498 664.591 278.247C669.991 276.669 675.175 274.411 679.719 271.584C680.393 271.142 680.643 270.552 680.295 270.141V270.141ZM650.241 264.388C644.859 262.946 643.685 258.564 647.625 254.625C651.565 250.685 659.153 248.651 664.535 250.093C669.917 251.535 671.091 255.917 667.151 259.857C663.212 263.797 655.623 265.83 650.241 264.388Z" fill="#73EADC"/>
<path d="M601.167 324.986L596.712 319.655C600.568 316.787 603.724 313.631 606.022 310.345L617.003 309.15C618.262 309.017 619.43 308.354 619.856 307.56C622.567 302.3 623.413 297.112 622.493 292.359C622.348 291.63 621.357 291.197 620.116 291.335L609.136 292.53C607.935 289.618 605.781 287.04 602.776 284.923L609.288 278.411C610.03 277.668 609.974 276.829 609.136 276.403C603.575 273.534 596.71 271.762 589.352 271.102C588.197 270.994 586.84 271.455 586.098 272.197L579.572 278.722C574.503 278.693 569.192 279.271 563.902 280.426L559.465 275.1C558.948 274.491 557.724 274.314 556.478 274.687C548.462 277.029 540.768 280.382 534.022 284.578C532.998 285.212 532.645 286.093 533.162 286.702L537.617 292.032C533.761 294.901 530.604 298.057 528.306 301.343L517.326 302.537C516.067 302.671 514.899 303.333 514.473 304.127C511.762 309.388 510.916 314.576 511.836 319.329C511.981 320.057 512.972 320.491 514.213 320.353L525.193 319.158C526.394 322.069 528.547 324.648 531.553 326.765L525.028 333.29C524.285 334.033 524.342 334.872 525.179 335.298C530.741 338.167 537.606 339.939 544.963 340.599C546.119 340.707 547.475 340.246 548.218 339.504L554.743 332.979C559.813 333.008 565.123 332.43 570.414 331.275L574.869 336.605C575.385 337.215 576.61 337.391 577.855 337.019C585.871 334.677 593.566 331.324 600.312 327.128C601.313 326.471 601.684 325.595 601.167 324.986V324.986ZM556.552 316.445C548.562 314.304 546.819 307.8 552.668 301.951C558.517 296.102 569.782 293.084 577.772 295.225C585.762 297.365 587.505 303.87 581.656 309.718C575.807 315.567 564.541 318.586 556.552 316.445Z" fill="#E82929"/>
</mask>
<g mask="url(#mask2_371_319)">
<path d="M698.483 280.888C689.863 289.508 673.329 293.938 661.554 290.783L450.584 234.254C438.809 231.099 436.251 221.553 444.871 212.933V212.933C453.491 204.313 470.025 199.883 481.8 203.038L692.77 259.567C704.545 262.722 707.103 272.268 698.483 280.888V280.888Z" fill="#F8B129"/>
</g>
<path d="M617.344 233.073L615.483 230.846C617.094 229.647 618.413 228.328 619.373 226.955L623.961 226.456C624.487 226.4 624.975 226.124 625.153 225.792C626.286 223.594 626.639 221.426 626.255 219.44C626.194 219.136 625.78 218.954 625.262 219.012L620.674 219.511C620.172 218.295 619.272 217.218 618.016 216.333L620.737 213.612C621.048 213.302 621.024 212.951 620.674 212.773C618.35 211.574 615.482 210.834 612.408 210.558C611.925 210.513 611.358 210.705 611.048 211.016L608.321 213.742C606.203 213.73 603.984 213.971 601.773 214.454L599.919 212.229C599.703 211.974 599.192 211.9 598.671 212.056C595.322 213.035 592.107 214.436 589.288 216.189C588.86 216.454 588.713 216.822 588.929 217.076L590.79 219.304C589.179 220.502 587.86 221.821 586.9 223.194L582.312 223.693C581.786 223.749 581.298 224.026 581.12 224.357C579.987 226.555 579.633 228.723 580.018 230.709C580.079 231.014 580.492 231.195 581.011 231.137L585.599 230.638C586.101 231.854 587.001 232.932 588.257 233.816L585.53 236.543C585.22 236.853 585.243 237.204 585.593 237.382C587.917 238.581 590.786 239.321 593.86 239.597C594.343 239.642 594.909 239.449 595.22 239.139L597.946 236.413C600.065 236.425 602.284 236.183 604.494 235.701L606.356 237.928C606.571 238.183 607.083 238.256 607.604 238.101C610.953 237.122 614.168 235.721 616.987 233.968C617.405 233.693 617.56 233.327 617.344 233.073V233.073ZM598.702 229.504C595.364 228.61 594.635 225.892 597.079 223.448C599.523 221.004 604.23 219.743 607.569 220.637C610.907 221.532 611.635 224.25 609.192 226.693C606.748 229.137 602.041 230.399 598.702 229.504Z" fill="#4E9D32"/>
<path d="M589.068 220.35L580.363 230.638L589.068 228.264L593.223 219.163L603.312 215.207L616.37 219.163L612.215 225.494L599.949 230.638L587.288 232.814L585.507 233.606L585.507 236.771L588.277 236.969L590.651 234.199L613.402 233.012L617.557 233.012L617.557 229.847L616.37 229.649L617.952 215.207L621.118 212.833L621.316 209.667L621.118 209.667L601.334 213.228L589.068 213.228L588.87 216.394L589.859 216.789L589.068 220.35Z" fill="#4E9D32"/>
<path d="M617.461 229.886L615.6 227.658C617.211 226.46 618.53 225.141 619.49 223.768L624.078 223.269C624.604 223.213 625.092 222.936 625.27 222.605C626.403 220.407 626.757 218.239 626.372 216.253C626.312 215.948 625.898 215.767 625.379 215.825L620.791 216.324C620.289 215.108 619.389 214.03 618.134 213.146L620.854 210.425C621.165 210.114 621.141 209.764 620.791 209.586C618.467 208.387 615.599 207.646 612.525 207.371C612.042 207.326 611.475 207.518 611.165 207.828L608.438 210.555C606.32 210.542 604.101 210.784 601.89 211.267L600.036 209.041C599.821 208.787 599.309 208.713 598.789 208.869C595.439 209.847 592.224 211.248 589.405 213.002C588.977 213.266 588.83 213.634 589.046 213.889L590.907 216.116C589.296 217.315 587.977 218.634 587.017 220.007L582.429 220.506C581.903 220.562 581.415 220.838 581.237 221.17C580.104 223.368 579.751 225.536 580.135 227.522C580.196 227.826 580.61 228.007 581.128 227.95L585.716 227.451C586.218 228.667 587.118 229.744 588.374 230.629L585.647 233.355C585.337 233.666 585.361 234.016 585.71 234.194C588.034 235.393 590.903 236.134 593.977 236.409C594.46 236.455 595.027 236.262 595.337 235.952L598.064 233.225C600.182 233.238 602.401 232.996 604.611 232.513L606.473 234.741C606.689 234.995 607.2 235.069 607.721 234.914C611.07 233.935 614.285 232.534 617.104 230.781C617.522 230.506 617.677 230.14 617.461 229.886V229.886ZM598.819 226.317C595.481 225.422 594.753 222.705 597.197 220.261C599.64 217.817 604.348 216.556 607.686 217.45C611.024 218.345 611.753 221.062 609.309 223.506C606.865 225.95 602.158 227.211 598.819 226.317Z" fill="#9AE380"/>
<path d="M680.386 261.279L677.385 257.689C679.982 255.757 682.108 253.63 683.656 251.417L691.053 250.612C691.901 250.522 692.688 250.076 692.975 249.541C694.801 245.998 695.371 242.503 694.751 239.301C694.654 238.81 693.986 238.518 693.15 238.611L685.754 239.416C684.945 237.455 683.494 235.718 681.469 234.292L685.856 229.905C686.356 229.405 686.318 228.84 685.754 228.553C682.008 226.62 677.383 225.426 672.427 224.982C671.649 224.909 670.735 225.219 670.235 225.72L665.839 230.115C662.424 230.095 658.847 230.485 655.283 231.263L652.294 227.675C651.946 227.265 651.121 227.146 650.282 227.397C644.882 228.974 639.699 231.233 635.155 234.06C634.465 234.487 634.227 235.08 634.575 235.49L637.576 239.081C634.979 241.013 632.853 243.14 631.305 245.353L623.908 246.158C623.06 246.248 622.273 246.694 621.986 247.229C620.16 250.772 619.59 254.267 620.21 257.469C620.307 257.96 620.975 258.252 621.811 258.158L629.208 257.354C630.016 259.315 631.467 261.052 633.492 262.478L629.096 266.873C628.596 267.374 628.634 267.939 629.198 268.226C632.944 270.159 637.569 271.353 642.525 271.797C643.304 271.87 644.217 271.559 644.718 271.059L649.113 266.664C652.528 266.684 656.106 266.294 659.669 265.516L662.67 269.107C663.018 269.517 663.843 269.636 664.682 269.385C670.082 267.808 675.265 265.549 679.81 262.722C680.484 262.28 680.734 261.69 680.386 261.279V261.279ZM650.332 255.526C644.95 254.084 643.776 249.703 647.716 245.763C651.655 241.823 659.244 239.789 664.626 241.232C670.008 242.674 671.182 247.055 667.242 250.995C663.302 254.935 655.714 256.968 650.332 255.526Z" fill="#4E6081"/>
<path d="M634.801 240.769L620.768 257.354L634.801 253.527L641.499 238.856L657.765 232.477L678.816 238.856L672.118 249.062L652.343 257.354L631.931 260.863L629.06 262.139L629.06 267.242L633.525 267.561L637.353 263.095L674.032 261.182L680.729 261.182L680.729 256.079L678.816 255.76L681.367 232.477L686.471 228.649L686.789 223.546L686.471 223.546L654.576 229.287L634.801 229.287L634.482 234.39L636.077 235.028L634.801 240.769Z" fill="#4E6081"/>
<path d="M680.575 256.141L677.574 252.55C680.172 250.618 682.298 248.492 683.846 246.279L691.243 245.474C692.091 245.384 692.877 244.938 693.165 244.403C694.99 240.86 695.561 237.365 694.941 234.163C694.843 233.672 694.176 233.38 693.34 233.473L685.943 234.278C685.134 232.317 683.683 230.58 681.659 229.154L686.045 224.767C686.546 224.267 686.507 223.702 685.943 223.414C682.197 221.482 677.573 220.288 672.616 219.844C671.838 219.771 670.924 220.081 670.424 220.581L666.028 224.977C662.613 224.957 659.036 225.346 655.472 226.125L652.483 222.537C652.135 222.127 651.311 222.008 650.472 222.259C645.072 223.836 639.888 226.095 635.344 228.921C634.654 229.348 634.417 229.942 634.765 230.352L637.766 233.943C635.168 235.875 633.042 238.001 631.494 240.215L624.097 241.019C623.249 241.109 622.463 241.556 622.175 242.09C620.35 245.634 619.779 249.129 620.399 252.331C620.497 252.821 621.164 253.113 622 253.02L629.397 252.216C630.206 254.177 631.657 255.914 633.681 257.34L629.286 261.735C628.785 262.236 628.824 262.801 629.388 263.088C633.134 265.021 637.758 266.214 642.715 266.659C643.493 266.731 644.407 266.421 644.907 265.921L649.303 261.525C652.718 261.546 656.295 261.156 659.859 260.378L662.86 263.969C663.208 264.379 664.033 264.498 664.872 264.247C670.271 262.669 675.455 260.411 679.999 257.584C680.673 257.142 680.923 256.552 680.575 256.141V256.141ZM650.521 250.388C645.139 248.946 643.965 244.564 647.905 240.625C651.845 236.685 659.434 234.651 664.816 236.093C670.198 237.535 671.372 241.917 667.432 245.857C663.492 249.797 655.903 251.83 650.521 250.388Z" fill="#73EADC"/>
<path d="M602 301.927L597.956 297.089C601.456 294.487 604.32 291.622 606.406 288.64L616.37 287.556C617.513 287.435 618.573 286.834 618.96 286.113C621.42 281.34 622.188 276.631 621.352 272.318C621.221 271.657 620.322 271.263 619.196 271.389L609.231 272.473C608.141 269.831 606.187 267.491 603.459 265.57L609.369 259.66C610.043 258.986 609.991 258.224 609.232 257.838C604.185 255.234 597.954 253.626 591.278 253.027C590.229 252.929 588.998 253.347 588.324 254.021L582.402 259.943C577.801 259.916 572.982 260.44 568.181 261.489L564.154 256.656C563.686 256.103 562.575 255.942 561.444 256.28C554.17 258.406 547.187 261.449 541.065 265.257C540.135 265.832 539.815 266.631 540.284 267.184L544.327 272.022C540.828 274.624 537.963 277.489 535.878 280.471L525.913 281.555C524.771 281.676 523.711 282.277 523.324 282.998C520.864 287.771 520.096 292.48 520.931 296.793C521.063 297.454 521.962 297.848 523.088 297.722L533.053 296.638C534.142 299.28 536.097 301.62 538.824 303.541L532.903 309.463C532.229 310.137 532.28 310.899 533.04 311.285C538.087 313.889 544.317 315.497 550.994 316.096C552.043 316.194 553.274 315.776 553.948 315.102L559.869 309.18C564.47 309.207 569.289 308.683 574.09 307.634L578.134 312.472C578.602 313.025 579.713 313.185 580.844 312.847C588.118 310.722 595.101 307.679 601.223 303.871C602.132 303.275 602.468 302.48 602 301.927V301.927ZM561.511 294.176C554.26 292.233 552.679 286.331 557.986 281.023C563.294 275.715 573.518 272.976 580.768 274.919C588.019 276.861 589.601 282.764 584.293 288.072C578.985 293.38 568.762 296.119 561.511 294.176Z" fill="#8C3434"/>
<path d="M540.528 274.923L521.732 297.136L540.528 292.01L549.499 272.36L571.285 263.816L599.479 272.36L590.509 286.03L564.023 297.136L536.684 301.835L532.839 303.544L532.839 310.379L538.82 310.806L543.946 304.826L593.072 302.263L602.042 302.263L602.042 295.428L599.479 295.001L602.897 263.816L609.732 258.69L610.159 251.855L609.732 251.855L567.014 259.544L540.528 259.544L540.101 266.379L542.237 267.234L540.528 274.923Z" fill="#8C3434"/>
<path d="M602.255 295.005L598.212 290.167C601.712 287.564 604.576 284.7 606.661 281.718L616.626 280.634C617.769 280.513 618.829 279.911 619.216 279.191C621.675 274.417 622.444 269.709 621.608 265.395C621.477 264.734 620.578 264.341 619.452 264.466L609.487 265.55C608.397 262.908 606.443 260.569 603.715 258.647L609.625 252.738C610.299 252.064 610.247 251.302 609.487 250.915C604.44 248.312 598.21 246.703 591.533 246.105C590.485 246.007 589.254 246.425 588.58 247.099L582.658 253.02C578.057 252.993 573.238 253.518 568.437 254.566L564.41 249.733C563.942 249.18 562.83 249.02 561.7 249.358C554.426 251.484 547.443 254.526 541.321 258.334C540.391 258.909 540.071 259.709 540.54 260.262L544.583 265.099C541.084 267.702 538.219 270.567 536.134 273.548L526.169 274.633C525.026 274.754 523.967 275.355 523.58 276.075C521.12 280.849 520.352 285.557 521.187 289.871C521.318 290.532 522.217 290.925 523.344 290.8L533.309 289.716C534.398 292.358 536.353 294.698 539.08 296.619L533.159 302.541C532.485 303.215 532.536 303.976 533.296 304.363C538.343 306.967 544.573 308.575 551.25 309.174C552.299 309.272 553.53 308.854 554.204 308.18L560.125 302.258C564.726 302.285 569.545 301.76 574.346 300.712L578.389 305.549C578.858 306.102 579.969 306.263 581.1 305.925C588.374 303.799 595.357 300.756 601.479 296.948C602.388 296.352 602.724 295.557 602.255 295.005V295.005ZM561.767 287.254C554.516 285.311 552.934 279.408 558.242 274.101C563.55 268.793 573.774 266.053 581.024 267.996C588.275 269.939 589.856 275.841 584.549 281.149C579.241 286.457 569.017 289.196 561.767 287.254Z" fill="#E82929"/>
<rect width="250" height="4" rx="2" transform="matrix(0.962455 0.27144 -0.707107 0.707107 119.568 136.331)" fill="#4E6081"/>
<rect width="250" height="4" rx="2" transform="matrix(0.962455 0.27144 -0.707107 0.707107 106.134 149.766)" fill="#4E6081"/>
<rect width="250" height="4" rx="2" transform="matrix(0.962455 0.27144 -0.707107 0.707107 92.6982 163.201)" fill="#4E6081"/>
<rect width="250" height="4" rx="2" transform="matrix(0.962455 0.27144 -0.707107 0.707107 79.2637 176.636)" fill="#4E6081"/>
<rect width="250" height="4" rx="2" transform="matrix(0.962455 0.27144 -0.707107 0.707107 65.8281 190.071)" fill="#4E6081"/>
<path d="M487.841 75.877C487.841 67.5927 492.59 56.1282 498.447 50.2704L538.111 10.6065C543.969 4.74867 548.718 6.71565 548.718 14.9999V93.3374L498.447 143.608C492.59 149.466 487.841 147.499 487.841 139.214V75.877Z" fill="#B73636"/>
<path d="M548.104 28.0377C547.99 14.2311 558.71 5.93551 572.047 9.50905L707.679 45.8517C710.347 46.5664 712.527 49.3843 712.55 52.1457L713.158 126.322C713.226 134.606 706.795 139.583 698.793 137.439L563.16 101.096C555.158 98.9523 548.616 90.4987 548.548 82.2147L548.104 28.0377Z" fill="#D66060"/>
<rect width="173.176" height="42.6876" rx="5" transform="matrix(0.965926 0.258819 -0.707107 0.707107 546.12 2.44482)" fill="#F08181"/>
<rect width="162.156" height="42.101" rx="5" transform="matrix(0.965926 0.258819 -0.707107 0.707107 548.049 60.5884)" fill="#4E6081"/>
<rect width="162.156" height="38.792" rx="5" transform="matrix(0.965926 0.258819 -0.707107 0.707107 537.483 71.155)" fill="#354055"/>
<path d="M654.84 130.274C654.84 116.467 662.754 97.3596 672.518 87.5965L709.713 50.4007C711.666 48.448 713.249 49.1037 713.249 51.8651V126.577C713.249 134.309 708.817 145.009 703.349 150.477L664.739 189.087C659.272 194.554 654.84 192.718 654.84 184.986V130.274Z" fill="#C24B4B"/>
<path d="M487.414 97.8945C487.186 84.0893 497.811 75.7949 511.148 79.3684L631.161 111.526C644.497 115.099 655.494 129.188 655.723 142.993L656.484 188.856C656.557 193.274 653.157 195.928 648.889 194.784L495.069 153.568C491.335 152.568 488.256 148.623 488.192 144.758L487.414 97.8945Z" fill="#CE5959"/>
<defs>
<filter id="filter0_f_371_319" x="-3.87109" y="15.1921" width="627.768" height="343.949" filterUnits="userSpaceOnUse" color-interpolation-filters="sRGB">
<feFlood flood-opacity="0" result="BackgroundImageFix"/>
<feBlend mode="normal" in="SourceGraphic" in2="BackgroundImageFix" result="shape"/>
<feGaussianBlur stdDeviation="12.5" result="effect1_foregroundBlur_371_319"/>
</filter>
<filter id="filter1_f_371_319" x="319.254" y="165.121" width="441.729" height="212.248" filterUnits="userSpaceOnUse" color-interpolation-filters="sRGB">
<feFlood flood-opacity="0" result="BackgroundImageFix"/>
<feBlend mode="normal" in="SourceGraphic" in2="BackgroundImageFix" result="shape"/>
<feGaussianBlur stdDeviation="12.5" result="effect1_foregroundBlur_371_319"/>
</filter>
<filter id="filter2_f_371_319" x="461.824" y="99.6438" width="266.084" height="146.208" filterUnits="userSpaceOnUse" color-interpolation-filters="sRGB">
<feFlood flood-opacity="0" result="BackgroundImageFix"/>
<feBlend mode="normal" in="SourceGraphic" in2="BackgroundImageFix" result="shape"/>
<feGaussianBlur stdDeviation="12.5" result="effect1_foregroundBlur_371_319"/>
</filter>
<filter id="filter3_f_371_319" x="125.796" y="25.9709" width="403.573" height="239.681" filterUnits="userSpaceOnUse" color-interpolation-filters="sRGB">
<feFlood flood-opacity="0" result="BackgroundImageFix"/>
<feBlend mode="normal" in="SourceGraphic" in2="BackgroundImageFix" result="shape"/>
<feGaussianBlur stdDeviation="12.5" result="effect1_foregroundBlur_371_319"/>
</filter>
<filter id="filter4_f_371_319" x="51.666" y="26.8594" width="442.405" height="289.479" filterUnits="userSpaceOnUse" color-interpolation-filters="sRGB">
<feFlood flood-opacity="0" result="BackgroundImageFix"/>
<feBlend mode="normal" in="SourceGraphic" in2="BackgroundImageFix" result="shape"/>
<feGaussianBlur stdDeviation="25" result="effect1_foregroundBlur_371_319"/>
</filter>
<filter id="filter5_f_371_319" x="329.253" y="164.669" width="421.729" height="192.248" filterUnits="userSpaceOnUse" color-interpolation-filters="sRGB">
<feFlood flood-opacity="0" result="BackgroundImageFix"/>
<feBlend mode="normal" in="SourceGraphic" in2="BackgroundImageFix" result="shape"/>
<feGaussianBlur stdDeviation="7.5" result="effect1_foregroundBlur_371_319"/>
</filter>
<clipPath id="clip0_371_319">
<rect width="324.537" height="110.664" fill="white" transform="matrix(0.965926 0.258819 -0.707107 0.707107 422.505 190.121)"/>
</clipPath>
<clipPath id="clip1_371_319">
<rect width="324.537" height="110.664" fill="white" transform="matrix(0.965926 0.258819 -0.707107 0.707107 422.504 179.669)"/>
</clipPath>
<clipPath id="clip2_371_319">
<rect width="324.537" height="110.664" fill="white" transform="matrix(0.965926 0.258819 -0.707107 0.707107 422.506 168.754)"/>
</clipPath>
<clipPath id="clip3_371_319">
<rect width="324.537" height="110.664" fill="white" transform="matrix(0.965926 0.258819 -0.707107 0.707107 422.506 157.331)"/>
</clipPath>
</defs>
</svg>
