<svg height="300" viewBox="0 0 736 339" fill="none" xmlns="http://www.w3.org/2000/svg">
<rect x="47" y="23.6621" width="552" height="296" rx="148" fill="#4E6081"/>
<path d="M328.109 79.3481C337.873 69.585 356.56 64.7086 369.848 68.4564L692.787 159.534C706.075 163.282 708.934 174.235 699.17 183.998L639.281 243.888C629.518 253.651 610.831 258.527 597.542 254.779L274.604 163.701C261.315 159.954 258.457 149.001 268.22 139.238L328.109 79.3481Z" fill="#F48F6E"/>
<mask id="mask0_363_215" style="mask-type:alpha" maskUnits="userSpaceOnUse" x="262" y="67" width="443" height="190">
<path d="M328.09 79.3393C337.853 69.5762 356.54 64.6998 369.829 68.4476L692.8 159.535C706.088 163.283 708.946 174.235 699.183 183.998L639.283 243.898C629.52 253.662 610.833 258.538 597.544 254.79L274.574 163.703C261.285 159.955 258.427 149.002 268.19 139.239L328.09 79.3393Z" fill="white"/>
</mask>
<g mask="url(#mask0_363_215)">
<g clip-path="url(#clip0_363_215)" filter="url(#filter0_f_363_215)">
<path d="M698.481 302.009C689.861 310.629 673.327 315.059 661.552 311.904L450.582 255.374C438.807 252.219 436.249 242.674 444.869 234.054V234.054C453.489 225.434 470.023 221.003 481.798 224.159L692.768 280.688C704.543 283.843 707.101 293.389 698.481 302.009V302.009Z" fill="#101010" fill-opacity="0.1"/>
<path fill-rule="evenodd" clip-rule="evenodd" d="M380.171 263.401C384.294 266.781 390.942 268.562 398.653 268.354L424.442 267.655C432.153 267.447 440.295 265.265 447.078 261.59L469.76 249.301C476.542 245.626 481.409 240.759 483.29 235.771L489.579 219.089C491.46 214.1 490.2 209.399 486.077 206.02L472.29 194.717C468.167 191.338 461.518 189.556 453.807 189.765L428.019 190.463C420.308 190.672 412.166 192.854 405.383 196.528V196.528C401.176 198.808 400.918 202.487 404.891 203.551L436.043 211.898C439.244 212.756 439.939 215.351 437.596 217.694L414.865 240.425C412.522 242.768 408.028 243.972 404.827 243.114L373.675 234.767C369.702 233.703 364.048 235.935 362.882 239.03V239.03C361.001 244.018 362.261 248.719 366.383 252.099L380.171 263.401Z" fill="#101010" fill-opacity="0.1"/>
</g>
<g filter="url(#filter1_f_363_215)">
<path d="M512.437 125.129C522.2 115.366 540.887 110.49 554.176 114.238L690.725 152.749C704.014 156.496 706.872 167.449 697.109 177.212L677.293 197.028C667.53 206.791 648.843 211.668 635.554 207.92L499.005 169.409C485.716 165.661 482.858 154.708 492.621 144.945L512.437 125.129Z" fill="black" fill-opacity="0.1"/>
</g>
<g filter="url(#filter2_f_363_215)">
<path d="M252.592 51.4565C262.355 41.6934 281.042 36.817 294.331 40.5648L492.187 96.366C505.476 100.114 508.334 111.067 498.571 120.83L402.572 216.829C392.809 226.592 374.121 231.468 360.833 227.72L162.977 171.919C149.688 168.171 146.83 157.218 156.593 147.455L252.592 51.4565Z" fill="black" fill-opacity="0.1"/>
</g>
</g>
<path d="M512.428 110.13C522.191 100.366 540.878 95.4901 554.167 99.2379L693.106 138.423C706.394 142.171 709.253 153.123 699.489 162.886L681.701 180.674C671.938 190.438 653.251 195.314 639.962 191.566L501.023 152.381C487.735 148.634 484.877 137.681 494.64 127.918L512.428 110.13Z" fill="#B7B6EE"/>
<rect width="135" height="4" rx="2" transform="matrix(0.962455 0.27144 -0.707107 0.707107 547.455 112.662)" fill="#4E6081"/>
<rect width="135" height="4" rx="2" transform="matrix(0.962455 0.27144 -0.707107 0.707107 536.142 123.976)" fill="#4E6081"/>
<rect width="135" height="4" rx="2" transform="matrix(0.962455 0.27144 -0.707107 0.707107 524.828 135.29)" fill="#4E6081"/>
<path d="M180.085 18.0087C189.848 8.24562 208.535 3.36926 221.824 7.11707L489.014 82.4724C502.303 86.2202 505.161 97.173 495.398 106.936L333.911 268.422C324.148 278.185 305.461 283.062 292.172 279.314L24.9824 203.959C11.6937 200.211 8.83559 189.258 18.5987 179.495L180.085 18.0087Z" fill="#ADEAE2"/>
<rect width="250" height="4" rx="2" transform="matrix(0.962455 0.27144 -0.707107 0.707107 209.568 32.6621)" fill="#4E6081"/>
<rect width="250" height="4" rx="2" transform="matrix(0.962455 0.27144 -0.707107 0.707107 196.134 46.0972)" fill="#4E6081"/>
<rect width="250" height="4" rx="2" transform="matrix(0.962455 0.27144 -0.707107 0.707107 182.698 59.5322)" fill="#4E6081"/>
<rect width="250" height="4" rx="2" transform="matrix(0.962455 0.27144 -0.707107 0.707107 169.264 72.9673)" fill="#4E6081"/>
<rect width="250" height="4" rx="2" transform="matrix(0.962455 0.27144 -0.707107 0.707107 155.828 86.4023)" fill="#4E6081"/>
<g clip-path="url(#clip1_363_215)">
<path d="M698.482 280.642C689.862 289.262 673.328 293.692 661.553 290.537L450.583 234.008C438.808 230.853 436.25 221.307 444.87 212.687V212.687C453.49 204.067 470.024 199.637 481.799 202.792L692.769 259.321C704.544 262.476 707.102 272.022 698.482 280.642V280.642Z" fill="#F8B129"/>
<path fill-rule="evenodd" clip-rule="evenodd" d="M380.172 242.035C384.295 245.414 390.943 247.196 398.654 246.987L424.443 246.289C432.154 246.08 440.296 243.898 447.079 240.223L469.761 227.934C476.543 224.259 481.41 219.392 483.291 214.404L489.58 197.722C491.461 192.734 490.201 188.033 486.078 184.653L472.291 173.351C468.168 169.971 461.519 168.19 453.808 168.398L428.02 169.096C420.309 169.305 412.166 171.487 405.384 175.162V175.162C401.177 177.441 400.919 181.12 404.892 182.184L436.044 190.532C439.245 191.389 439.94 193.984 437.597 196.327L414.866 219.058C412.523 221.401 408.029 222.605 404.828 221.748L373.676 213.4C369.703 212.336 364.049 214.569 362.882 217.663V217.663C361.002 222.651 362.261 227.352 366.384 230.732L380.172 242.035Z" fill="#F8B129"/>
</g>
<path d="M490.846 191.988L490.846 180.565L474.347 191.988L490.846 191.988Z" fill="#F8B129"/>
<path d="M703.435 271.312L703.435 258.62L692.013 263.043L692.63 268.235L697.261 271.312L703.435 271.312Z" fill="#F8B129"/>
<path d="M362.754 209.162V222.162L397.74 235.14L454.775 218.323L462.923 180.248L440.36 164.7L402.754 167.662V179.162L442.867 188.18L417.483 214.516L362.754 209.162Z" fill="#F8B129"/>
<g clip-path="url(#clip2_363_215)">
<path d="M698.482 269.219C689.862 277.839 673.328 282.269 661.553 279.114L450.583 222.585C438.808 219.43 436.25 209.884 444.87 201.264V201.264C453.49 192.644 470.024 188.214 481.799 191.369L692.769 247.898C704.544 251.053 707.102 260.599 698.482 269.219V269.219Z" fill="#FCD925"/>
<path fill-rule="evenodd" clip-rule="evenodd" d="M380.172 230.612C384.295 233.991 390.943 235.773 398.654 235.564L424.443 234.866C432.154 234.657 440.296 232.475 447.079 228.801L469.761 216.511C476.543 212.836 481.41 207.969 483.291 202.981L489.58 186.299C491.461 181.311 490.201 176.61 486.078 173.23L472.291 161.928C468.168 158.548 461.519 156.767 453.808 156.975L428.02 157.673C420.309 157.882 412.166 160.064 405.384 163.739V163.739C401.177 166.018 400.919 169.697 404.892 170.762L436.044 179.109C439.245 179.966 439.94 182.561 437.597 184.904L414.866 207.635C412.523 209.978 408.029 211.182 404.828 210.325L373.676 201.978C369.703 200.913 364.049 203.146 362.882 206.24V206.24C361.002 211.229 362.261 215.93 366.384 219.309L380.172 230.612Z" fill="#FCD925"/>
</g>
<mask id="mask1_363_215" style="mask-type:alpha" maskUnits="userSpaceOnUse" x="511" y="216" width="184" height="113">
<path d="M617.18 239.32L615.319 237.092C616.93 235.894 618.249 234.575 619.209 233.202L623.797 232.703C624.323 232.647 624.811 232.37 624.989 232.039C626.122 229.841 626.475 227.673 626.091 225.687C626.03 225.382 625.616 225.201 625.098 225.259L620.51 225.758C620.008 224.542 619.108 223.464 617.852 222.58L620.573 219.859C620.884 219.548 620.86 219.198 620.51 219.02C618.186 217.821 615.318 217.08 612.243 216.805C611.761 216.76 611.194 216.952 610.884 217.262L608.157 219.989C606.039 219.976 603.82 220.218 601.609 220.701L599.755 218.475C599.539 218.221 599.028 218.147 598.507 218.303C595.158 219.281 591.943 220.682 589.124 222.436C588.696 222.7 588.549 223.068 588.765 223.323L590.626 225.55C589.015 226.749 587.696 228.068 586.736 229.441L582.148 229.94C581.622 229.996 581.134 230.272 580.956 230.604C579.823 232.802 579.469 234.97 579.854 236.956C579.914 237.26 580.328 237.442 580.847 237.384L585.435 236.885C585.937 238.101 586.837 239.178 588.093 240.063L585.366 242.79C585.056 243.1 585.079 243.451 585.429 243.629C587.753 244.827 590.622 245.568 593.696 245.844C594.179 245.889 594.745 245.696 595.056 245.386L597.782 242.659C599.901 242.672 602.12 242.43 604.33 241.947L606.192 244.175C606.407 244.429 606.919 244.503 607.439 244.348C610.789 243.369 614.004 241.968 616.823 240.215C617.241 239.94 617.396 239.574 617.18 239.32V239.32ZM598.538 235.751C595.2 234.856 594.471 232.139 596.915 229.695C599.359 227.251 604.066 225.99 607.405 226.884C610.743 227.779 611.471 230.496 609.027 232.94C606.584 235.384 601.876 236.645 598.538 235.751Z" fill="#9AE380"/>
<path d="M680.294 258.472L677.293 254.882C679.89 252.949 682.017 250.823 683.565 248.61L690.961 247.805C691.809 247.715 692.596 247.269 692.883 246.734C694.709 243.191 695.279 239.696 694.659 236.494C694.562 236.003 693.895 235.711 693.059 235.804L685.662 236.609C684.853 234.648 683.402 232.911 681.377 231.485L685.764 227.098C686.264 226.598 686.226 226.033 685.662 225.746C681.916 223.813 677.291 222.619 672.335 222.175C671.557 222.102 670.643 222.412 670.143 222.912L665.747 227.308C662.332 227.288 658.755 227.677 655.191 228.456L652.202 224.868C651.854 224.458 651.029 224.339 650.19 224.59C644.791 226.167 639.607 228.426 635.063 231.253C634.373 231.679 634.136 232.273 634.483 232.683L637.485 236.274C634.887 238.206 632.761 240.332 631.213 242.546L623.816 243.35C622.968 243.44 622.181 243.887 621.894 244.421C620.068 247.965 619.498 251.46 620.118 254.662C620.216 255.152 620.883 255.444 621.719 255.351L629.116 254.547C629.924 256.508 631.375 258.245 633.4 259.671L629.004 264.066C628.504 264.567 628.542 265.132 629.106 265.419C632.853 267.352 637.477 268.545 642.433 268.99C643.212 269.063 644.126 268.752 644.626 268.252L649.021 263.856C652.437 263.877 656.014 263.487 659.577 262.709L662.579 266.3C662.926 266.71 663.751 266.829 664.59 266.578C669.99 265 675.174 262.742 679.718 259.915C680.392 259.473 680.642 258.883 680.294 258.472V258.472ZM650.24 252.719C644.858 251.277 643.684 246.896 647.624 242.956C651.564 239.016 659.152 236.982 664.534 238.424C669.916 239.866 671.09 244.248 667.15 248.188C663.211 252.128 655.622 254.161 650.24 252.719Z" fill="#73EADC"/>
<path d="M601.166 313.317L596.711 307.986C600.567 305.118 603.723 301.962 606.021 298.676L617.002 297.481C618.261 297.348 619.429 296.685 619.855 295.892C622.566 290.631 623.412 285.443 622.492 280.69C622.347 279.961 621.356 279.528 620.115 279.666L609.135 280.861C607.934 277.949 605.78 275.371 602.775 273.254L609.287 266.742C610.029 265.999 609.973 265.16 609.135 264.734C603.574 261.865 596.709 260.093 589.351 259.433C588.196 259.325 586.839 259.786 586.097 260.528L579.571 267.054C574.502 267.024 569.191 267.602 563.901 268.757L559.464 263.431C558.947 262.822 557.723 262.645 556.477 263.018C548.461 265.36 540.767 268.713 534.021 272.909C532.997 273.543 532.644 274.424 533.161 275.033L537.616 280.364C533.76 283.232 530.603 286.388 528.305 289.674L517.325 290.869C516.066 291.002 514.898 291.664 514.472 292.458C511.761 297.719 510.915 302.907 511.835 307.66C511.98 308.388 512.971 308.822 514.212 308.684L525.192 307.489C526.393 310.401 528.546 312.979 531.552 315.096L525.027 321.621C524.284 322.364 524.341 323.203 525.178 323.629C530.74 326.498 537.605 328.271 544.962 328.93C546.118 329.038 547.474 328.578 548.217 327.835L554.742 321.31C559.812 321.34 565.122 320.761 570.413 319.606L574.868 324.937C575.384 325.546 576.609 325.723 577.854 325.35C585.87 323.008 593.565 319.655 600.311 315.459C601.312 314.802 601.683 313.926 601.166 313.317V313.317ZM556.551 304.776C548.561 302.635 546.818 296.131 552.667 290.282C558.516 284.433 569.781 281.415 577.771 283.556C585.761 285.697 587.504 292.201 581.655 298.049C575.806 303.898 564.541 306.917 556.551 304.776Z" fill="#E82929"/>
</mask>
<g mask="url(#mask1_363_215)">
<path d="M698.482 269.219C689.862 277.839 673.328 282.269 661.553 279.114L450.583 222.585C438.808 219.43 436.25 209.884 444.87 201.264V201.264C453.49 192.644 470.024 188.214 481.799 191.369L692.769 247.898C704.544 251.053 707.102 260.599 698.482 269.219V269.219Z" fill="#F8B129"/>
</g>
<path d="M617.344 221.404L615.483 219.177C617.094 217.978 618.413 216.659 619.373 215.286L623.961 214.787C624.487 214.731 624.975 214.455 625.153 214.123C626.286 211.925 626.639 209.757 626.255 207.771C626.194 207.467 625.78 207.285 625.262 207.343L620.674 207.842C620.172 206.626 619.272 205.549 618.016 204.664L620.737 201.943C621.048 201.633 621.024 201.282 620.674 201.104C618.35 199.905 615.482 199.165 612.408 198.889C611.925 198.844 611.358 199.036 611.048 199.347L608.321 202.073C606.203 202.061 603.984 202.302 601.773 202.785L599.919 200.56C599.703 200.305 599.192 200.231 598.671 200.387C595.322 201.366 592.107 202.767 589.288 204.52C588.86 204.785 588.713 205.153 588.929 205.407L590.79 207.635C589.179 208.833 587.86 210.152 586.9 211.525L582.312 212.024C581.786 212.08 581.298 212.357 581.12 212.688C579.987 214.886 579.633 217.054 580.018 219.04C580.079 219.345 580.492 219.526 581.011 219.468L585.599 218.969C586.101 220.185 587.001 221.263 588.257 222.147L585.53 224.874C585.22 225.184 585.243 225.535 585.593 225.713C587.917 226.912 590.786 227.652 593.86 227.928C594.343 227.973 594.909 227.78 595.22 227.47L597.946 224.744C600.065 224.756 602.284 224.514 604.494 224.032L606.356 226.259C606.571 226.514 607.083 226.587 607.604 226.432C610.953 225.453 614.168 224.052 616.987 222.299C617.405 222.025 617.56 221.658 617.344 221.404V221.404ZM598.702 217.835C595.364 216.941 594.635 214.223 597.079 211.779C599.523 209.335 604.23 208.074 607.569 208.968C610.907 209.863 611.635 212.581 609.192 215.025C606.748 217.468 602.041 218.73 598.702 217.835Z" fill="#4E9D32"/>
<path d="M589.068 208.682L580.363 218.969L589.068 216.595L593.223 207.495L603.312 203.538L616.37 207.495L612.215 213.825L599.949 218.969L587.288 221.145L585.507 221.937L585.507 225.102L588.277 225.3L590.651 222.53L613.402 221.343L617.557 221.343L617.557 218.178L616.37 217.98L617.952 203.538L621.118 201.164L621.316 197.998L621.118 197.998L601.334 201.559L589.068 201.559L588.87 204.725L589.859 205.12L589.068 208.682Z" fill="#4E9D32"/>
<path d="M617.461 218.217L615.6 215.989C617.211 214.791 618.53 213.472 619.49 212.099L624.078 211.6C624.604 211.544 625.092 211.267 625.27 210.936C626.403 208.738 626.757 206.57 626.372 204.584C626.312 204.279 625.898 204.098 625.379 204.156L620.791 204.655C620.289 203.439 619.389 202.361 618.134 201.477L620.854 198.756C621.165 198.445 621.141 198.095 620.791 197.917C618.467 196.718 615.599 195.977 612.525 195.702C612.042 195.657 611.475 195.849 611.165 196.159L608.438 198.886C606.32 198.873 604.101 199.115 601.89 199.598L600.036 197.372C599.821 197.118 599.309 197.044 598.789 197.2C595.439 198.178 592.224 199.579 589.405 201.333C588.977 201.597 588.83 201.965 589.046 202.22L590.907 204.447C589.296 205.646 587.977 206.965 587.017 208.338L582.429 208.837C581.903 208.893 581.415 209.169 581.237 209.501C580.104 211.699 579.751 213.867 580.135 215.853C580.196 216.157 580.61 216.339 581.128 216.281L585.716 215.782C586.218 216.998 587.118 218.075 588.374 218.96L585.647 221.686C585.337 221.997 585.361 222.347 585.71 222.526C588.034 223.724 590.903 224.465 593.977 224.741C594.46 224.786 595.027 224.593 595.337 224.283L598.064 221.556C600.182 221.569 602.401 221.327 604.611 220.844L606.473 223.072C606.689 223.326 607.2 223.4 607.721 223.245C611.07 222.266 614.285 220.865 617.104 219.112C617.522 218.837 617.677 218.471 617.461 218.217V218.217ZM598.819 214.648C595.481 213.753 594.753 211.036 597.197 208.592C599.64 206.148 604.348 204.887 607.686 205.781C611.024 206.676 611.753 209.393 609.309 211.837C606.865 214.281 602.158 215.542 598.819 214.648Z" fill="#9AE380"/>
<path d="M680.386 249.611L677.385 246.02C679.982 244.088 682.108 241.961 683.656 239.748L691.053 238.943C691.901 238.853 692.688 238.407 692.975 237.872C694.801 234.329 695.371 230.834 694.751 227.632C694.654 227.141 693.986 226.849 693.15 226.942L685.754 227.747C684.945 225.786 683.494 224.049 681.469 222.623L685.856 218.236C686.356 217.736 686.318 217.171 685.754 216.884C682.008 214.951 677.383 213.757 672.427 213.313C671.649 213.24 670.735 213.55 670.235 214.051L665.839 218.446C662.424 218.426 658.847 218.816 655.283 219.594L652.294 216.006C651.946 215.596 651.121 215.477 650.282 215.728C644.882 217.305 639.699 219.564 635.155 222.391C634.465 222.818 634.227 223.411 634.575 223.821L637.576 227.412C634.979 229.344 632.853 231.471 631.305 233.684L623.908 234.489C623.06 234.579 622.273 235.025 621.986 235.56C620.16 239.103 619.59 242.598 620.21 245.8C620.307 246.291 620.975 246.583 621.811 246.489L629.208 245.685C630.016 247.646 631.467 249.383 633.492 250.809L629.096 255.204C628.596 255.705 628.634 256.27 629.198 256.557C632.944 258.49 637.569 259.684 642.525 260.128C643.304 260.201 644.217 259.89 644.718 259.39L649.113 254.995C652.528 255.015 656.106 254.625 659.669 253.847L662.67 257.438C663.018 257.848 663.843 257.967 664.682 257.716C670.082 256.139 675.265 253.88 679.81 251.053C680.484 250.611 680.734 250.021 680.386 249.611V249.611ZM650.332 243.857C644.95 242.415 643.776 238.034 647.716 234.094C651.655 230.154 659.244 228.12 664.626 229.563C670.008 231.005 671.182 235.386 667.242 239.326C663.302 243.266 655.714 245.299 650.332 243.857Z" fill="#4E6081"/>
<path d="M634.801 229.1L620.768 245.686L634.801 241.858L641.499 227.187L657.765 220.808L678.816 227.187L672.118 237.393L652.343 245.686L631.931 249.194L629.06 250.47L629.06 255.573L633.525 255.892L637.353 251.427L674.032 249.513L680.729 249.513L680.729 244.41L678.816 244.091L681.367 220.808L686.471 216.98L686.789 211.877L686.471 211.877L654.576 217.618L634.801 217.618L634.482 222.721L636.077 223.359L634.801 229.1Z" fill="#4E6081"/>
<path d="M680.575 244.472L677.574 240.882C680.172 238.949 682.298 236.823 683.846 234.61L691.243 233.805C692.091 233.715 692.877 233.269 693.165 232.734C694.99 229.191 695.561 225.696 694.941 222.494C694.843 222.003 694.176 221.711 693.34 221.804L685.943 222.609C685.134 220.648 683.683 218.911 681.659 217.485L686.045 213.098C686.546 212.598 686.507 212.033 685.943 211.746C682.197 209.813 677.573 208.619 672.616 208.175C671.838 208.102 670.924 208.412 670.424 208.912L666.028 213.308C662.613 213.288 659.036 213.677 655.472 214.456L652.483 210.868C652.135 210.458 651.311 210.339 650.472 210.59C645.072 212.167 639.888 214.426 635.344 217.253C634.654 217.679 634.417 218.273 634.765 218.683L637.766 222.274C635.168 224.206 633.042 226.332 631.494 228.546L624.097 229.35C623.249 229.44 622.463 229.887 622.175 230.421C620.35 233.965 619.779 237.46 620.399 240.662C620.497 241.152 621.164 241.444 622 241.351L629.397 240.547C630.206 242.508 631.657 244.245 633.681 245.671L629.286 250.066C628.785 250.567 628.824 251.132 629.388 251.419C633.134 253.352 637.758 254.545 642.715 254.99C643.493 255.063 644.407 254.752 644.907 254.252L649.303 249.856C652.718 249.877 656.295 249.487 659.859 248.709L662.86 252.3C663.208 252.71 664.033 252.829 664.872 252.578C670.271 251 675.455 248.742 679.999 245.915C680.673 245.473 680.923 244.883 680.575 244.472V244.472ZM650.521 238.719C645.139 237.277 643.965 232.896 647.905 228.956C651.845 225.016 659.434 222.982 664.816 224.424C670.198 225.866 671.372 230.248 667.432 234.188C663.492 238.128 655.903 240.161 650.521 238.719Z" fill="#73EADC"/>
<path d="M602 290.258L597.956 285.42C601.456 282.818 604.32 279.953 606.406 276.971L616.37 275.887C617.513 275.766 618.573 275.165 618.96 274.444C621.42 269.671 622.188 264.962 621.352 260.649C621.221 259.988 620.322 259.594 619.196 259.72L609.231 260.804C608.141 258.162 606.187 255.822 603.459 253.901L609.369 247.991C610.043 247.317 609.991 246.555 609.232 246.169C604.185 243.565 597.954 241.957 591.278 241.358C590.229 241.26 588.998 241.678 588.324 242.352L582.402 248.274C577.801 248.247 572.982 248.771 568.181 249.82L564.154 244.987C563.686 244.434 562.575 244.273 561.444 244.612C554.17 246.737 547.187 249.78 541.065 253.588C540.135 254.163 539.815 254.962 540.284 255.515L544.327 260.353C540.828 262.956 537.963 265.82 535.878 268.802L525.913 269.886C524.771 270.007 523.711 270.608 523.324 271.329C520.864 276.103 520.096 280.811 520.931 285.125C521.063 285.785 521.962 286.179 523.088 286.053L533.053 284.969C534.142 287.611 536.097 289.951 538.824 291.872L532.903 297.794C532.229 298.468 532.28 299.23 533.04 299.616C538.087 302.22 544.317 303.828 550.994 304.427C552.043 304.525 553.274 304.107 553.948 303.433L559.869 297.511C564.47 297.539 569.289 297.014 574.09 295.965L578.134 300.803C578.602 301.356 579.713 301.516 580.844 301.178C588.118 299.053 595.101 296.01 601.223 292.202C602.132 291.606 602.468 290.811 602 290.258V290.258ZM561.511 282.507C554.26 280.564 552.679 274.662 557.986 269.354C563.294 264.046 573.518 261.307 580.768 263.25C588.019 265.192 589.601 271.095 584.293 276.403C578.985 281.711 568.762 284.45 561.511 282.507Z" fill="#8C3434"/>
<path d="M540.528 263.254L521.732 285.467L540.528 280.341L549.499 260.691L571.285 252.147L599.479 260.691L590.509 274.361L564.023 285.467L536.684 290.166L532.839 291.875L532.839 298.71L538.82 299.137L543.946 293.157L593.072 290.594L602.042 290.594L602.042 283.759L599.479 283.332L602.897 252.147L609.732 247.021L610.159 240.186L609.732 240.186L567.014 247.876L540.528 247.876L540.101 254.71L542.237 255.565L540.528 263.254Z" fill="#8C3434"/>
<path d="M602.255 283.336L598.212 278.498C601.712 275.895 604.576 273.031 606.661 270.049L616.626 268.965C617.769 268.844 618.829 268.242 619.216 267.522C621.675 262.748 622.444 258.04 621.608 253.726C621.477 253.065 620.578 252.672 619.452 252.797L609.487 253.882C608.397 251.239 606.443 248.9 603.715 246.978L609.625 241.069C610.299 240.395 610.247 239.633 609.487 239.246C604.44 236.643 598.21 235.034 591.533 234.436C590.485 234.338 589.254 234.756 588.58 235.43L582.658 241.351C578.057 241.324 573.238 241.849 568.437 242.898L564.41 238.064C563.942 237.511 562.83 237.351 561.7 237.689C554.426 239.815 547.443 242.858 541.321 246.665C540.391 247.24 540.071 248.04 540.54 248.593L544.583 253.43C541.084 256.033 538.219 258.898 536.134 261.88L526.169 262.964C525.026 263.085 523.967 263.686 523.58 264.406C521.12 269.18 520.352 273.888 521.187 278.202C521.318 278.863 522.217 279.257 523.344 279.131L533.309 278.047C534.398 280.689 536.353 283.029 539.08 284.95L533.159 290.872C532.485 291.546 532.536 292.307 533.296 292.694C538.343 295.298 544.573 296.906 551.25 297.505C552.299 297.603 553.53 297.185 554.204 296.511L560.125 290.589C564.726 290.616 569.545 290.091 574.346 289.043L578.389 293.88C578.858 294.433 579.969 294.594 581.1 294.256C588.374 292.13 595.357 289.087 601.479 285.279C602.388 284.684 602.724 283.889 602.255 283.336V283.336ZM561.767 275.585C554.516 273.642 552.934 267.739 558.242 262.432C563.55 257.124 573.774 254.384 581.024 256.327C588.275 258.27 589.856 264.172 584.549 269.48C579.241 274.788 569.017 277.528 561.767 275.585Z" fill="#E82929"/>
<rect width="250" height="4" rx="2" transform="matrix(0.962455 0.27144 -0.707107 0.707107 119.568 124.662)" fill="#4E6081"/>
<rect width="250" height="4" rx="2" transform="matrix(0.962455 0.27144 -0.707107 0.707107 106.134 138.097)" fill="#4E6081"/>
<rect width="250" height="4" rx="2" transform="matrix(0.962455 0.27144 -0.707107 0.707107 92.6982 151.532)" fill="#4E6081"/>
<rect width="250" height="4" rx="2" transform="matrix(0.962455 0.27144 -0.707107 0.707107 79.2637 164.967)" fill="#4E6081"/>
<rect width="250" height="4" rx="2" transform="matrix(0.962455 0.27144 -0.707107 0.707107 65.8281 178.402)" fill="#4E6081"/>
<defs>
<filter id="filter0_f_363_215" x="319.253" y="153.452" width="441.729" height="212.248" filterUnits="userSpaceOnUse" color-interpolation-filters="sRGB">
<feFlood flood-opacity="0" result="BackgroundImageFix"/>
<feBlend mode="normal" in="SourceGraphic" in2="BackgroundImageFix" result="shape"/>
<feGaussianBlur stdDeviation="12.5" result="effect1_foregroundBlur_363_215"/>
</filter>
<filter id="filter1_f_363_215" x="461.823" y="87.9749" width="266.084" height="146.208" filterUnits="userSpaceOnUse" color-interpolation-filters="sRGB">
<feFlood flood-opacity="0" result="BackgroundImageFix"/>
<feBlend mode="normal" in="SourceGraphic" in2="BackgroundImageFix" result="shape"/>
<feGaussianBlur stdDeviation="12.5" result="effect1_foregroundBlur_363_215"/>
</filter>
<filter id="filter2_f_363_215" x="125.795" y="14.302" width="403.573" height="239.681" filterUnits="userSpaceOnUse" color-interpolation-filters="sRGB">
<feFlood flood-opacity="0" result="BackgroundImageFix"/>
<feBlend mode="normal" in="SourceGraphic" in2="BackgroundImageFix" result="shape"/>
<feGaussianBlur stdDeviation="12.5" result="effect1_foregroundBlur_363_215"/>
</filter>
<clipPath id="clip0_363_215">
<rect width="324.537" height="110.664" fill="white" transform="matrix(0.965926 0.258819 -0.707107 0.707107 422.504 178.452)"/>
</clipPath>
<clipPath id="clip1_363_215">
<rect width="324.537" height="110.664" fill="white" transform="matrix(0.965926 0.258819 -0.707107 0.707107 422.505 157.085)"/>
</clipPath>
<clipPath id="clip2_363_215">
<rect width="324.537" height="110.664" fill="white" transform="matrix(0.965926 0.258819 -0.707107 0.707107 422.505 145.662)"/>
</clipPath>
</defs>
</svg>
