<svg width="490" height="215" viewBox="0 0 490 215" fill="none" xmlns="http://www.w3.org/2000/svg">
<path d="M201.517 56.6644C211.28 46.9013 229.967 42.0249 243.256 45.7727L464.931 108.291C478.22 112.039 481.078 122.992 471.315 132.755L446.133 157.937C436.37 167.7 417.683 172.576 404.394 168.828L182.719 106.31C169.431 102.562 166.572 91.6091 176.336 81.8459L201.517 56.6644Z" fill="#F48F6E"/>
<mask id="mask0_320_1423" style="mask-type:alpha" maskUnits="userSpaceOnUse" x="170" y="44" width="308" height="127">
<path d="M201.504 56.6589C211.268 46.8957 229.955 42.0194 243.244 45.7672L465.116 108.342C478.405 112.09 481.263 123.042 471.5 132.806L446.312 157.994C436.549 167.757 417.862 172.633 404.573 168.885L182.7 106.311C169.411 102.563 166.553 91.6102 176.316 81.8471L201.504 56.6589Z" fill="white"/>
</mask>
<g mask="url(#mask0_320_1423)">
<g clip-path="url(#clip0_320_1423)" filter="url(#filter0_f_320_1423)">
<path d="M443.364 191.744C437.885 197.223 427.377 200.038 419.892 198.033L285.802 162.104C278.317 160.098 276.692 154.031 282.17 148.552C287.649 143.073 298.158 140.258 305.642 142.263L439.733 178.192C447.217 180.198 448.843 186.265 443.364 191.744Z" fill="#101010" fill-opacity="0.1"/>
<path fill-rule="evenodd" clip-rule="evenodd" d="M238.702 165.282C242.825 168.662 249.473 170.443 257.184 170.234L264.798 170.028C272.509 169.819 280.652 167.638 287.434 163.963L294.13 160.335C300.913 156.66 305.78 151.793 307.66 146.805L309.517 141.88C311.398 136.891 310.138 132.19 306.015 128.811L301.945 125.474C297.822 122.094 291.174 120.313 283.463 120.522L275.849 120.728C268.138 120.936 259.996 123.118 253.213 126.793C252.377 127.246 252.326 127.977 253.115 128.189L274.448 133.905C277.649 134.762 278.344 137.357 276.001 139.7L264.646 151.056C262.303 153.399 257.808 154.603 254.608 153.745L233.275 148.029C232.485 147.818 231.362 148.261 231.13 148.876C229.249 153.864 230.509 158.565 234.632 161.945L238.702 165.282Z" fill="#101010" fill-opacity="0.1"/>
</g>
<g filter="url(#filter1_f_320_1423)">
<path d="M318.817 85.6182C328.501 75.9349 347.035 71.0984 360.215 74.8156L460.683 103.15C473.863 106.868 476.698 117.731 467.014 127.414C457.331 137.097 438.797 141.934 425.617 138.217L325.149 109.882C311.969 106.165 309.134 95.3015 318.817 85.6182Z" fill="black" fill-opacity="0.1"/>
</g>
<g filter="url(#filter2_f_320_1423)">
<path d="M153.518 38.937C163.281 29.1738 181.968 24.2975 195.257 28.0453L303.477 58.5663C316.765 62.3141 319.623 73.2669 309.86 83.03L261.728 131.162C251.965 140.925 233.278 145.802 219.989 142.054L111.77 111.533C98.4808 107.785 95.6227 96.8324 105.386 87.0693L153.518 38.937Z" fill="black" fill-opacity="0.1"/>
</g>
</g>
<path d="M319.457 75.44C328.785 66.1126 346.638 61.4539 359.334 65.0344L465.327 94.9277C478.023 98.5083 480.753 108.972 471.426 118.3C462.099 127.627 444.245 132.286 431.55 128.705L325.556 98.8119C312.861 95.2314 310.13 84.7674 319.457 75.44Z" fill="#B7B6EE"/>
<path d="M344.343 71.5303C344.84 71.0338 345.79 70.7859 346.465 70.9764L426.602 93.5773C427.278 93.7678 427.423 94.3247 426.926 94.8212C426.43 95.3176 425.48 95.5656 424.804 95.375L344.668 72.7742C343.992 72.5836 343.847 72.0267 344.343 71.5303Z" fill="#4E6081"/>
<path d="M337.152 78.7212C337.649 78.2247 338.599 77.9768 339.275 78.1673L419.411 100.768C420.087 100.959 420.232 101.516 419.736 102.012C419.239 102.509 418.289 102.756 417.613 102.566L337.477 79.9651C336.801 79.7745 336.656 79.2176 337.152 78.7212Z" fill="#4E6081"/>
<path d="M329.961 85.9121C330.458 85.4156 331.408 85.1677 332.084 85.3582L412.22 107.959C412.896 108.15 413.041 108.707 412.545 109.203C412.048 109.699 411.098 109.947 410.422 109.757L330.286 87.156C329.61 86.9654 329.465 86.4085 329.961 85.9121Z" fill="#4E6081"/>
<path d="M107.433 17.6777C117.196 7.91457 135.883 3.0382 149.172 6.78601L301.46 49.7355C314.748 53.4833 317.606 64.436 307.843 74.1992L218.088 163.955C208.325 173.718 189.637 178.594 176.349 174.846L24.0613 131.897C10.7725 128.149 7.91446 117.196 17.6776 107.433L107.433 17.6777Z" fill="#87EFE3"/>
<g clip-path="url(#clip1_320_1423)">
<path d="M443.366 178.163C437.887 183.642 427.378 186.458 419.894 184.452L285.803 148.523C278.319 146.517 276.693 140.45 282.172 134.971C287.651 129.493 298.159 126.677 305.644 128.682L439.735 164.612C447.219 166.617 448.844 172.684 443.366 178.163Z" fill="#F8B129"/>
<path fill-rule="evenodd" clip-rule="evenodd" d="M238.704 151.701C242.827 155.081 249.475 156.862 257.186 156.654L264.799 156.447C272.511 156.239 280.653 154.057 287.435 150.382L294.132 146.754C300.914 143.079 305.781 138.212 307.662 133.224L309.519 128.299C311.399 123.311 310.14 118.61 306.017 115.23L301.946 111.893C297.823 108.514 291.175 106.732 283.464 106.941L275.851 107.147C268.139 107.356 259.997 109.537 253.215 113.212C252.379 113.665 252.327 114.396 253.117 114.608L274.45 120.324C277.651 121.182 278.346 123.776 276.003 126.12L264.647 137.475C262.304 139.818 257.81 141.022 254.609 140.165L233.276 134.448C232.487 134.237 231.363 134.681 231.131 135.296C229.251 140.284 230.51 144.985 234.633 148.364L238.704 151.701Z" fill="#F8B129"/>
</g>
<path d="M311.393 121.815L311.393 114.555L300.906 121.815L311.393 121.815Z" fill="#F8B129"/>
<path d="M446.514 172.233L446.514 164.167L439.254 166.978L439.646 170.278L442.59 172.233L446.514 172.233Z" fill="#F8B129"/>
<path d="M229.979 132.731V140.994L252.216 149.243L288.467 138.554L293.646 114.353L279.305 104.472L255.403 106.354V113.664L280.898 119.395L264.764 136.134L229.979 132.731Z" fill="#F8B129"/>
<g clip-path="url(#clip2_320_1423)">
<path d="M443.366 170.903C437.887 176.382 427.378 179.198 419.894 177.192L285.803 141.263C278.319 139.257 276.693 133.19 282.172 127.711C287.651 122.233 298.159 119.417 305.644 121.422L439.735 157.352C447.219 159.357 448.844 165.424 443.366 170.903Z" fill="#FCD925"/>
<path fill-rule="evenodd" clip-rule="evenodd" d="M238.704 144.441C242.827 147.821 249.475 149.602 257.186 149.393L264.799 149.187C272.511 148.979 280.653 146.797 287.435 143.122L294.132 139.494C300.914 135.819 305.781 130.952 307.662 125.964L309.519 121.039C311.399 116.051 310.14 111.35 306.017 107.97L301.946 104.633C297.823 101.253 291.175 99.472 283.464 99.6808L275.851 99.8869C268.139 100.096 259.997 102.277 253.215 105.952C252.379 106.405 252.327 107.136 253.117 107.348L274.45 113.064C277.651 113.922 278.346 116.516 276.003 118.859L264.647 130.215C262.304 132.558 257.81 133.762 254.609 132.904L233.276 127.188C232.487 126.977 231.363 127.42 231.131 128.035C229.251 133.024 230.51 137.725 234.633 141.104L238.704 144.441Z" fill="#FCD925"/>
</g>
<mask id="mask1_320_1423" style="mask-type:alpha" maskUnits="userSpaceOnUse" x="324" y="137" width="118" height="72">
<path d="M391.69 151.899L390.507 150.483C391.531 149.722 392.369 148.883 392.979 148.011L395.895 147.694C396.23 147.658 396.54 147.482 396.653 147.271C397.373 145.874 397.598 144.496 397.353 143.234C397.315 143.041 397.052 142.925 396.722 142.962L393.806 143.279C393.487 142.506 392.915 141.822 392.117 141.259L393.846 139.53C394.044 139.333 394.029 139.11 393.806 138.997C392.329 138.235 390.506 137.764 388.552 137.589C388.245 137.56 387.885 137.682 387.688 137.88L385.955 139.613C384.608 139.605 383.198 139.758 381.793 140.065L380.615 138.651C380.478 138.489 380.152 138.442 379.822 138.541C377.693 139.163 375.649 140.053 373.858 141.168C373.586 141.336 373.492 141.57 373.629 141.732L374.812 143.147C373.788 143.909 372.95 144.747 372.34 145.62L369.424 145.937C369.089 145.973 368.779 146.149 368.666 146.36C367.946 147.757 367.721 149.134 367.966 150.397C368.004 150.59 368.267 150.705 368.597 150.669L371.513 150.351C371.832 151.125 372.404 151.809 373.202 152.372L371.469 154.104C371.272 154.302 371.287 154.525 371.509 154.638C372.986 155.4 374.809 155.87 376.763 156.046C377.07 156.074 377.431 155.952 377.628 155.755L379.361 154.022C380.707 154.03 382.117 153.876 383.522 153.569L384.706 154.985C384.843 155.147 385.168 155.194 385.499 155.095C387.628 154.473 389.671 153.582 391.463 152.468C391.729 152.294 391.827 152.061 391.69 151.899ZM379.841 149.631C377.719 149.062 377.256 147.335 378.81 145.782C380.363 144.228 383.355 143.427 385.477 143.995C387.599 144.564 388.061 146.291 386.508 147.844C384.955 149.398 381.963 150.199 379.841 149.631Z" fill="#9AE380"/>
<path d="M431.805 164.072L429.897 161.79C431.548 160.562 432.9 159.21 433.883 157.804L438.585 157.292C439.124 157.235 439.624 156.951 439.806 156.612C440.967 154.359 441.329 152.138 440.935 150.103C440.873 149.791 440.449 149.605 439.918 149.665L435.216 150.176C434.702 148.93 433.78 147.826 432.493 146.919L435.281 144.131C435.599 143.813 435.575 143.454 435.217 143.271C432.835 142.043 429.896 141.284 426.746 141.002C426.251 140.956 425.671 141.153 425.353 141.471L422.559 144.264C420.388 144.252 418.114 144.499 415.849 144.994L413.95 142.714C413.729 142.453 413.204 142.377 412.671 142.537C409.239 143.539 405.944 144.975 403.056 146.772C402.618 147.043 402.467 147.42 402.688 147.681L404.595 149.963C402.944 151.191 401.593 152.543 400.609 153.949L395.908 154.461C395.369 154.518 394.869 154.802 394.686 155.142C393.526 157.394 393.163 159.615 393.557 161.65C393.619 161.962 394.043 162.148 394.575 162.089L399.276 161.577C399.79 162.824 400.712 163.927 401.999 164.834L399.205 167.628C398.887 167.946 398.912 168.305 399.27 168.487C401.651 169.716 404.591 170.475 407.741 170.757C408.235 170.803 408.816 170.606 409.134 170.288L411.928 167.494C414.099 167.507 416.372 167.26 418.637 166.765L420.545 169.047C420.766 169.308 421.29 169.384 421.824 169.224C425.256 168.221 428.55 166.786 431.438 164.989C431.867 164.708 432.026 164.333 431.805 164.072ZM412.702 160.415C409.282 159.499 408.535 156.714 411.04 154.21C413.544 151.706 418.367 150.413 421.788 151.33C425.209 152.247 425.955 155.031 423.451 157.535C420.947 160.04 416.123 161.332 412.702 160.415Z" fill="#73EADC"/>
<path d="M381.512 198.931L378.68 195.543C381.131 193.72 383.137 191.714 384.597 189.625L391.577 188.866C392.377 188.781 393.119 188.36 393.39 187.856C395.113 184.512 395.651 181.215 395.066 178.193C394.974 177.731 394.344 177.455 393.555 177.543L386.576 178.302C385.813 176.452 384.444 174.813 382.534 173.467L386.673 169.328C387.145 168.856 387.109 168.323 386.577 168.052C383.042 166.229 378.678 165.102 374.002 164.683C373.268 164.614 372.405 164.907 371.933 165.379L367.786 169.526C364.564 169.507 361.188 169.875 357.826 170.609L355.006 167.224C354.678 166.837 353.899 166.725 353.108 166.962C348.013 168.45 343.122 170.581 338.834 173.248C338.183 173.651 337.959 174.211 338.288 174.598L341.119 177.986C338.669 179.809 336.662 181.815 335.202 183.904L328.223 184.663C327.422 184.748 326.68 185.169 326.409 185.674C324.686 189.017 324.148 192.314 324.733 195.336C324.825 195.799 325.455 196.074 326.244 195.986L333.223 195.227C333.986 197.077 335.355 198.716 337.265 200.062L333.118 204.209C332.646 204.681 332.682 205.215 333.214 205.485C336.749 207.309 341.112 208.435 345.789 208.855C346.523 208.923 347.385 208.631 347.857 208.159L352.005 204.011C355.227 204.03 358.602 203.663 361.965 202.928L364.796 206.316C365.125 206.704 365.903 206.816 366.695 206.579C371.79 205.091 376.68 202.959 380.968 200.292C381.604 199.875 381.84 199.318 381.512 198.931ZM353.154 193.503C348.076 192.142 346.968 188.008 350.686 184.29C354.403 180.573 361.564 178.654 366.642 180.015C371.72 181.376 372.828 185.51 369.11 189.227C365.393 192.945 358.232 194.863 353.154 193.503Z" fill="#E82929"/>
</mask>
<g mask="url(#mask1_320_1423)">
<path d="M443.365 170.903C437.886 176.382 427.377 179.198 419.893 177.192L285.802 141.263C278.318 139.257 276.692 133.19 282.171 127.711C287.65 122.232 298.158 119.417 305.643 121.422L439.734 157.352C447.218 159.357 448.843 165.424 443.365 170.903Z" fill="#F8B129"/>
</g>
<path d="M391.793 140.512L390.61 139.096C391.634 138.335 392.473 137.496 393.083 136.624L395.999 136.307C396.333 136.271 396.644 136.095 396.757 135.884C397.477 134.487 397.701 133.11 397.457 131.847C397.418 131.654 397.155 131.539 396.826 131.575L393.91 131.893C393.591 131.119 393.019 130.435 392.221 129.872L393.95 128.143C394.147 127.946 394.132 127.723 393.91 127.61C392.433 126.848 390.61 126.377 388.656 126.202C388.349 126.173 387.989 126.295 387.791 126.493L386.058 128.226C384.712 128.218 383.302 128.371 381.897 128.678L380.718 127.264C380.581 127.102 380.256 127.055 379.925 127.154C377.796 127.776 375.753 128.666 373.961 129.781C373.689 129.949 373.596 130.183 373.733 130.345L374.916 131.76C373.892 132.522 373.054 133.361 372.443 134.233L369.527 134.55C369.193 134.586 368.883 134.762 368.769 134.973C368.05 136.37 367.825 137.747 368.069 139.01C368.108 139.203 368.371 139.318 368.7 139.282L371.616 138.964C371.935 139.738 372.507 140.422 373.306 140.985L371.573 142.718C371.375 142.915 371.39 143.138 371.613 143.251C373.09 144.013 374.913 144.483 376.867 144.659C377.174 144.687 377.534 144.565 377.731 144.368L379.464 142.635C380.811 142.643 382.221 142.489 383.626 142.182L384.809 143.598C384.946 143.76 385.271 143.807 385.602 143.708C387.731 143.086 389.775 142.195 391.566 141.081C391.832 140.907 391.931 140.674 391.793 140.512ZM379.945 138.244C377.823 137.675 377.36 135.948 378.913 134.395C380.467 132.841 383.458 132.04 385.58 132.608C387.702 133.177 388.165 134.904 386.612 136.457C385.058 138.011 382.066 138.812 379.945 138.244Z" fill="#4E9D32"/>
<path d="M373.821 132.426L368.289 138.965L373.821 137.456L376.462 131.671L382.875 129.157L391.174 131.671L388.533 135.695L380.737 138.965L372.69 140.348L371.558 140.851L371.558 142.863L373.318 142.988L374.827 141.228L389.288 140.474L391.928 140.474L391.928 138.462L391.174 138.336L392.18 129.157L394.192 127.648L394.318 125.636L394.192 125.636L381.617 127.899L373.821 127.899L373.696 129.911L374.324 130.163L373.821 132.426Z" fill="#4E9D32"/>
<path d="M391.868 138.486L390.685 137.071C391.709 136.309 392.547 135.471 393.158 134.598L396.074 134.281C396.408 134.245 396.718 134.069 396.831 133.859C397.551 132.462 397.776 131.084 397.532 129.821C397.493 129.628 397.23 129.513 396.901 129.55L393.984 129.867C393.666 129.094 393.093 128.409 392.295 127.847L394.025 126.117C394.222 125.92 394.207 125.697 393.985 125.584C392.508 124.822 390.684 124.351 388.73 124.176C388.423 124.147 388.063 124.27 387.866 124.467L386.133 126.2C384.787 126.192 383.376 126.346 381.971 126.652L380.793 125.238C380.656 125.076 380.331 125.029 380 125.128C377.871 125.75 375.827 126.641 374.036 127.755C373.764 127.923 373.67 128.157 373.807 128.319L374.991 129.735C373.967 130.496 373.128 131.335 372.518 132.207L369.602 132.525C369.267 132.56 368.957 132.736 368.844 132.947C368.124 134.344 367.899 135.722 368.144 136.984C368.182 137.177 368.445 137.293 368.775 137.256L371.691 136.939C372.01 137.712 372.582 138.397 373.38 138.959L371.647 140.692C371.45 140.889 371.465 141.112 371.687 141.225C373.164 141.987 374.988 142.458 376.942 142.633C377.249 142.662 377.609 142.539 377.806 142.342L379.539 140.609C380.885 140.617 382.296 140.463 383.701 140.157L384.884 141.572C385.021 141.734 385.346 141.781 385.677 141.682C387.806 141.06 389.849 140.17 391.641 139.055C391.907 138.881 392.005 138.648 391.868 138.486ZM380.019 136.218C377.897 135.65 377.435 133.922 378.988 132.369C380.541 130.816 383.533 130.014 385.655 130.583C387.777 131.151 388.24 132.878 386.686 134.432C385.133 135.985 382.141 136.787 380.019 136.218Z" fill="#9AE380"/>
<path d="M431.863 158.44L429.955 156.158C431.606 154.93 432.958 153.578 433.941 152.171L438.643 151.66C439.182 151.603 439.682 151.319 439.864 150.979C441.025 148.727 441.387 146.506 440.993 144.47C440.931 144.159 440.507 143.973 439.976 144.032L435.274 144.544C434.76 143.297 433.838 142.193 432.551 141.287L435.34 138.499C435.658 138.181 435.633 137.821 435.275 137.639C432.894 136.411 429.954 135.652 426.804 135.369C426.309 135.323 425.729 135.52 425.411 135.838L422.617 138.632C420.446 138.619 418.173 138.867 415.908 139.362L414.008 137.081C413.787 136.821 413.262 136.745 412.729 136.904C409.297 137.907 406.003 139.343 403.114 141.139C402.676 141.411 402.525 141.788 402.746 142.049L404.653 144.331C403.003 145.559 401.651 146.91 400.667 148.317L395.966 148.829C395.427 148.886 394.927 149.169 394.744 149.509C393.584 151.762 393.221 153.983 393.615 156.018C393.677 156.33 394.102 156.515 394.633 156.456L399.334 155.945C399.848 157.191 400.77 158.295 402.057 159.202L399.264 161.995C398.946 162.313 398.97 162.673 399.328 162.855C401.709 164.084 404.649 164.842 407.799 165.125C408.294 165.171 408.874 164.974 409.192 164.656L411.986 161.862C414.157 161.875 416.43 161.627 418.695 161.133L420.603 163.415C420.824 163.676 421.348 163.751 421.882 163.592C425.314 162.589 428.608 161.153 431.496 159.357C431.925 159.076 432.084 158.701 431.863 158.44ZM412.761 154.783C409.34 153.867 408.594 151.082 411.098 148.578C413.602 146.073 418.425 144.781 421.846 145.698C425.267 146.614 426.013 149.399 423.509 151.903C421.005 154.407 416.181 155.7 412.761 154.783Z" fill="#4E6081"/>
<path d="M402.89 145.404L393.97 155.945L402.89 153.513L407.147 144.187L417.486 140.133L430.865 144.187L426.608 150.674L414.039 155.945L401.065 158.175L399.241 158.986L399.241 162.229L402.079 162.432L404.512 159.594L427.824 158.378L432.082 158.378L432.082 155.134L430.865 154.932L432.487 140.133L435.73 137.7L435.933 134.457L435.73 134.457L415.459 138.106L402.89 138.106L402.687 141.349L403.701 141.755L402.89 145.404Z" fill="#4E6081"/>
<path d="M431.984 155.174L430.076 152.892C431.727 151.664 433.079 150.312 434.063 148.906L438.764 148.394C439.303 148.337 439.803 148.053 439.986 147.713C441.146 145.461 441.508 143.24 441.114 141.205C441.052 140.893 440.628 140.707 440.097 140.767L435.396 141.278C434.882 140.031 433.959 138.928 432.672 138.021L435.461 135.233C435.779 134.915 435.754 134.556 435.396 134.373C433.015 133.145 430.075 132.386 426.925 132.104C426.431 132.057 425.85 132.255 425.532 132.573L422.738 135.366C420.567 135.354 418.294 135.601 416.029 136.096L414.129 133.816C413.908 133.555 413.383 133.479 412.85 133.639C409.418 134.641 406.124 136.077 403.235 137.873C402.797 138.145 402.646 138.522 402.867 138.783L404.775 141.065C403.124 142.293 401.772 143.645 400.788 145.051L396.087 145.563C395.548 145.62 395.048 145.904 394.865 146.244C393.705 148.496 393.342 150.717 393.737 152.752C393.799 153.064 394.223 153.25 394.754 153.19L399.455 152.679C399.969 153.926 400.892 155.029 402.178 155.936L399.385 158.73C399.067 159.048 399.091 159.407 399.449 159.589C401.831 160.818 404.77 161.577 407.92 161.859C408.415 161.905 408.995 161.708 409.313 161.39L412.107 158.596C414.278 158.609 416.552 158.362 418.817 157.867L420.724 160.149C420.945 160.41 421.469 160.486 422.003 160.326C425.435 159.323 428.729 157.888 431.618 156.091C432.046 155.81 432.205 155.435 431.984 155.174ZM412.882 151.517C409.461 150.601 408.715 147.816 411.219 145.312C413.723 142.808 418.546 141.515 421.967 142.432C425.388 143.348 426.134 146.133 423.63 148.637C421.126 151.142 416.302 152.434 412.882 151.517Z" fill="#73EADC"/>
<path d="M382.041 184.275L379.471 181.2C381.696 179.546 383.516 177.725 384.842 175.83L391.175 175.141C391.902 175.064 392.575 174.682 392.821 174.224C394.384 171.19 394.873 168.197 394.342 165.456C394.258 165.036 393.687 164.785 392.971 164.865L386.637 165.554C385.945 163.875 384.703 162.388 382.969 161.167L386.725 157.411C387.153 156.982 387.121 156.498 386.638 156.252C383.43 154.597 379.47 153.575 375.226 153.195C374.56 153.132 373.777 153.398 373.349 153.827L369.585 157.59C366.661 157.573 363.598 157.907 360.547 158.573L357.987 155.501C357.689 155.15 356.983 155.048 356.265 155.263C351.641 156.613 347.203 158.548 343.312 160.968C342.721 161.333 342.517 161.841 342.815 162.193L345.385 165.268C343.161 166.922 341.34 168.743 340.015 170.638L333.681 171.327C332.955 171.404 332.281 171.786 332.036 172.244C330.472 175.278 329.984 178.271 330.515 181.012C330.598 181.432 331.17 181.682 331.886 181.603L338.219 180.914C338.912 182.593 340.154 184.08 341.888 185.301L338.124 189.065C337.695 189.493 337.728 189.977 338.211 190.223C341.419 191.878 345.379 192.9 349.623 193.281C350.289 193.343 351.071 193.077 351.5 192.649L355.264 188.885C358.188 188.903 361.251 188.569 364.302 187.903L366.872 190.977C367.17 191.329 367.876 191.431 368.595 191.216C373.218 189.865 377.657 187.931 381.548 185.511C382.125 185.132 382.339 184.627 382.041 184.275ZM356.307 179.349C351.698 178.114 350.693 174.362 354.067 170.989C357.44 167.615 363.938 165.874 368.547 167.109C373.155 168.344 374.161 172.095 370.787 175.469C367.413 178.842 360.915 180.584 356.307 179.349Z" fill="#8C3434"/>
<path d="M342.971 167.112L331.024 181.23L342.971 177.972L348.673 165.482L362.52 160.052L380.44 165.482L374.738 174.171L357.904 181.23L340.527 184.217L338.084 185.303L338.084 189.647L341.885 189.919L345.143 186.117L376.367 184.488L382.069 184.488L382.069 180.144L380.44 179.873L382.612 160.052L386.956 156.794L387.228 152.45L386.956 152.45L359.805 157.337L342.971 157.337L342.699 161.681L344.057 162.224L342.971 167.112Z" fill="#8C3434"/>
<path d="M382.203 179.875L379.634 176.801C381.858 175.146 383.678 173.326 385.004 171.43L391.337 170.741C392.064 170.664 392.737 170.282 392.983 169.824C394.547 166.79 395.035 163.798 394.504 161.056C394.42 160.636 393.849 160.386 393.133 160.465L386.8 161.155C386.107 159.475 384.865 157.988 383.131 156.767L386.887 153.011C387.316 152.582 387.283 152.098 386.8 151.853C383.592 150.198 379.632 149.175 375.389 148.795C374.722 148.733 373.94 148.998 373.511 149.427L369.747 153.19C366.823 153.173 363.76 153.507 360.709 154.173L358.149 151.101C357.851 150.75 357.145 150.648 356.427 150.863C351.803 152.214 347.365 154.148 343.474 156.568C342.883 156.934 342.68 157.442 342.977 157.793L345.547 160.868C343.323 162.522 341.502 164.343 340.177 166.238L333.843 166.927C333.117 167.004 332.444 167.386 332.198 167.844C330.634 170.878 330.146 173.871 330.677 176.613C330.76 177.033 331.332 177.283 332.048 177.203L338.381 176.514C339.074 178.193 340.316 179.68 342.05 180.901L338.286 184.665C337.858 185.094 337.89 185.578 338.373 185.823C341.581 187.478 345.541 188.501 349.785 188.881C350.451 188.943 351.234 188.678 351.662 188.249L355.426 184.486C358.35 184.503 361.413 184.169 364.464 183.503L367.034 186.578C367.332 186.929 368.038 187.031 368.757 186.816C373.381 185.465 377.819 183.531 381.71 181.111C382.287 180.732 382.501 180.227 382.203 179.875ZM356.469 174.949C351.861 173.714 350.855 169.963 354.229 166.589C357.603 163.215 364.1 161.474 368.709 162.709C373.317 163.944 374.323 167.695 370.949 171.069C367.575 174.443 361.077 176.184 356.469 174.949Z" fill="#E82929"/>
<path d="M131.716 21.4482C132.212 20.9518 133.162 20.7038 133.838 20.8944L284.323 63.3356C284.999 63.5262 285.144 64.0831 284.648 64.5796C284.152 65.076 283.201 65.3239 282.526 65.1334L132.04 22.6921C131.365 22.5016 131.219 21.9447 131.716 21.4482Z" fill="#4E6081"/>
<path d="M123.177 29.9874C123.673 29.491 124.623 29.243 125.299 29.4336L275.784 71.8748C276.46 72.0654 276.605 72.6223 276.109 73.1187C275.612 73.6152 274.662 73.8631 273.986 73.6726L123.501 31.2313C122.826 31.0408 122.68 30.4838 123.177 29.9874Z" fill="#4E6081"/>
<path d="M114.637 38.5266C115.134 38.0302 116.084 37.7822 116.76 37.9728L267.245 80.414C267.921 80.6046 268.066 81.1615 267.57 81.6579C267.073 82.1544 266.123 82.4023 265.447 82.2118L114.962 39.7705C114.286 39.58 114.141 39.023 114.637 38.5266Z" fill="#4E6081"/>
<path d="M106.098 47.0658C106.595 46.5694 107.545 46.3214 108.221 46.512L258.706 88.9532C259.382 89.1438 259.527 89.7007 259.03 90.1971C258.534 90.6936 257.584 90.9415 256.908 90.7509L106.423 48.3097C105.747 48.1192 105.602 47.5622 106.098 47.0658Z" fill="#4E6081"/>
<path d="M97.5591 55.605C98.0555 55.1086 99.0057 54.8606 99.6814 55.0512L250.167 97.4924C250.842 97.683 250.988 98.2399 250.491 98.7363C249.995 99.2328 249.045 99.4807 248.369 99.2901L97.8837 56.8489C97.208 56.6583 97.0627 56.1014 97.5591 55.605Z" fill="#4E6081"/>
<path d="M74.5126 79.9227C75.009 79.4262 75.9592 79.1783 76.6349 79.3689L227.12 121.81C227.796 122.001 227.941 122.558 227.445 123.054C226.948 123.55 225.998 123.798 225.322 123.608L74.8372 81.1666C74.1615 80.976 74.0162 80.4191 74.5126 79.9227Z" fill="#4E6081"/>
<path d="M65.9734 88.4619C66.4698 87.9654 67.42 87.7175 68.0957 87.908L218.581 130.349C219.257 130.54 219.402 131.097 218.906 131.593C218.409 132.09 217.459 132.338 216.783 132.147L66.298 89.7058C65.6223 89.5152 65.477 88.9583 65.9734 88.4619Z" fill="#4E6081"/>
<path d="M57.4342 97.0011C57.9306 96.5046 58.8808 96.2567 59.5565 96.4472L210.042 138.888C210.717 139.079 210.863 139.636 210.366 140.132C209.87 140.629 208.92 140.877 208.244 140.686L57.7588 98.245C57.0831 98.0544 56.9378 97.4975 57.4342 97.0011Z" fill="#4E6081"/>
<path d="M48.895 105.54C49.3915 105.044 50.3417 104.796 51.0173 104.986L201.503 147.428C202.178 147.618 202.324 148.175 201.827 148.672C201.331 149.168 200.381 149.416 199.705 149.225L49.2196 106.784C48.5439 106.594 48.3986 106.037 48.895 105.54Z" fill="#4E6081"/>
<path d="M40.3558 114.079C40.8523 113.583 41.8025 113.335 42.4782 113.526L192.963 155.967C193.639 156.157 193.784 156.714 193.288 157.211C192.792 157.707 191.841 157.955 191.166 157.765L40.6804 115.323C40.0047 115.133 39.8594 114.576 40.3558 114.079Z" fill="#4E6081"/>
<defs>
<filter id="filter0_f_320_1423" x="193.219" y="88.212" width="298.98" height="153.123" filterUnits="userSpaceOnUse" color-interpolation-filters="sRGB">
<feFlood flood-opacity="0" result="BackgroundImageFix"/>
<feBlend mode="normal" in="SourceGraphic" in2="BackgroundImageFix" result="shape"/>
<feGaussianBlur stdDeviation="12.5" result="effect1_foregroundBlur_320_1423"/>
</filter>
<filter id="filter1_f_320_1423" x="288.067" y="48.5631" width="209.698" height="115.906" filterUnits="userSpaceOnUse" color-interpolation-filters="sRGB">
<feFlood flood-opacity="0" result="BackgroundImageFix"/>
<feBlend mode="normal" in="SourceGraphic" in2="BackgroundImageFix" result="shape"/>
<feGaussianBlur stdDeviation="12.5" result="effect1_foregroundBlur_320_1423"/>
</filter>
<filter id="filter2_f_320_1423" x="74.5881" y="1.78247" width="266.07" height="166.534" filterUnits="userSpaceOnUse" color-interpolation-filters="sRGB">
<feFlood flood-opacity="0" result="BackgroundImageFix"/>
<feBlend mode="normal" in="SourceGraphic" in2="BackgroundImageFix" result="shape"/>
<feGaussianBlur stdDeviation="12.5" result="effect1_foregroundBlur_320_1423"/>
</filter>
<clipPath id="clip0_320_1423">
<rect width="206.273" height="70.3372" fill="white" transform="matrix(0.965926 0.258819 -0.707107 0.707107 267.955 113.212)"/>
</clipPath>
<clipPath id="clip1_320_1423">
<rect width="206.273" height="70.3372" fill="white" transform="matrix(0.965926 0.258819 -0.707107 0.707107 267.957 99.6313)"/>
</clipPath>
<clipPath id="clip2_320_1423">
<rect width="206.273" height="70.3372" fill="white" transform="matrix(0.965926 0.258819 -0.707107 0.707107 267.957 92.3712)"/>
</clipPath>
</defs>
</svg>
